<?xml version="1.0" encoding="utf-8"?>
<!-- Generator: Adobe Illustrator 16.0.0, SVG Export Plug-In . SVG Version: 6.00 Build 0)  -->
<!DOCTYPE svg PUBLIC "-//W3C//DTD SVG 1.1//EN" "http://www.w3.org/Graphics/SVG/1.1/DTD/svg11.dtd">
<svg version="1.1" id="Layer_1" xmlns="http://www.w3.org/2000/svg" xmlns:xlink="http://www.w3.org/1999/xlink" x="0px" y="0px"
	 width="24px" height="24px" viewBox="0 0 24 24" enable-background="new 0 0 24 24" xml:space="preserve">
<path d="M12.019,0.35C11.651,0.35,3,0.376,3,2.893v18.509c0,2.517,8.651,2.542,9.019,2.542s9.019-0.025,9.019-2.542V2.893
	C21.037,0.376,12.386,0.35,12.019,0.35z M4.101,4.256c1.756,0.892,5.296,1.206,7.917,1.206c2.595,0,6.161-0.314,7.917-1.206v3.539
	c-0.105,0.341-2.674,1.39-7.917,1.39c-5.217,0-7.812-1.048-7.917-1.39V4.256z M19.857,2.972c-0.026,0.026-0.079,0.052-0.105,0.078
	l-0.026,0.026c-0.052,0.026-0.105,0.052-0.183,0.105l0.078,0.157l0,0l0,0L19.49,3.208c-0.052,0.026-0.131,0.053-0.209,0.079
	l-0.079,0.026c-0.079,0.026-0.157,0.053-0.262,0.105l-0.079,0.026c-0.104,0.026-0.183,0.053-0.288,0.105l-0.131,0.026
	c-0.105,0.026-0.209,0.052-0.341,0.079L17.943,3.68c-0.131,0.026-0.262,0.052-0.394,0.079c-0.078,0.026-0.183,0.026-0.288,0.052
	L17,3.863c-0.079,0.026-0.184,0.026-0.263,0.052h-0.052c-0.105,0.026-0.185,0.026-0.289,0.053s-0.209,0.026-0.34,0.052
	c-0.105,0.026-0.236,0.026-0.341,0.053c-0.105,0-0.235,0.025-0.34,0.025c-0.131,0.026-0.263,0.026-0.394,0.026
	c-0.104,0-0.236,0.026-0.341,0.026c-0.157,0-0.315,0.027-0.472,0.027l-0.341,0.026c-0.184,0-0.367,0.026-0.551,0.026h-0.288
	c-0.289,0-0.603,0-0.918,0c-0.314,0-0.603,0-0.891,0h-0.289c-0.183,0-0.367,0-0.551-0.026L10,4.178
	c-0.158,0-0.315-0.027-0.472-0.027c-0.105,0-0.236-0.026-0.341-0.026c-0.131,0-0.263-0.026-0.394-0.026
	c-0.105,0-0.236-0.025-0.341-0.025c-0.13-0.026-0.235-0.026-0.34-0.053C8.008,3.995,7.876,3.995,7.771,3.968
	S7.588,3.942,7.483,3.916L7.3,3.942c-0.079,0-0.158-0.026-0.236-0.026L6.802,3.863c-0.105-0.026-0.21-0.026-0.289-0.053
	C6.382,3.785,6.25,3.758,6.12,3.732L5.962,3.706C5.831,3.68,5.727,3.653,5.622,3.627L5.491,3.575
	C5.386,3.549,5.281,3.522,5.202,3.47L5.097,3.444C5.019,3.417,4.94,3.391,4.861,3.365L4.783,3.339
	c-0.079-0.026-0.131-0.052-0.21-0.105L4.546,3.208c-0.052-0.026-0.13-0.052-0.183-0.105L4.337,3.077
	C4.285,3.05,4.258,3.024,4.206,2.972C4.18,2.946,4.153,2.919,4.153,2.919s0-0.026,0.079-0.079c0.052-0.052,0.131-0.105,0.236-0.157
	C4.546,2.631,4.625,2.604,4.73,2.552C4.809,2.5,4.914,2.474,5.044,2.421c0.734-0.262,2.911-0.917,7.026-0.917
	c3.959,0,6.109,0.603,6.869,0.839c0.787,0.262,1.023,0.498,1.023,0.55C19.909,2.919,19.884,2.919,19.857,2.972z M4.101,9.133
	c1.756,0.891,5.296,1.206,7.917,1.206c2.595,0,6.161-0.315,7.917-1.206V12.2c-0.105,0.341-2.674,1.389-7.917,1.389
	c-5.217,0-7.812-1.048-7.917-1.389V9.133z M4.101,13.563c1.756,0.865,5.322,1.206,7.917,1.206c2.595,0,6.161-0.314,7.917-1.206
	v3.644c-0.105,0.34-2.674,1.389-7.917,1.389c-5.217,0-7.812-1.049-7.917-1.389V13.563z M4.101,18.571
	c1.756,0.891,5.296,1.206,7.917,1.206c2.595,0,6.161-0.314,7.917-1.206v2.832c-0.105,0.34-2.674,1.389-7.917,1.389
	c-5.217,0-7.812-1.049-7.917-1.389V18.571z"/>
</svg>
