<svg xmlns="http://www.w3.org/2000/svg" xmlns:xlink="http://www.w3.org/1999/xlink" version="1.1" id="Layer_1" x="0px" y="0px" width="100px" height="100px" viewBox="0 0 100 100" enable-background="new 0 0 100 100" xml:space="preserve">
<path d="M50,5c-1.4,0-34.4,0.1-34.4,9.7v70.6c0,9.6,33,9.7,34.4,9.7s34.4-0.1,34.4-9.7V14.7C84.4,5.1,51.4,5,50,5z M19.8,19.9  c6.7,3.4,20.2,4.6,30.2,4.6c9.9,0,23.5-1.2,30.2-4.6l0,13.5c-0.4,1.3-10.2,5.3-30.2,5.3c-19.9,0-29.8-4-30.2-5.3V19.9z M79.9,15  c-0.1,0.1-0.3,0.2-0.4,0.3l-0.1,0.1c-0.2,0.1-0.4,0.2-0.7,0.4l0.3,0.6l0,0v0l-0.5-0.5c-0.2,0.1-0.5,0.2-0.8,0.3l-0.3,0.1  c-0.3,0.1-0.6,0.2-1,0.4l-0.3,0.1c-0.4,0.1-0.7,0.2-1.1,0.4l-0.5,0.1c-0.4,0.1-0.8,0.2-1.3,0.3l-0.6,0.1c-0.5,0.1-1,0.2-1.5,0.3  c-0.3,0.1-0.7,0.1-1.1,0.2l-1,0.2c-0.3,0.1-0.7,0.1-1,0.2l-0.2,0c-0.4,0.1-0.7,0.1-1.1,0.2c-0.4,0.1-0.8,0.1-1.3,0.2  c-0.4,0.1-0.9,0.1-1.3,0.2c-0.4,0-0.9,0.1-1.3,0.1c-0.5,0.1-1,0.1-1.5,0.1c-0.4,0-0.9,0.1-1.3,0.1c-0.6,0-1.2,0.1-1.8,0.1l-1.3,0.1  c-0.7,0-1.4,0.1-2.1,0.1l-1.1,0c-1.1,0-2.3,0-3.5,0c-1.2,0-2.3,0-3.4,0l-1.1,0c-0.7,0-1.4,0-2.1-0.1l-1.3-0.1  c-0.6,0-1.2-0.1-1.8-0.1c-0.4,0-0.9-0.1-1.3-0.1c-0.5,0-1-0.1-1.5-0.1c-0.4,0-0.9-0.1-1.3-0.1c-0.5-0.1-0.9-0.1-1.3-0.2  c-0.4-0.1-0.9-0.1-1.3-0.2c-0.4-0.1-0.7-0.1-1.1-0.2L32,18.7c-0.3,0-0.6-0.1-0.9-0.1l-1-0.2c-0.4-0.1-0.8-0.1-1.1-0.2  c-0.5-0.1-1-0.2-1.5-0.3l-0.6-0.1c-0.5-0.1-0.9-0.2-1.3-0.3l-0.5-0.2c-0.4-0.1-0.8-0.2-1.1-0.4l-0.4-0.1c-0.3-0.1-0.6-0.2-0.9-0.3  l-0.3-0.1c-0.3-0.1-0.5-0.2-0.8-0.4l-0.1-0.1c-0.2-0.1-0.5-0.2-0.7-0.4c0,0-0.1-0.1-0.1-0.1c-0.2-0.1-0.3-0.2-0.5-0.4  c-0.1-0.1-0.2-0.2-0.2-0.2c0,0,0-0.1,0.3-0.3c0.2-0.2,0.5-0.4,0.9-0.6c0.3-0.2,0.6-0.3,1-0.5c0.3-0.2,0.7-0.3,1.2-0.5  c2.8-1,11.1-3.5,26.8-3.5c15.1,0,23.3,2.3,26.2,3.2c3,1,3.9,1.9,3.9,2.1C80.1,14.8,80,14.8,79.9,15z M19.8,38.5  c6.7,3.4,20.2,4.6,30.2,4.6c9.9,0,23.5-1.2,30.2-4.6l0,11.7c-0.4,1.3-10.2,5.3-30.2,5.3c-19.9,0-29.8-4-30.2-5.3V38.5z M19.8,55.4  C26.5,58.7,40.1,60,50,60c9.9,0,23.5-1.2,30.2-4.6l0,13.9c-0.4,1.3-10.2,5.3-30.2,5.3c-19.9,0-29.8-4-30.2-5.3V55.4z M19.8,74.5  c6.7,3.4,20.2,4.6,30.2,4.6c9.9,0,23.5-1.2,30.2-4.6l0,10.8c-0.4,1.3-10.2,5.3-30.2,5.3c-19.9,0-29.8-4-30.2-5.3V74.5z"/>
</svg>