<?xml version="1.0" encoding="utf-8"?>
<!-- Generator: Adobe Illustrator 16.0.0, SVG Export Plug-In . SVG Version: 6.00 Build 0)  -->
<!DOCTYPE svg PUBLIC "-//W3C//DTD SVG 1.1//EN" "http://www.w3.org/Graphics/SVG/1.1/DTD/svg11.dtd">
<svg version="1.1" id="Your_Icon" xmlns="http://www.w3.org/2000/svg" xmlns:xlink="http://www.w3.org/1999/xlink" x="0px" y="0px"
	 width="100px" height="100px" viewBox="0 0 100 100" enable-background="new 0 0 100 100" xml:space="preserve">
<g>
	<path d="M83.387,95H16.614c-2.111,0-3.823-1.712-3.823-3.823c0-2.11,1.711-3.823,3.823-3.823h66.771
		c2.111,0,3.823,1.713,3.823,3.823C87.208,93.288,85.497,95,83.387,95z"/>
</g>
<g>
	<g>
		<path d="M86.093,16.93L75.236,6.073c-1.442-1.431-3.977-1.431-5.406,0L60,15.903L22.034,53.857
			c-0.339,0.351-0.612,0.754-0.808,1.201L13.1,74.042c-0.612,1.442-0.295,3.103,0.808,4.205c0.732,0.731,1.715,1.125,2.709,1.125
			c0.502,0,1.016-0.099,1.507-0.306l18.983-8.137c0.448-0.187,0.852-0.46,1.19-0.809l37.965-37.954l9.83-9.83
			c0.71-0.721,1.114-1.693,1.114-2.698C87.207,18.623,86.803,17.651,86.093,16.93z M33.415,64.189l-9.524,4.086l4.074-9.524
			l33.87-33.859l5.438,5.439L33.415,64.189z M71.141,26.476l0.01,0.011c-0.098,0.087-0.196,0.175-0.295,0.273L71.141,26.476
			l-5.451-5.45l-0.283,0.284c0.098-0.098,0.175-0.197,0.262-0.295l0.021,0.011l6.838-6.837l5.449,5.45L71.141,26.476z"/>
		<path d="M65.689,21.026l-0.283,0.284c0.098-0.098,0.175-0.197,0.262-0.295L65.689,21.026z"/>
		<path d="M71.15,26.487c-0.098,0.087-0.196,0.175-0.295,0.273l0.285-0.284L71.15,26.487z"/>
	</g>
	<g>
		<path d="M65.689,21.026l-0.283,0.284c0.098-0.098,0.175-0.197,0.262-0.295L65.689,21.026z"/>
		<path d="M71.15,26.487c-0.098,0.087-0.196,0.175-0.295,0.273l0.285-0.284L71.15,26.487z"/>
	</g>
</g>
</svg>
