<?xml version="1.0" encoding="utf-8"?>
<!-- Generator: Adobe Illustrator 16.0.0, SVG Export Plug-In . SVG Version: 6.00 Build 0)  -->
<!DOCTYPE svg PUBLIC "-//W3C//DTD SVG 1.1//EN" "http://www.w3.org/Graphics/SVG/1.1/DTD/svg11.dtd">
<svg version="1.1" id="Layer_1" xmlns="http://www.w3.org/2000/svg" xmlns:xlink="http://www.w3.org/1999/xlink" x="0px" y="0px"
	 width="101.965px" height="98.199px" viewBox="0 0 101.965 98.199" enable-background="new 0 0 101.965 98.199"
	 xml:space="preserve">
<g id="Layer_3">
	<g>
		<path fill="none" stroke="#000000" stroke-width="7" stroke-miterlimit="10" d="M84.922,66.997c0,6.627-4.983,12-11.133,12H27.391
			c-6.149,0-11.134-5.373-11.134-12V16.991c0-6.627,4.985-12,11.134-12H73.79c6.149,0,11.133,5.373,11.133,12V66.997z"/>
		<path fill="#FFFFFF" stroke="#000000" stroke-width="7" stroke-miterlimit="10" d="M73.915,77.005c0,6.627-4.984,12-11.135,12
			H16.382c-6.149,0-11.134-5.373-11.134-12V26.999c0-6.627,4.985-12,11.134-12H62.78c6.15,0,11.135,5.373,11.135,12V77.005z"/>
		<line fill="none" stroke="#000000" stroke-width="7" stroke-miterlimit="10" x1="24.334" y1="14.999" x2="24.334" y2="89.005"/>
		<line fill="none" stroke="#000000" stroke-width="7" stroke-miterlimit="10" x1="8.499" y1="18.525" x2="19.518" y2="8.506"/>
	</g>
</g>
<g id="Layer_2">
</g>
<g id="Layer_1_1_">
	<g id="Your_Icon">
		<g>
			<path stroke="#FFFFFF" stroke-miterlimit="10" d="M100.375,88.709l-8.887-8.889c2.414-3.478,3.834-7.697,3.834-12.244
				c0-11.876-9.664-21.537-21.541-21.537c-11.876,0-21.537,9.661-21.537,21.537c0,11.879,9.661,21.54,21.539,21.54
				c3.272,0,6.375-0.735,9.155-2.048l9.539,9.541c1.028,1.024,2.401,1.59,3.862,1.59c1.496,0,2.908-0.588,3.978-1.652
				C102.493,94.369,102.519,90.852,100.375,88.709z M60.859,67.576c0-7.125,5.798-12.924,12.923-12.924
				c7.127,0,12.924,5.799,12.924,12.924c0,7.128-5.797,12.926-12.924,12.926C66.657,80.502,60.859,74.704,60.859,67.576z"/>
		</g>
	</g>
</g>
</svg>
