<?xml version="1.0" encoding="utf-8"?>
<!-- Generator: Adobe Illustrator 16.0.0, SVG Export Plug-In . SVG Version: 6.00 Build 0)  -->
<!DOCTYPE svg PUBLIC "-//W3C//DTD SVG 1.1//EN" "http://www.w3.org/Graphics/SVG/1.1/DTD/svg11.dtd">
<svg version="1.1" id="Layer_1" xmlns="http://www.w3.org/2000/svg" xmlns:xlink="http://www.w3.org/1999/xlink" x="0px" y="0px"
	 width="100px" height="100px" viewBox="0 0 100 100" enable-background="new 0 0 100 100" xml:space="preserve">
<g>
	<path d="M56.49,47.086c-0.022-0.023-0.04-0.045-0.061-0.066L33.688,24.334c-1.549-1.546-4.052-1.545-5.588-0.001
		c-1.537,1.544-1.527,4.052,0.021,5.596l16.344,16.304H3.936C1.754,46.231-0.008,48.003,0,50.188
		c0.009,2.185,1.785,3.957,3.967,3.957h40.548L27.927,70.822c-1.538,1.544-1.527,4.051,0.022,5.595c1.548,1.546,4.05,1.546,5.587,0
		L56.104,53.73c0.115-0.119,0.222-0.24,0.319-0.369c0.964-0.721,1.591-1.871,1.585-3.171C58.006,48.931,57.409,47.81,56.49,47.086z"
		/>
	<path d="M51.486,63.15l-7.861,7.904v17.938c0,3.433,2.918,6.214,6.519,6.214l7.724-0.002v-7.861l-6.382,0.002V63.15z"/>
	<path d="M51.486,13.406h6.382V5.543h-7.724c-3.601,0-6.519,2.781-6.519,6.212v17.731l7.861,7.842V13.406z"/>
	<path d="M97.492,8.293L65.182,0.071c-2.039-0.506-3.736,1.751-3.736,5.094v89.679c0,3.326,1.697,5.614,3.736,5.079l32.312-8.22
		c1.396-0.352,2.508-2.825,2.508-5.502V13.788C100,11.097,98.889,8.65,97.492,8.293z M74.087,54.922
		c-2.72,0-4.924-2.204-4.924-4.922c0-2.72,2.204-4.925,4.924-4.925c2.718,0,4.924,2.205,4.924,4.925
		C79.012,52.718,76.805,54.922,74.087,54.922z"/>
</g>
</svg>
