<?xml version="1.0" encoding="utf-8"?>
<!-- Generator: Adobe Illustrator 16.0.0, SVG Export Plug-In . SVG Version: 6.00 Build 0)  -->
<!DOCTYPE svg PUBLIC "-//W3C//DTD SVG 1.1//EN" "http://www.w3.org/Graphics/SVG/1.1/DTD/svg11.dtd">
<svg version="1.1" id="Layer_1" xmlns="http://www.w3.org/2000/svg" xmlns:xlink="http://www.w3.org/1999/xlink" x="0px" y="0px"
	 width="100px" height="99.997px" viewBox="0 0 100 99.997" enable-background="new 0 0 100 99.997" xml:space="preserve">
<g id="Your_Icon">
	<g>
		<path fill="#010101" d="M89.556,10.443C82.819,3.71,73.868,0,64.343,0C54.82,0,45.867,3.707,39.133,10.44
			C32.4,17.172,28.689,26.127,28.694,35.652c0,5.633,1.324,11.053,3.779,15.948L3.295,80.778c-4.394,4.401-4.394,11.526,0,15.928
			c2.199,2.193,5.079,3.291,7.966,3.291c2.88,0,5.759-1.1,7.96-3.291l29.174-29.18c4.898,2.455,10.315,3.78,15.95,3.782
			c9.527,0,18.478-3.709,25.215-10.442C96.293,54.132,100,45.178,100,35.652C99.998,26.131,96.289,17.177,89.556,10.443z
			 M64.346,56.297c-5.509,0-10.695-2.151-14.597-6.051c-3.896-3.898-6.043-9.08-6.043-14.594
			c-0.004-5.513,2.146-10.695,6.043-14.594c3.899-3.898,9.081-6.043,14.594-6.043c5.515,0,10.699,2.145,14.598,6.043
			c3.899,3.899,6.043,9.083,6.043,14.598c0.004,5.515-2.144,10.696-6.039,14.595C75.042,54.148,69.86,56.297,64.346,56.297z"/>
	</g>
</g>
</svg>
