<?xml version="1.0" encoding="utf-8"?>
<!-- Generator: Adobe Illustrator 16.0.0, SVG Export Plug-In . SVG Version: 6.00 Build 0)  -->
<!DOCTYPE svg PUBLIC "-//W3C//DTD SVG 1.0//EN" "http://www.w3.org/TR/2001/REC-SVG-20010904/DTD/svg10.dtd">
<svg version="1.0" xmlns="http://www.w3.org/2000/svg" xmlns:xlink="http://www.w3.org/1999/xlink" x="0px" y="0px"
	 width="12.766px" height="16px" viewBox="0 0 12.766 16" enable-background="new 0 0 12.766 16" xml:space="preserve">
<g id="Layer_3">
</g>
<g id="Layer_1">
</g>
<g id="Layer_2">
</g>
<g id="Layer_4">
	<polygon fill="#FFFFFF" points="12.521,3.729 12.552,16 0.562,16 0.541,0 8.972,0 	"/>
	<g>
		<g>
			<g>
				<g>
					<path fill="#808080" d="M12.676,3.52L9.244,0.088C9.191,0.035,9.12,0,9.031,0H0.285C0.124,0,0,0.123,0,0.283v15.433
						C0,15.875,0.124,16,0.285,16H12.48c0.16,0,0.285-0.125,0.285-0.284V3.714C12.766,3.643,12.729,3.572,12.676,3.52z M9.316,0.959
						l2.471,2.472H9.316V0.959z M12.195,15.433H0.568V0.569h8.178v3.162c0,0.162,0.126,0.286,0.285,0.286h3.164V15.433z"/>
				</g>
			</g>
		</g>
	</g>
	<g>
		<path d="M3.455,11.549c0.197,0.191,0.308,0.409,0.33,0.652H3.406c-0.043-0.185-0.127-0.331-0.253-0.439S2.851,11.6,2.623,11.6
			c-0.277,0-0.502,0.1-0.672,0.298c-0.171,0.199-0.256,0.504-0.256,0.914c0,0.336,0.076,0.609,0.23,0.818s0.385,0.313,0.689,0.313
			c0.281,0,0.496-0.11,0.643-0.33c0.078-0.116,0.137-0.269,0.176-0.457h0.379c-0.034,0.302-0.145,0.556-0.332,0.76
			c-0.226,0.246-0.529,0.369-0.912,0.369c-0.329,0-0.605-0.101-0.83-0.303c-0.295-0.268-0.441-0.68-0.441-1.237
			c0-0.424,0.11-0.771,0.332-1.042c0.238-0.294,0.568-0.441,0.99-0.441C2.978,11.262,3.256,11.357,3.455,11.549z"/>
		<path d="M4.324,11.34h0.393v1.186h1.475V11.34h0.393v2.869H6.191v-1.342H4.717v1.342H4.324V11.34z"/>
		<path d="M8.04,11.34h0.438l1.041,2.869H9.094L8.795,13.35H7.669l-0.312,0.859H6.959L8.04,11.34z M8.685,13.033l-0.442-1.268
			l-0.459,1.268H8.685z"/>
		<path d="M11.662,11.34v0.342h-0.967v2.527h-0.393v-2.527H9.336V11.34H11.662z"/>
	</g>
</g>
</svg>
