<?xml version="1.0" encoding="utf-8"?>
<!-- Generator: Adobe Illustrator 16.0.0, SVG Export Plug-In . SVG Version: 6.00 Build 0)  -->
<!DOCTYPE svg PUBLIC "-//W3C//DTD SVG 1.0//EN" "http://www.w3.org/TR/2001/REC-SVG-20010904/DTD/svg10.dtd">
<svg version="1.0" xmlns="http://www.w3.org/2000/svg" xmlns:xlink="http://www.w3.org/1999/xlink" x="0px" y="0px"
	 width="12.766px" height="16px" viewBox="0 0 12.766 16" enable-background="new 0 0 12.766 16" xml:space="preserve">
<g id="Layer_3">
</g>
<g id="Layer_1">
</g>
<g id="Layer_2">
</g>
<g id="Layer_4">
	<polygon fill="#FFFFFF" points="12.521,3.729 12.552,16 0.562,16 0.541,0 8.972,0 	"/>
	<g>
		<g>
			<g>
				<g>
					<path fill="#808080" d="M12.676,3.52L9.244,0.088C9.191,0.035,9.12,0,9.031,0H0.285C0.124,0,0,0.123,0,0.283v15.433
						C0,15.875,0.124,16,0.285,16H12.48c0.16,0,0.285-0.125,0.285-0.284V3.714C12.766,3.643,12.729,3.572,12.676,3.52z M9.316,0.959
						l2.471,2.472H9.316V0.959z M12.195,15.433H0.568V0.569h8.178v3.162c0,0.162,0.126,0.286,0.285,0.286h3.164V15.433z"/>
				</g>
			</g>
		</g>
	</g>
	<rect x="0.569" y="11.333" fill="none" width="11.626" height="6.08"/>
	<text transform="matrix(1 0 0 1 0.9375 14.209)" font-family="'Helvetica'" font-size="4">CHAT</text>
</g>
</svg>
