<?xml version="1.0" encoding="utf-8"?>
<!-- Generator: Adobe Illustrator 16.0.0, SVG Export Plug-In . SVG Version: 6.00 Build 0)  -->
<!DOCTYPE svg PUBLIC "-//W3C//DTD SVG 1.0//EN" "http://www.w3.org/TR/2001/REC-SVG-20010904/DTD/svg10.dtd">
<svg version="1.0" xmlns="http://www.w3.org/2000/svg" xmlns:xlink="http://www.w3.org/1999/xlink" x="0px" y="0px"
	 width="12.765px" height="16px" viewBox="0 0 12.765 16" enable-background="new 0 0 12.765 16" xml:space="preserve">
<g id="Layer_3">
</g>
<g id="Layer_1">
</g>
<g id="Layer_2">
</g>
<g id="Layer_4">
	<polygon fill="#FFFFFF" points="12.522,3.729 12.551,16 0.562,16 0.541,0 8.972,0 	"/>
	<g>
		<g>
			<g>
				<g>
					<path fill="#808080" d="M12.676,3.52L9.244,0.088C9.191,0.035,9.12,0,9.032,0H0.285C0.124,0,0,0.123,0,0.283v15.433
						C0,15.875,0.124,16,0.285,16h12.196c0.16,0,0.285-0.125,0.285-0.284V3.714C12.766,3.643,12.729,3.572,12.676,3.52z
						 M9.316,0.959l2.471,2.472H9.316V0.959z M12.196,15.433H0.569V0.569h8.178v3.162c0,0.162,0.125,0.286,0.285,0.286h3.164V15.433
						z"/>
				</g>
			</g>
		</g>
	</g>
	<g>
		<path d="M4.381,11.576c0.223,0.215,0.347,0.46,0.372,0.733H4.327c-0.047-0.208-0.142-0.373-0.284-0.494
			c-0.142-0.122-0.341-0.183-0.597-0.183c-0.312,0-0.564,0.111-0.756,0.335s-0.288,0.566-0.288,1.028
			c0,0.379,0.087,0.686,0.26,0.921s0.432,0.353,0.776,0.353c0.316,0,0.558-0.124,0.723-0.371c0.087-0.131,0.153-0.302,0.196-0.515
			h0.426c-0.038,0.34-0.162,0.625-0.374,0.854c-0.253,0.277-0.595,0.416-1.025,0.416c-0.371,0-0.682-0.114-0.934-0.341
			c-0.332-0.301-0.498-0.765-0.498-1.392c0-0.477,0.125-0.867,0.374-1.172c0.269-0.332,0.641-0.497,1.114-0.497
			C3.845,11.253,4.159,11.36,4.381,11.576z"/>
		<path d="M5.634,13.527c0.01,0.183,0.051,0.331,0.125,0.445c0.14,0.214,0.386,0.321,0.739,0.321c0.158,0,0.302-0.023,0.432-0.07
			c0.251-0.091,0.377-0.254,0.377-0.488c0-0.176-0.053-0.301-0.16-0.376c-0.108-0.072-0.277-0.137-0.507-0.19L6.216,13.07
			c-0.277-0.064-0.473-0.136-0.588-0.214c-0.199-0.135-0.298-0.336-0.298-0.604c0-0.289,0.098-0.527,0.293-0.714
			c0.195-0.186,0.472-0.278,0.83-0.278c0.329,0,0.609,0.081,0.839,0.244c0.23,0.164,0.345,0.425,0.345,0.783H7.227
			c-0.021-0.172-0.066-0.305-0.135-0.397c-0.127-0.168-0.345-0.253-0.651-0.253c-0.247,0-0.425,0.055-0.533,0.163
			c-0.108,0.108-0.163,0.234-0.163,0.378c0,0.158,0.064,0.274,0.192,0.348c0.083,0.047,0.273,0.105,0.568,0.176l0.438,0.103
			c0.211,0.05,0.375,0.118,0.49,0.204c0.199,0.151,0.298,0.37,0.298,0.657c0,0.357-0.126,0.613-0.38,0.767
			c-0.254,0.154-0.548,0.231-0.884,0.231c-0.391,0-0.698-0.103-0.919-0.308c-0.222-0.204-0.331-0.479-0.326-0.828H5.634z"/>
		<path d="M8.605,11.341l0.927,2.749l0.917-2.749h0.49l-1.178,3.228H9.298l-1.176-3.228H8.605z"/>
	</g>
</g>
</svg>
