<?xml version="1.0" encoding="utf-8"?>
<!-- Generator: Adobe Illustrator 16.0.0, SVG Export Plug-In . SVG Version: 6.00 Build 0)  -->
<!DOCTYPE svg PUBLIC "-//W3C//DTD SVG 1.0//EN" "http://www.w3.org/TR/2001/REC-SVG-20010904/DTD/svg10.dtd">
<svg version="1.0" xmlns="http://www.w3.org/2000/svg" xmlns:xlink="http://www.w3.org/1999/xlink" x="0px" y="0px"
	 width="12.765px" height="16px" viewBox="0 0 12.765 16" enable-background="new 0 0 12.765 16" xml:space="preserve">
<g id="Layer_3">
	<polygon fill="#FFFFFF" points="12.286,3.729 12.316,16 0.327,16 0.306,0 8.736,0 	"/>
</g>
<g id="Layer_1">
	<g>
		<g>
			<g>
				<g>
					<g>
						<path fill="#0071BC" d="M12.675,3.52L9.244,0.088C9.191,0.035,9.12,0,9.031,0H0.284C0.124,0,0,0.123,0,0.283v15.433
							C0,15.875,0.124,16,0.284,16h12.195c0.16,0,0.285-0.125,0.285-0.284V3.714C12.765,3.643,12.729,3.572,12.675,3.52z
							 M9.316,0.959l2.471,2.472H9.316V0.959z M12.195,15.433H0.568V0.569h8.178v3.162c0,0.162,0.125,0.286,0.285,0.286h3.164
							V15.433z"/>
					</g>
				</g>
			</g>
		</g>
		<g>
			<g>
				<g>
					<path fill="#0071BC" d="M5.338,3.762v0.641c0,0.205-0.16,0.365-0.366,0.365c-0.183,0-0.343-0.137-0.366-0.32H4.171v1.854
						c0.184,0.022,0.32,0.183,0.32,0.366c0,0.206-0.16,0.366-0.366,0.366h-0.64c-0.206,0-0.366-0.16-0.366-0.366
						c0-0.184,0.137-0.344,0.32-0.366V4.447H2.89c-0.022,0.184-0.16,0.32-0.343,0.32c-0.206,0-0.366-0.16-0.366-0.365V3.762
						c0-0.206,0.16-0.366,0.366-0.366c0.183,0,0.343,0.137,0.366,0.32h1.716c0.022-0.184,0.183-0.32,0.365-0.32
						C5.178,3.396,5.338,3.578,5.338,3.762z"/>
				</g>
			</g>
			<g>
				<path fill="#0071BC" d="M10.05,8.611H2.547c-0.206,0-0.366-0.16-0.366-0.366s0.16-0.366,0.366-0.366h7.526
					c0.206,0,0.366,0.16,0.366,0.366S10.256,8.611,10.05,8.611z"/>
			</g>
			<g>
				<path fill="#0071BC" d="M10.05,10.121H2.547c-0.206,0-0.366-0.16-0.366-0.366s0.16-0.366,0.366-0.366h7.526
					c0.206,0,0.366,0.16,0.366,0.366C10.417,9.961,10.256,10.121,10.05,10.121z"/>
			</g>
			<g>
				<path fill="#0071BC" d="M10.05,5.522H6.299c-0.206,0-0.366-0.16-0.366-0.365c0-0.206,0.16-0.366,0.366-0.366h3.751
					c0.206,0,0.366,0.16,0.366,0.366C10.417,5.362,10.256,5.522,10.05,5.522z"/>
			</g>
			<g>
				<path fill="#0071BC" d="M10.05,7.033H6.299c-0.206,0-0.366-0.16-0.366-0.366s0.16-0.366,0.366-0.366h3.751
					c0.206,0,0.366,0.16,0.366,0.366S10.256,7.033,10.05,7.033z"/>
			</g>
		</g>
	</g>
</g>
<g id="Layer_2">
	<g>
		<path d="M1.744,11.341h1.291c0.438,0,0.777,0.157,1.019,0.472c0.215,0.285,0.323,0.648,0.323,1.093
			c0,0.343-0.064,0.652-0.191,0.929c-0.224,0.49-0.609,0.734-1.156,0.734H1.744V11.341z M2.949,14.195
			c0.145,0,0.264-0.016,0.356-0.047c0.167-0.057,0.302-0.167,0.408-0.329c0.085-0.131,0.146-0.298,0.183-0.501
			c0.021-0.122,0.033-0.234,0.033-0.339c0-0.399-0.078-0.71-0.233-0.932c-0.155-0.221-0.406-0.331-0.751-0.331H2.186v2.479H2.949z"
			/>
		<path d="M7.633,11.802c0.214,0.286,0.321,0.651,0.321,1.097c0,0.482-0.123,0.883-0.367,1.202
			c-0.287,0.375-0.696,0.562-1.228,0.562c-0.497,0-0.887-0.164-1.171-0.492c-0.253-0.316-0.38-0.717-0.38-1.2
			c0-0.437,0.108-0.81,0.325-1.12c0.278-0.398,0.69-0.598,1.235-0.598C6.938,11.253,7.359,11.436,7.633,11.802z M7.248,13.859
			c0.172-0.276,0.258-0.594,0.258-0.953c0-0.38-0.099-0.686-0.298-0.917c-0.198-0.231-0.47-0.348-0.814-0.348
			c-0.334,0-0.606,0.114-0.817,0.344S5.26,12.554,5.26,13.001c0,0.357,0.09,0.659,0.271,0.904c0.181,0.246,0.474,0.368,0.88,0.368
			C6.797,14.273,7.076,14.136,7.248,13.859z"/>
		<path d="M10.757,11.576c0.223,0.215,0.347,0.46,0.372,0.733h-0.426c-0.047-0.208-0.142-0.373-0.284-0.494
			c-0.142-0.122-0.341-0.183-0.597-0.183c-0.312,0-0.564,0.111-0.756,0.335s-0.288,0.566-0.288,1.028
			c0,0.379,0.087,0.686,0.26,0.921S9.47,14.27,9.814,14.27c0.316,0,0.558-0.124,0.723-0.371c0.087-0.131,0.153-0.302,0.196-0.515
			h0.426c-0.038,0.34-0.162,0.625-0.374,0.854c-0.253,0.277-0.595,0.416-1.025,0.416c-0.371,0-0.682-0.114-0.934-0.341
			c-0.332-0.301-0.498-0.765-0.498-1.392c0-0.477,0.125-0.867,0.374-1.172c0.269-0.332,0.641-0.497,1.114-0.497
			C10.221,11.253,10.535,11.36,10.757,11.576z"/>
	</g>
</g>
<g id="Layer_4">
</g>
</svg>
