<?xml version="1.0" encoding="utf-8"?>
<!-- Generator: Adobe Illustrator 16.0.0, SVG Export Plug-In . SVG Version: 6.00 Build 0)  -->
<!DOCTYPE svg PUBLIC "-//W3C//DTD SVG 1.0//EN" "http://www.w3.org/TR/2001/REC-SVG-20010904/DTD/svg10.dtd">
<svg version="1.0" xmlns="http://www.w3.org/2000/svg" xmlns:xlink="http://www.w3.org/1999/xlink" x="0px" y="0px"
	 width="12.766px" height="16px" viewBox="0 0 12.766 16" enable-background="new 0 0 12.766 16" xml:space="preserve">
<g id="Layer_3">
</g>
<g id="Layer_1">
</g>
<g id="Layer_2">
</g>
<g id="Layer_4">
	<polygon fill="#FFFFFF" points="12.537,3.729 12.566,16 0.578,16 0.557,0 8.987,0 	"/>
	<g>
		<g>
			<g>
				<g>
					<path fill="#808080" d="M12.691,3.52L9.26,0.088C9.207,0.035,9.136,0,9.047,0H0.3C0.14,0,0.016,0.123,0.016,0.283v15.433
						C0.016,15.875,0.14,16,0.3,16h12.196c0.16,0,0.285-0.125,0.285-0.284V3.714C12.781,3.643,12.744,3.572,12.691,3.52z
						 M9.332,0.959l2.471,2.472H9.332V0.959z M12.211,15.433H0.584V0.569h8.178v3.162c0,0.162,0.126,0.286,0.285,0.286h3.164V15.433
						z"/>
				</g>
			</g>
		</g>
	</g>
	<g>
		<path d="M1.341,11.34h0.393v1.186h1.475V11.34h0.393v2.869H3.208v-1.342H1.733v1.342H1.341V11.34z"/>
		<path d="M6.306,11.34v0.342H5.339v2.527H4.946v-2.527H3.979V11.34H6.306z"/>
		<path d="M6.653,11.34H7.21l0.825,2.426l0.819-2.426h0.553v2.869H9.036v-1.693c0-0.059,0.002-0.155,0.004-0.291
			c0.003-0.136,0.004-0.28,0.004-0.436l-0.819,2.42H7.84l-0.827-2.42v0.088c0,0.07,0.002,0.178,0.006,0.321s0.006,0.25,0.006,0.317
			v1.693H6.653V11.34z"/>
		<path d="M9.995,11.34h0.389v2.527h1.439v0.342H9.995V11.34z"/>
	</g>
</g>
</svg>
