<?xml version="1.0" encoding="utf-8"?>
<!-- Generator: Adobe Illustrator 16.0.0, SVG Export Plug-In . SVG Version: 6.00 Build 0)  -->
<!DOCTYPE svg PUBLIC "-//W3C//DTD SVG 1.0//EN" "http://www.w3.org/TR/2001/REC-SVG-20010904/DTD/svg10.dtd">
<svg version="1.0" xmlns="http://www.w3.org/2000/svg" xmlns:xlink="http://www.w3.org/1999/xlink" x="0px" y="0px"
	 width="12.765px" height="16px" viewBox="0 0 12.765 16" enable-background="new 0 0 12.765 16" xml:space="preserve">
<g id="Layer_3">
	<polygon fill="#FFFFFF" points="12.45,3.729 12.48,16 0.491,16 0.469,0 8.9,0 	"/>
</g>
<g id="Layer_1">
	<g>
		<g>
			<g>
				<g>
					<path fill="#54C2BA" d="M12.676,3.52L9.244,0.088C9.191,0.035,9.12,0,9.032,0H0.285C0.124,0,0,0.123,0,0.283v15.433
						C0,15.875,0.124,16,0.285,16H12.48c0.16,0,0.285-0.125,0.285-0.284V3.714C12.765,3.643,12.729,3.572,12.676,3.52z M9.316,0.959
						l2.471,2.472H9.316V0.959z M12.195,15.433H0.569V0.569h8.178v3.162c0,0.162,0.125,0.286,0.285,0.286h3.164V15.433z"/>
				</g>
			</g>
		</g>
	</g>
	<g>
		<g>
			<path fill="#54C2BA" d="M9.483,4.775H3.12c-0.175,0-0.311,0.122-0.311,0.278v4.789c0,0.155,0.136,0.278,0.311,0.278h6.382
				c0.175,0,0.311-0.123,0.311-0.278V5.054C9.793,4.897,9.657,4.775,9.483,4.775z M3.411,5.333h5.761v2.298L7.873,6.465
				c-0.117-0.104-0.33-0.104-0.447,0L5.428,8.275L4.827,7.736c-0.117-0.105-0.33-0.105-0.446,0l-0.97,0.869V5.333z M9.192,9.563
				H3.411V9.39l1.203-1.08l0.601,0.54c0.117,0.104,0.33,0.104,0.446,0l1.999-1.794l1.513,1.359v1.148H9.192z"/>
		</g>
		<g>
			<path fill="#54C2BA" d="M4.982,7.388c-0.504,0-0.912-0.367-0.912-0.819S4.478,5.75,4.982,5.75s0.912,0.366,0.912,0.818
				S5.486,7.388,4.982,7.388z M4.982,6.308c-0.155,0-0.291,0.123-0.291,0.261c0,0.14,0.136,0.262,0.291,0.262
				c0.155,0,0.292-0.122,0.292-0.262C5.273,6.431,5.137,6.308,4.982,6.308z"/>
		</g>
	</g>
</g>
<g id="Layer_2">
	<g>
		<path d="M3.936,13.605c0,0.273-0.041,0.484-0.121,0.636c-0.149,0.275-0.434,0.413-0.854,0.413c-0.242,0-0.449-0.065-0.62-0.197
			c-0.172-0.131-0.257-0.364-0.257-0.699v-0.23h0.411v0.23c0,0.176,0.039,0.308,0.118,0.396s0.201,0.133,0.367,0.133
			c0.233,0,0.386-0.08,0.458-0.239c0.044-0.099,0.066-0.284,0.066-0.556v-2.151h0.433V13.605z"/>
		<path d="M4.642,11.341h1.444c0.285,0,0.516,0.081,0.691,0.242c0.176,0.162,0.264,0.39,0.264,0.683
			c0,0.252-0.079,0.472-0.235,0.658s-0.396,0.28-0.719,0.28H5.079v1.364H4.642V11.341z M6.337,11.784
			c-0.096-0.045-0.228-0.067-0.395-0.067H5.079v1.118h0.864c0.195,0,0.353-0.042,0.475-0.126c0.122-0.083,0.182-0.23,0.182-0.441
			C6.599,12.03,6.512,11.869,6.337,11.784z"/>
		<path d="M9.75,11.433c0.316,0.169,0.51,0.464,0.581,0.886H9.897c-0.051-0.235-0.158-0.407-0.32-0.516
			c-0.162-0.107-0.367-0.161-0.613-0.161c-0.292,0-0.539,0.112-0.739,0.336c-0.2,0.225-0.3,0.559-0.3,1.002
			c0,0.384,0.083,0.696,0.248,0.938s0.434,0.361,0.807,0.361c0.286,0,0.522-0.085,0.709-0.254c0.188-0.169,0.284-0.442,0.288-0.82
			H8.965v-0.362h1.417v1.727h-0.281l-0.105-0.415c-0.146,0.162-0.274,0.275-0.387,0.338C9.42,14.6,9.181,14.654,8.89,14.654
			c-0.376,0-0.7-0.124-0.971-0.371c-0.295-0.311-0.443-0.737-0.443-1.279c0-0.541,0.144-0.971,0.433-1.29
			c0.274-0.304,0.63-0.457,1.066-0.457C9.273,11.257,9.532,11.316,9.75,11.433z"/>
	</g>
</g>
<g id="Layer_4">
</g>
</svg>
