<?xml version="1.0" encoding="utf-8"?>
<!-- Generator: Adobe Illustrator 16.0.0, SVG Export Plug-In . SVG Version: 6.00 Build 0)  -->
<!DOCTYPE svg PUBLIC "-//W3C//DTD SVG 1.0//EN" "http://www.w3.org/TR/2001/REC-SVG-20010904/DTD/svg10.dtd">
<svg version="1.0" xmlns="http://www.w3.org/2000/svg" xmlns:xlink="http://www.w3.org/1999/xlink" x="0px" y="0px"
	 width="12.765px" height="16px" viewBox="0 0 12.765 16" enable-background="new 0 0 12.765 16" xml:space="preserve">
<g id="Layer_3">
	<polygon fill="#FFFFFF" points="12.162,3.729 12.192,16 0.203,16 0.181,0 8.612,0 	"/>
</g>
<g id="Layer_1">
	<g>
		<g>
			<g>
				<path fill="#FFD105" d="M12.675,3.52L9.244,0.088C9.191,0.035,9.121,0,9.032,0H0.285C0.124,0,0,0.123,0,0.283v15.433
					C0,15.875,0.124,16,0.285,16H12.48c0.16,0,0.285-0.125,0.285-0.284V3.714C12.765,3.643,12.73,3.572,12.675,3.52z M9.316,0.959
					l2.471,2.472H9.316V0.959z M12.195,15.433H0.569V0.569h8.178v3.162c0,0.162,0.126,0.286,0.285,0.286h3.163V15.433z"/>
			</g>
		</g>
		<g>
			<g>
				<path fill="#FFD105" d="M8.275,4.371c0-0.017-0.018-0.033-0.018-0.05C8.275,4.321,8.275,4.338,8.275,4.371
					C8.275,4.354,8.275,4.371,8.275,4.371z"/>
			</g>
			<g>
				<g>
					<path fill="#FFD105" d="M8.275,4.371c0-0.017-0.018-0.033-0.018-0.05S8.242,4.289,8.242,4.272S8.225,4.256,8.225,4.239
						L8.208,4.224L8.193,4.206L8.175,4.189l0,0c-0.017,0-0.017-0.017-0.033-0.017C8.126,4.156,8.093,4.156,8.078,4.156
						c-0.018,0-0.034,0-0.051,0c-0.016,0-0.033,0-0.049,0c0,0,0,0-0.017,0L4.995,4.898c-0.017,0-0.017,0-0.033,0
						c-0.017,0-0.017,0-0.034,0.017C4.896,4.932,4.862,4.948,4.83,4.98C4.812,4.997,4.812,4.997,4.796,5.015
						C4.78,5.03,4.78,5.03,4.78,5.047l0,0c0,0.017-0.016,0.033-0.016,0.05c0,0.016,0,0.033,0,0.065v2.737
						c-0.148-0.083-0.33-0.133-0.512-0.133c-0.577,0-1.038,0.461-1.038,1.038s0.461,1.039,1.038,1.039
						c0.578,0,1.039-0.462,1.039-1.039V5.377l2.457-0.61v2.407c-0.148-0.083-0.33-0.133-0.512-0.133
						c-0.576,0-1.038,0.462-1.038,1.039S6.66,9.118,7.236,9.118c0.577,0,1.039-0.461,1.039-1.038V4.42
						C8.291,4.403,8.291,4.388,8.275,4.371z M4.269,9.333c-0.28,0-0.511-0.231-0.511-0.512s0.23-0.511,0.511-0.511
						S4.78,8.541,4.78,8.821S4.549,9.333,4.269,9.333z M7.251,8.574c-0.279,0-0.51-0.23-0.51-0.512c0-0.279,0.23-0.51,0.51-0.51
						c0.281,0,0.512,0.23,0.512,0.51C7.763,8.344,7.533,8.574,7.251,8.574z"/>
				</g>
			</g>
		</g>
	</g>
</g>
<g id="Layer_2">
	<g>
		<path d="M2.591,11.341h0.626l0.928,2.729l0.922-2.729h0.622v3.228H5.271v-1.905c0-0.065,0.001-0.175,0.004-0.327
			s0.005-0.315,0.005-0.49l-0.922,2.723H3.925l-0.93-2.723v0.1c0,0.078,0.002,0.199,0.006,0.361c0.004,0.161,0.006,0.28,0.006,0.356
			v1.905H2.591V11.341z"/>
		<path d="M6.449,11.341h0.442v3.228H6.449V11.341z"/>
		<path d="M7.62,11.341h1.291c0.438,0,0.777,0.157,1.019,0.472c0.215,0.285,0.323,0.648,0.323,1.093
			c0,0.343-0.064,0.652-0.191,0.929c-0.224,0.49-0.609,0.734-1.156,0.734H7.62V11.341z M8.825,14.195
			c0.145,0,0.264-0.016,0.356-0.047c0.167-0.057,0.302-0.167,0.408-0.329c0.085-0.131,0.146-0.298,0.183-0.501
			c0.021-0.122,0.033-0.234,0.033-0.339c0-0.399-0.078-0.71-0.233-0.932c-0.155-0.221-0.406-0.331-0.751-0.331H8.062v2.479H8.825z"
			/>
	</g>
</g>
<g id="Layer_4">
</g>
</svg>
