<?xml version="1.0" encoding="utf-8"?>
<!-- Generator: Adobe Illustrator 16.0.0, SVG Export Plug-In . SVG Version: 6.00 Build 0)  -->
<!DOCTYPE svg PUBLIC "-//W3C//DTD SVG 1.0//EN" "http://www.w3.org/TR/2001/REC-SVG-20010904/DTD/svg10.dtd">
<svg version="1.0" xmlns="http://www.w3.org/2000/svg" xmlns:xlink="http://www.w3.org/1999/xlink" x="0px" y="0px"
	 width="12.766px" height="16px" viewBox="0 0 12.766 16" enable-background="new 0 0 12.766 16" xml:space="preserve">
<g id="Layer_3">
	<polygon fill="#FFFFFF" points="12.397,3.729 12.428,16 0.438,16 0.417,0 8.848,0 	"/>
</g>
<g id="Layer_1">
	<g>
		<g>
			<g>
				<path fill="#FFD105" d="M12.676,3.52L9.244,0.088C9.191,0.035,9.121,0,9.032,0H0.285C0.125,0,0,0.123,0,0.283v15.433
					C0,15.875,0.125,16,0.285,16H12.48c0.16,0,0.285-0.125,0.285-0.284V3.714C12.766,3.643,12.73,3.572,12.676,3.52z M9.316,0.959
					l2.471,2.472H9.316V0.959z M12.195,15.433H0.569V0.569h8.178v3.162c0,0.162,0.126,0.286,0.285,0.286h3.163V15.433z"/>
			</g>
		</g>
		<g>
			<g>
				<path fill="#FFD105" d="M8.275,4.371c0-0.017-0.018-0.033-0.018-0.05C8.275,4.321,8.275,4.338,8.275,4.371
					C8.275,4.354,8.275,4.371,8.275,4.371z"/>
			</g>
			<g>
				<g>
					<path fill="#FFD105" d="M8.275,4.371c0-0.017-0.018-0.033-0.018-0.05S8.242,4.289,8.242,4.272S8.226,4.256,8.226,4.239
						L8.209,4.224L8.193,4.206L8.176,4.189l0,0c-0.017,0-0.017-0.017-0.033-0.017C8.127,4.156,8.094,4.156,8.078,4.156
						c-0.018,0-0.034,0-0.051,0c-0.016,0-0.033,0-0.049,0c0,0,0,0-0.017,0L4.995,4.898c-0.017,0-0.017,0-0.033,0
						s-0.017,0-0.034,0.017C4.896,4.932,4.863,4.948,4.83,4.98C4.812,4.997,4.812,4.997,4.797,5.015C4.78,5.03,4.78,5.03,4.78,5.047
						l0,0c0,0.017-0.017,0.033-0.017,0.05c0,0.016,0,0.033,0,0.065v2.737C4.615,7.816,4.435,7.767,4.252,7.767
						c-0.576,0-1.037,0.461-1.037,1.038s0.461,1.039,1.037,1.039c0.578,0,1.039-0.462,1.039-1.039V5.377l2.457-0.61v2.407
						C7.6,7.091,7.418,7.041,7.236,7.041c-0.576,0-1.038,0.462-1.038,1.039S6.66,9.118,7.236,9.118c0.577,0,1.039-0.461,1.039-1.038
						V4.42C8.291,4.403,8.291,4.388,8.275,4.371z M4.27,9.333c-0.28,0-0.511-0.231-0.511-0.512s0.23-0.511,0.511-0.511
						S4.78,8.541,4.78,8.821S4.55,9.333,4.27,9.333z M7.252,8.574c-0.279,0-0.51-0.23-0.51-0.512c0-0.279,0.23-0.51,0.51-0.51
						c0.281,0,0.512,0.23,0.512,0.51C7.764,8.344,7.533,8.574,7.252,8.574z"/>
				</g>
			</g>
		</g>
	</g>
</g>
<g id="Layer_2">
	<g>
		<path d="M2.089,11.341h0.626l0.928,2.729l0.922-2.729h0.622v3.228H4.77v-1.905c0-0.065,0.001-0.175,0.004-0.327
			s0.005-0.315,0.005-0.49l-0.922,2.723H3.423l-0.93-2.723v0.1c0,0.078,0.002,0.199,0.006,0.361c0.004,0.161,0.006,0.28,0.006,0.356
			v1.905H2.089V11.341z"/>
		<path d="M5.89,11.341h1.445c0.285,0,0.516,0.081,0.691,0.242c0.176,0.162,0.264,0.39,0.264,0.683c0,0.252-0.079,0.472-0.236,0.658
			c-0.156,0.187-0.396,0.28-0.719,0.28H6.327v1.364H5.89V11.341z M7.586,11.784c-0.097-0.045-0.228-0.067-0.396-0.067H6.327v1.118
			H7.19c0.195,0,0.354-0.042,0.475-0.126c0.122-0.083,0.183-0.23,0.183-0.441C7.848,12.03,7.761,11.869,7.586,11.784z"/>
		<path d="M8.866,14.348c-0.168-0.204-0.252-0.453-0.252-0.746h0.413c0.018,0.204,0.056,0.352,0.114,0.443
			c0.103,0.166,0.288,0.249,0.557,0.249c0.207,0,0.375-0.056,0.5-0.167c0.127-0.111,0.189-0.255,0.189-0.431
			c0-0.217-0.066-0.368-0.199-0.455c-0.133-0.086-0.316-0.13-0.553-0.13c-0.025,0-0.053,0.001-0.08,0.001
			c-0.027,0.001-0.055,0.002-0.082,0.004v-0.35c0.041,0.005,0.075,0.008,0.104,0.009c0.027,0.002,0.058,0.002,0.09,0.002
			c0.148,0,0.27-0.023,0.365-0.07c0.166-0.082,0.25-0.229,0.25-0.439c0-0.156-0.056-0.277-0.167-0.362s-0.241-0.128-0.389-0.128
			c-0.264,0-0.446,0.088-0.548,0.264c-0.055,0.098-0.087,0.235-0.094,0.414H8.693c0-0.234,0.047-0.434,0.141-0.598
			c0.161-0.293,0.444-0.439,0.851-0.439c0.32,0,0.569,0.071,0.745,0.214s0.264,0.35,0.264,0.62c0,0.193-0.052,0.351-0.156,0.471
			c-0.064,0.074-0.147,0.134-0.251,0.176c0.166,0.046,0.295,0.133,0.389,0.263c0.093,0.13,0.139,0.288,0.139,0.476
			c0,0.301-0.099,0.545-0.296,0.734c-0.198,0.188-0.479,0.283-0.842,0.283C9.304,14.654,9.034,14.552,8.866,14.348z"/>
	</g>
</g>
<g id="Layer_4">
</g>
</svg>
