<?xml version="1.0" encoding="utf-8"?>
<!-- Generator: Adobe Illustrator 16.0.0, SVG Export Plug-In . SVG Version: 6.00 Build 0)  -->
<!DOCTYPE svg PUBLIC "-//W3C//DTD SVG 1.0//EN" "http://www.w3.org/TR/2001/REC-SVG-20010904/DTD/svg10.dtd">
<svg version="1.0" xmlns="http://www.w3.org/2000/svg" xmlns:xlink="http://www.w3.org/1999/xlink" x="0px" y="0px"
	 width="12.765px" height="16px" viewBox="0 0 12.765 16" enable-background="new 0 0 12.765 16" xml:space="preserve">
<g id="Layer_3">
	<polygon fill="#FFFFFF" points="12.521,3.729 12.552,16 0.562,16 0.541,0 8.972,0 	"/>
</g>
<g id="Layer_1">
	<g>
		<g>
			<path fill="#8967AC" d="M9.893,6.141H9.238c-0.088,0-0.174,0.043-0.24,0.11l-0.61,0.61V6.096c0-0.195-0.152-0.348-0.35-0.348
				H7.624c0.458-0.262,0.764-0.742,0.764-1.309c0-0.829-0.677-1.483-1.505-1.483c-0.654,0-1.222,0.436-1.418,1.024
				C5.269,3.392,4.701,2.956,4.047,2.956c-0.83,0-1.484,0.675-1.484,1.483c0,0.567,0.307,1.047,0.765,1.309H2.891
				c-0.196,0-0.35,0.153-0.35,0.348v3.208c0,0.196,0.153,0.349,0.35,0.349h5.126c0.196,0,0.35-0.152,0.35-0.349V8.54l0.61,0.611
				c0.066,0.064,0.153,0.109,0.24,0.109h0.654c0.197,0,0.35-0.153,0.35-0.351V6.511C10.242,6.293,10.09,6.141,9.893,6.141z
				 M6.904,3.631c0.436,0,0.807,0.349,0.807,0.808c0,0.436-0.349,0.807-0.807,0.807c-0.436,0-0.807-0.35-0.807-0.807
				C6.098,4.003,6.469,3.631,6.904,3.631z M5.486,4.897c0.109,0.371,0.371,0.655,0.698,0.851H4.789
				C5.115,5.574,5.355,5.268,5.486,4.897z M3.262,4.439c0-0.437,0.349-0.808,0.807-0.808c0.437,0,0.808,0.349,0.808,0.808
				c0,0.436-0.35,0.807-0.808,0.807C3.632,5.247,3.262,4.875,3.262,4.439z M7.689,8.954H3.262V6.446h4.428V8.954z M9.544,8.54H9.369
				L8.519,7.689l0.851-0.851h0.175V8.54z"/>
		</g>
	</g>
	<g>
		<g>
			<g>
				<path fill="#8967AC" d="M12.69,3.503L9.259,0.071c-0.018-0.019-0.053-0.035-0.07-0.054C9.171,0.018,9.171,0,9.153,0H9.135
					c0,0,0,0-0.018,0c0,0,0,0-0.019,0C9.081,0,9.063,0,9.046,0H0.3C0.14,0,0.015,0.125,0.015,0.285v15.43
					C0.015,15.876,0.14,16,0.3,16h12.195c0.16,0,0.284-0.124,0.284-0.285V3.698C12.779,3.627,12.743,3.556,12.69,3.503z M9.33,0.942
					l2.472,2.472H9.33V0.942z M12.21,15.413H0.584V0.551h8.195v3.164C8.779,3.875,8.903,4,9.063,4h3.164v11.413H12.21z"/>
			</g>
		</g>
	</g>
</g>
<g id="Layer_2">
	<g>
		<path d="M1.604,11.341H2.23l0.928,2.729l0.922-2.729h0.621v3.228H4.285v-1.905c0-0.065,0-0.175,0.004-0.327
			c0.002-0.152,0.004-0.315,0.004-0.49l-0.922,2.723H2.938l-0.931-2.723v0.1c0,0.078,0.002,0.199,0.007,0.361
			c0.005,0.161,0.007,0.28,0.007,0.356v1.905H1.604V11.341z"/>
		<path d="M5.405,11.341H6.85c0.285,0,0.516,0.081,0.691,0.242c0.176,0.162,0.264,0.39,0.264,0.683c0,0.252-0.078,0.472-0.235,0.658
			s-0.396,0.28-0.72,0.28H5.842v1.364H5.405V11.341z M7.102,11.784c-0.097-0.045-0.229-0.067-0.396-0.067H5.842v1.118h0.864
			c0.194,0,0.353-0.042,0.475-0.126c0.122-0.083,0.183-0.23,0.183-0.441C7.363,12.03,7.275,11.869,7.102,11.784z"/>
		<path d="M10.514,11.433c0.316,0.169,0.51,0.464,0.58,0.886H10.66c-0.051-0.235-0.158-0.407-0.32-0.516
			c-0.162-0.107-0.366-0.161-0.613-0.161c-0.292,0-0.539,0.112-0.738,0.336c-0.201,0.225-0.301,0.559-0.301,1.002
			c0,0.384,0.083,0.696,0.248,0.938s0.434,0.361,0.807,0.361c0.286,0,0.523-0.085,0.71-0.254c0.188-0.169,0.284-0.442,0.288-0.82
			H9.729v-0.362h1.418v1.727h-0.281l-0.105-0.415c-0.146,0.162-0.274,0.275-0.387,0.338c-0.189,0.108-0.429,0.163-0.72,0.163
			c-0.376,0-0.7-0.124-0.971-0.371c-0.296-0.311-0.442-0.737-0.442-1.279c0-0.541,0.144-0.971,0.432-1.29
			c0.275-0.305,0.631-0.457,1.066-0.457C10.037,11.257,10.295,11.315,10.514,11.433z"/>
	</g>
</g>
<g id="Layer_4">
</g>
</svg>
