<?xml version="1.0" encoding="utf-8"?>
<!-- Generator: Adobe Illustrator 16.0.0, SVG Export Plug-In . SVG Version: 6.00 Build 0)  -->
<!DOCTYPE svg PUBLIC "-//W3C//DTD SVG 1.0//EN" "http://www.w3.org/TR/2001/REC-SVG-20010904/DTD/svg10.dtd">
<svg version="1.0" xmlns="http://www.w3.org/2000/svg" xmlns:xlink="http://www.w3.org/1999/xlink" x="0px" y="0px"
	 width="12.765px" height="16px" viewBox="0 0 12.765 16" enable-background="new 0 0 12.765 16" xml:space="preserve">
<g id="Layer_3">
	<polygon fill="#FFFFFF" points="12.521,3.729 12.552,16 0.562,16 0.541,0 8.972,0 	"/>
</g>
<g id="Layer_1">
	<g>
		<g>
			<path fill="#8967AC" d="M9.893,6.141H9.238c-0.088,0-0.174,0.043-0.24,0.11l-0.61,0.61V6.096c0-0.195-0.152-0.348-0.35-0.348
				H7.624c0.458-0.262,0.764-0.742,0.764-1.309c0-0.829-0.677-1.483-1.505-1.483c-0.654,0-1.222,0.436-1.418,1.024
				C5.269,3.392,4.701,2.956,4.047,2.956c-0.83,0-1.484,0.675-1.484,1.483c0,0.567,0.307,1.047,0.765,1.309H2.891
				c-0.196,0-0.35,0.153-0.35,0.348v3.208c0,0.196,0.153,0.349,0.35,0.349h5.126c0.196,0,0.35-0.152,0.35-0.349V8.54l0.61,0.611
				c0.066,0.064,0.153,0.109,0.24,0.109h0.654c0.197,0,0.35-0.153,0.35-0.351V6.511C10.242,6.293,10.09,6.141,9.893,6.141z
				 M6.904,3.631c0.436,0,0.807,0.349,0.807,0.808c0,0.436-0.349,0.807-0.807,0.807c-0.436,0-0.807-0.35-0.807-0.807
				C6.098,4.003,6.469,3.631,6.904,3.631z M5.486,4.897c0.109,0.371,0.371,0.655,0.698,0.851H4.789
				C5.115,5.574,5.355,5.268,5.486,4.897z M3.262,4.439c0-0.437,0.349-0.808,0.807-0.808c0.437,0,0.808,0.349,0.808,0.808
				c0,0.436-0.35,0.807-0.808,0.807C3.632,5.247,3.262,4.875,3.262,4.439z M7.689,8.954H3.262V6.446h4.428V8.954z M9.544,8.54H9.369
				L8.519,7.689l0.851-0.851h0.175V8.54z"/>
		</g>
	</g>
	<g>
		<g>
			<g>
				<path fill="#8967AC" d="M12.69,3.503L9.259,0.071c-0.018-0.018-0.053-0.035-0.07-0.053C9.171,0.018,9.171,0,9.153,0H9.135
					c0,0,0,0-0.018,0c0,0,0,0-0.019,0C9.081,0,9.063,0,9.046,0H0.3C0.14,0,0.015,0.125,0.015,0.285v15.43
					C0.015,15.876,0.14,16,0.3,16h12.195c0.16,0,0.284-0.124,0.284-0.285V3.698C12.779,3.627,12.743,3.556,12.69,3.503z M9.33,0.942
					l2.472,2.471H9.33V0.942z M12.21,15.413H0.584V0.551h8.195v3.164C8.779,3.875,8.903,4,9.063,4h3.164v11.413H12.21z"/>
			</g>
		</g>
	</g>
</g>
<g id="Layer_2">
	<g>
		<path d="M1.98,11.341h0.625l0.929,2.729l0.922-2.729h0.622v3.228H4.66v-1.905c0-0.065,0.002-0.175,0.004-0.327
			c0.004-0.152,0.006-0.315,0.006-0.49l-0.922,2.723H3.314l-0.93-2.723v0.1c0,0.078,0.002,0.199,0.006,0.361
			c0.004,0.161,0.006,0.28,0.006,0.356v1.905H1.98V11.341z"/>
		<path d="M8.086,11.341v0.384H6.998v2.844H6.557v-2.844H5.469v-0.384H8.086z"/>
		<path d="M8.773,13.527c0.01,0.183,0.051,0.331,0.125,0.445c0.14,0.214,0.386,0.321,0.738,0.321c0.158,0,0.303-0.023,0.432-0.07
			c0.252-0.091,0.377-0.254,0.377-0.488c0-0.176-0.053-0.301-0.159-0.376c-0.108-0.072-0.276-0.137-0.507-0.19L9.355,13.07
			c-0.276-0.064-0.473-0.136-0.588-0.214c-0.198-0.135-0.297-0.336-0.297-0.604c0-0.289,0.098-0.527,0.293-0.714
			c0.195-0.186,0.471-0.278,0.829-0.278c0.329,0,0.608,0.081,0.839,0.244c0.23,0.164,0.346,0.425,0.346,0.783h-0.41
			c-0.021-0.172-0.066-0.305-0.136-0.397c-0.128-0.168-0.345-0.253-0.651-0.253c-0.246,0-0.424,0.055-0.532,0.163
			s-0.163,0.234-0.163,0.378c0,0.158,0.064,0.274,0.192,0.348c0.083,0.047,0.272,0.105,0.568,0.176l0.438,0.103
			c0.211,0.05,0.375,0.118,0.49,0.204c0.198,0.151,0.297,0.37,0.297,0.657c0,0.357-0.126,0.613-0.379,0.767
			c-0.254,0.154-0.549,0.231-0.885,0.231c-0.391,0-0.697-0.103-0.919-0.308c-0.222-0.204-0.331-0.479-0.325-0.828H8.773z"/>
	</g>
</g>
<g id="Layer_4">
</g>
</svg>
