<?xml version="1.0" encoding="utf-8"?>
<!-- Generator: Adobe Illustrator 16.0.0, SVG Export Plug-In . SVG Version: 6.00 Build 0)  -->
<!DOCTYPE svg PUBLIC "-//W3C//DTD SVG 1.0//EN" "http://www.w3.org/TR/2001/REC-SVG-20010904/DTD/svg10.dtd">
<svg version="1.0" xmlns="http://www.w3.org/2000/svg" xmlns:xlink="http://www.w3.org/1999/xlink" x="0px" y="0px"
	 width="12.765px" height="16px" viewBox="0 0 12.765 16" enable-background="new 0 0 12.765 16" xml:space="preserve">
<g id="Layer_3">
	<polygon fill="#FFFFFF" points="12.286,3.729 12.316,16 0.327,16 0.306,0 8.736,0 	"/>
</g>
<g id="Layer_1">
	<g>
		<g>
			<g>
				<g>
					<g>
						<path fill="#0071BC" d="M12.676,3.52L9.244,0.088C9.191,0.035,9.12,0,9.032,0H0.284C0.124,0,0,0.123,0,0.283v15.433
							C0,15.875,0.124,16,0.284,16h12.195c0.16,0,0.285-0.125,0.285-0.284V3.714C12.765,3.643,12.729,3.572,12.676,3.52z
							 M9.316,0.959l2.471,2.472H9.316V0.959z M12.195,15.433H0.569V0.569h8.178v3.162c0,0.162,0.125,0.286,0.285,0.286h3.163
							V15.433z"/>
					</g>
				</g>
			</g>
		</g>
		<g>
			<g>
				<g>
					<path fill="#0071BC" d="M5.41,3.762v0.641c0,0.205-0.16,0.365-0.366,0.365c-0.183,0-0.343-0.137-0.366-0.32H4.243v1.854
						c0.184,0.022,0.32,0.183,0.32,0.366c0,0.206-0.16,0.366-0.366,0.366h-0.64c-0.206,0-0.366-0.16-0.366-0.366
						c0-0.184,0.137-0.344,0.32-0.366V4.447h-0.55c-0.022,0.184-0.16,0.32-0.343,0.32c-0.206,0-0.366-0.16-0.366-0.365V3.762
						c0-0.206,0.16-0.366,0.366-0.366c0.183,0,0.343,0.137,0.366,0.32h1.716c0.022-0.184,0.183-0.32,0.365-0.32
						C5.25,3.396,5.41,3.578,5.41,3.762z"/>
				</g>
			</g>
			<g>
				<path fill="#0071BC" d="M10.122,8.611H2.619c-0.206,0-0.366-0.16-0.366-0.366s0.16-0.366,0.366-0.366h7.526
					c0.206,0,0.366,0.16,0.366,0.366S10.328,8.611,10.122,8.611z"/>
			</g>
			<g>
				<path fill="#0071BC" d="M10.122,10.121H2.619c-0.206,0-0.366-0.16-0.366-0.366s0.16-0.366,0.366-0.366h7.526
					c0.206,0,0.366,0.16,0.366,0.366C10.488,9.961,10.328,10.121,10.122,10.121z"/>
			</g>
			<g>
				<path fill="#0071BC" d="M10.122,5.522H6.371c-0.206,0-0.366-0.16-0.366-0.365c0-0.206,0.16-0.366,0.366-0.366h3.751
					c0.206,0,0.366,0.16,0.366,0.366C10.488,5.362,10.328,5.522,10.122,5.522z"/>
			</g>
			<g>
				<path fill="#0071BC" d="M10.122,7.033H6.371c-0.206,0-0.366-0.16-0.366-0.366s0.16-0.366,0.366-0.366h3.751
					c0.206,0,0.366,0.16,0.366,0.366S10.328,7.033,10.122,7.033z"/>
			</g>
		</g>
	</g>
</g>
<g id="Layer_2">
	<g>
		<path d="M4.634,11.802c0.214,0.286,0.321,0.651,0.321,1.097c0,0.482-0.123,0.883-0.367,1.202
			c-0.287,0.375-0.696,0.562-1.228,0.562c-0.497,0-0.887-0.164-1.171-0.492c-0.253-0.316-0.38-0.717-0.38-1.2
			c0-0.437,0.108-0.81,0.325-1.12c0.278-0.398,0.69-0.598,1.235-0.598C3.938,11.253,4.36,11.436,4.634,11.802z M4.249,13.859
			c0.172-0.276,0.258-0.594,0.258-0.953c0-0.38-0.099-0.686-0.298-0.917c-0.198-0.231-0.47-0.348-0.814-0.348
			c-0.334,0-0.606,0.114-0.817,0.344s-0.316,0.568-0.316,1.016c0,0.357,0.09,0.659,0.271,0.904c0.181,0.246,0.474,0.368,0.88,0.368
			C3.798,14.273,4.077,14.136,4.249,13.859z"/>
		<path d="M5.496,11.341h1.291c0.438,0,0.777,0.157,1.02,0.472c0.215,0.285,0.322,0.648,0.322,1.093c0,0.343-0.063,0.652-0.19,0.929
			c-0.224,0.49-0.609,0.734-1.155,0.734H5.496V11.341z M6.7,14.195c0.145,0,0.264-0.016,0.356-0.047
			c0.167-0.057,0.302-0.167,0.408-0.329c0.085-0.131,0.146-0.298,0.183-0.501c0.021-0.122,0.033-0.234,0.033-0.339
			c0-0.399-0.078-0.71-0.234-0.932c-0.154-0.221-0.405-0.331-0.75-0.331H5.938v2.479H6.7z"/>
		<path d="M8.769,11.341h2.238v0.396H9.205v0.979h1.585v0.385H9.205v1.468H8.769V11.341z"/>
	</g>
</g>
<g id="Layer_4">
</g>
</svg>
