<?xml version="1.0" encoding="utf-8"?>
<!-- Generator: Adobe Illustrator 16.0.0, SVG Export Plug-In . SVG Version: 6.00 Build 0)  -->
<!DOCTYPE svg PUBLIC "-//W3C//DTD SVG 1.0//EN" "http://www.w3.org/TR/2001/REC-SVG-20010904/DTD/svg10.dtd">
<svg version="1.0" xmlns="http://www.w3.org/2000/svg" xmlns:xlink="http://www.w3.org/1999/xlink" x="0px" y="0px"
	 width="12.765px" height="16px" viewBox="0 0 12.765 16" enable-background="new 0 0 12.765 16" xml:space="preserve">
<g id="Layer_3">
	<polygon fill="#FFFFFF" points="12.286,3.729 12.316,16 0.327,16 0.306,0 8.736,0 	"/>
</g>
<g id="Layer_1">
	<g>
		<g>
			<g>
				<g>
					<path fill="#F58235" d="M9.3,10.271H8.233c-0.16,0-0.285-0.125-0.285-0.285V5.098c0-0.16,0.125-0.284,0.285-0.284H9.3
						c0.16,0,0.283,0.124,0.283,0.284v4.889C9.583,10.146,9.46,10.271,9.3,10.271z M8.517,9.702h0.516v-4.32H8.517V9.702z"/>
				</g>
				<g>
					<path fill="#F58235" d="M6.917,10.271H5.851c-0.16,0-0.285-0.125-0.285-0.285V6.342c0-0.159,0.125-0.284,0.285-0.284h1.066
						c0.16,0,0.285,0.125,0.285,0.284v3.663C7.202,10.146,7.077,10.271,6.917,10.271z M6.134,9.702h0.516V6.627H6.134V9.702z"/>
				</g>
				<g>
					<path fill="#F58235" d="M4.534,10.271H3.468c-0.16,0-0.285-0.125-0.285-0.285V7.551c0-0.159,0.125-0.284,0.285-0.284h1.066
						c0.16,0,0.285,0.125,0.285,0.284v2.454C4.819,10.146,4.694,10.271,4.534,10.271z M3.753,9.702h0.498V7.836H3.735v1.866H3.753z"
						/>
				</g>
			</g>
		</g>
		<g>
			<g>
				<g>
					<g>
						<g>
							<path fill="#F58235" d="M12.676,3.52L9.244,0.088C9.191,0.035,9.12,0,9.032,0H0.284C0.124,0,0,0.123,0,0.283v15.433
								C0,15.875,0.124,16,0.284,16h12.195c0.16,0,0.285-0.125,0.285-0.284V3.714C12.765,3.643,12.729,3.572,12.676,3.52z
								 M9.316,0.959l2.471,2.472H9.316V0.959z M12.195,15.433H0.569V0.569h8.178v3.162c0,0.162,0.125,0.286,0.285,0.286h3.163
								V15.433z"/>
						</g>
					</g>
				</g>
			</g>
		</g>
	</g>
</g>
<g id="Layer_2">
	<g>
		<path d="M4.548,11.802c0.214,0.286,0.32,0.651,0.32,1.097c0,0.482-0.122,0.883-0.367,1.202c-0.287,0.375-0.695,0.562-1.228,0.562
			c-0.497,0-0.888-0.164-1.171-0.492c-0.254-0.316-0.381-0.717-0.381-1.2c0-0.437,0.109-0.81,0.326-1.12
			c0.277-0.398,0.689-0.598,1.234-0.598C3.853,11.253,4.274,11.436,4.548,11.802z M4.162,13.859
			c0.173-0.276,0.259-0.594,0.259-0.953c0-0.38-0.1-0.686-0.299-0.917c-0.197-0.231-0.469-0.348-0.813-0.348
			c-0.334,0-0.606,0.114-0.817,0.344s-0.316,0.568-0.316,1.016c0,0.357,0.09,0.659,0.271,0.904c0.181,0.246,0.475,0.368,0.88,0.368
			C3.712,14.273,3.99,14.136,4.162,13.859z"/>
		<path d="M5.409,11.341h1.29c0.438,0,0.777,0.157,1.019,0.472c0.216,0.285,0.324,0.648,0.324,1.093
			c0,0.343-0.064,0.652-0.191,0.929c-0.225,0.49-0.609,0.734-1.156,0.734H5.409V11.341z M6.613,14.195
			c0.145,0,0.264-0.016,0.356-0.047c0.166-0.057,0.303-0.167,0.408-0.329c0.085-0.131,0.146-0.298,0.183-0.501
			c0.021-0.122,0.032-0.234,0.032-0.339c0-0.399-0.078-0.71-0.232-0.932c-0.156-0.221-0.406-0.331-0.752-0.331H5.851v2.479H6.613z"
			/>
		<path d="M8.681,11.341h1.445c0.285,0,0.516,0.081,0.691,0.242c0.176,0.162,0.264,0.39,0.264,0.683
			c0,0.252-0.079,0.472-0.236,0.658c-0.156,0.187-0.396,0.28-0.719,0.28H9.118v1.364H8.681V11.341z M10.377,11.784
			c-0.097-0.045-0.228-0.067-0.396-0.067H9.118v1.118h0.863c0.195,0,0.354-0.042,0.475-0.126c0.122-0.083,0.183-0.23,0.183-0.441
			C10.639,12.03,10.552,11.869,10.377,11.784z"/>
	</g>
</g>
<g id="Layer_4">
</g>
</svg>
