<?xml version="1.0" encoding="utf-8"?>
<!-- Generator: Adobe Illustrator 16.0.0, SVG Export Plug-In . SVG Version: 6.00 Build 0)  -->
<!DOCTYPE svg PUBLIC "-//W3C//DTD SVG 1.1//EN" "http://www.w3.org/Graphics/SVG/1.1/DTD/svg11.dtd">
<svg version="1.1" id="Layer_1" xmlns="http://www.w3.org/2000/svg" xmlns:xlink="http://www.w3.org/1999/xlink" x="0px" y="0px"
	 width="16px" height="16px" viewBox="0 0 16 16" enable-background="new 0 0 16 16" xml:space="preserve">
<g>
	<path fill="#F7DD2A" fill-opacity="0.3804" d="M6.894,3.164c-0.047-0.038-0.14-0.048-0.191-0.086
		c-0.047-0.039-0.095-0.071-0.14-0.122C6.488,2.872,6.241,2.729,6.169,2.711C6.045,2.689,5.974,2.583,5.847,2.504L4.799,2.101
		C4.625,2.068,4.457,2.013,4.296,1.963C4.196,1.934,4.14,1.89,3.963,1.885C3.895,1.881,3.824,1.879,3.76,1.862
		c-0.046-0.01-0.249-0.106-0.313-0.076L5.03,6.284l2.403-2.842C7.228,3.368,7.077,3.333,6.894,3.164z"/>
	<polygon fill="#875885" fill-opacity="0.3804" points="14.312,9.488 14.415,8.095 13.181,8.689 	"/>
	<polygon fill="#875885" fill-opacity="0.3804" points="14.63,9.032 12.876,9.127 13.812,10.614 	"/>
	<polygon fill="#875885" fill-opacity="0.3804" points="12.759,9.856 13.04,11.355 14.208,10.363 	"/>
	<polygon fill="#875885" fill-opacity="0.3804" points="13.328,11.322 12.459,10.817 12.453,11.815 	"/>
	<polygon fill="#F7DD2A" fill-opacity="0.3804" points="10.65,6.198 5.627,7.706 9.407,11.386 	"/>
	<polygon fill="#F7DD2A" fill-opacity="0.3804" points="14.524,7.346 11.127,12.398 7.998,6.917 	"/>
	<polygon fill="#F7DD2A" fill-opacity="0.3804" points="11.838,8.842 12.537,9.374 12.63,8.507 	"/>
	<polygon fill="#F7DD2A" fill-opacity="0.3804" points="10.928,9.498 12.362,10.461 12.47,8.751 	"/>
	<polygon fill="#F7DD2A" fill-opacity="0.3804" points="12.48,9.938 11.196,10.297 12.153,11.235 	"/>
	<polygon fill="#F7DD2A" fill-opacity="0.3804" points="12.373,10.845 10.754,12.212 10.383,10.125 	"/>
	<polygon fill="#F7DD2A" fill-opacity="0.3804" points="6.99,4.808 8.09,11.574 13.408,7.238 	"/>
	<polygon fill="#F7DD2A" fill-opacity="0.3804" points="12.329,9.735 10.544,11.184 10.148,8.905 	"/>
	<polygon fill="#F7DD2A" fill-opacity="0.3804" points="12.183,8.043 9.625,7.481 10.418,9.976 	"/>
	<polygon fill="#F7DD2A" fill-opacity="0.3804" points="12.575,7.909 11.133,10.36 9.754,7.883 	"/>
	<polygon fill="#3D223C" fill-opacity="0.3804" points="14.713,9.136 13.01,8.371 14.499,7.283 	"/>
	<polygon fill="#F7DD2A" fill-opacity="0.3804" points="10.681,7.218 12.628,8.494 12.759,6.166 	"/>
	<polygon fill="#3D223C" fill-opacity="0.3804" points="14.102,10.352 14.563,7.43 11.808,8.493 	"/>
	<polygon fill="#F7DD2A" fill-opacity="0.3804" points="8.282,3.748 9.192,7.817 12.252,4.986 	"/>
	<polygon fill="#F7DD2A" fill-opacity="0.3804" points="12.606,7.344 9.834,8.274 10.42,5.403 	"/>
	<polygon fill="#F7DD2A" fill-opacity="0.3804" points="8.527,5.524 9.844,8.251 11.53,5.748 	"/>
	<polygon fill="#F7DD2A" fill-opacity="0.3804" points="8.353,10.103 4.997,6.938 9.408,5.611 	"/>
	<polygon fill="#F7DD2A" fill-opacity="0.3804" points="11.186,6.438 12.722,7.02 12.47,5.397 	"/>
	<polygon fill="#F7DD2A" fill-opacity="0.3804" points="12.051,4.615 9.325,6.554 12.37,7.948 	"/>
	<polygon fill="#F7DD2A" fill-opacity="0.3804" points="6.77,3.276 7.362,6.728 10.042,4.504 	"/>
	<polygon fill="#F7DD2A" fill-opacity="0.3804" points="10.043,6.515 11.746,4.833 9.446,4.188 	"/>
	<polygon fill="#F7DD2A" fill-opacity="0.3804" points="10.729,4.574 8.384,3.956 9.015,6.282 	"/>
	<polygon fill="#F7DD2A" fill-opacity="0.3804" points="7.97,4.6 8.872,6.304 9.886,4.66 	"/>
	<polygon fill="#F7DD2A" fill-opacity="0.3804" points="5.552,7.703 8.313,10.334 9.19,6.637 	"/>
	<polygon fill="#F7DD2A" fill-opacity="0.3804" points="1.311,5.128 5.621,10.387 8.024,4.023 	"/>
	<polygon fill="#F7DD2A" fill-opacity="0.3804" points="7.73,8.35 6.379,4.68 3.874,7.684 	"/>
	<polygon fill="#F7DD2A" fill-opacity="0.3804" points="5.741,7.461 6.855,3.038 2.472,4.278 	"/>
	<polygon fill="#F7DD2A" fill-opacity="0.3804" points="7.817,3.782 3.224,4.174 5.815,7.955 	"/>
	<polygon fill="#F7DD2A" fill-opacity="0.3804" points="5.961,4.022 3.57,5.42 5.995,6.799 	"/>
	<polygon fill="#F7DD2A" fill-opacity="0.3804" points="3.987,6.268 7.162,6.673 5.925,3.716 	"/>
	<polygon fill="#F7DD2A" fill-opacity="0.3804" points="5.465,5.594 5.634,3.676 3.878,4.483 	"/>
	<polygon fill="#F7DD2A" fill-opacity="0.3804" points="2.979,1.913 3.843,4.759 5.87,2.586 	"/>
	<polygon fill="#F7DD2A" fill-opacity="0.3804" points="4.753,2.297 1.749,2.895 3.789,5.197 	"/>
	<polygon fill="#F7DD2A" fill-opacity="0.3804" points="5.831,3.584 4.284,3.795 4.875,2.343 	"/>
	<polygon fill="#F7DD2A" fill-opacity="0.3804" points="3.62,3.107 4.61,3.873 4.771,2.64 	"/>
	<polygon fill="#F7DD2A" fill-opacity="0.3804" points="7.999,4.805 8.404,4.209 7.683,4.154 	"/>
	<polygon fill="#F7DD2A" fill-opacity="0.3804" points="7.738,4.066 8.15,4.7 8.5,4.01 	"/>
	<polygon fill="#F7DD2A" fill-opacity="0.3804" points="7.167,4.085 7.721,3.893 7.265,3.507 	"/>
	<polygon fill="#F7DD2A" fill-opacity="0.3804" points="7.945,3.931 7.456,3.533 7.341,4.159 	"/>
	<polygon fill="#F7DD2A" fill-opacity="0.3804" points="3.352,3.041 4.337,2.135 3.058,1.716 	"/>
	<polygon fill="#F7DD2A" fill-opacity="0.3804" points="7.889,9.569 7.495,6.826 5.312,8.54 	"/>
	<polygon fill="#F7DD2A" fill-opacity="0.3804" points="3.026,3.901 4.061,1.844 1.752,1.966 	"/>
	<polygon fill="#F7DD2A" fill-opacity="0.3804" points="3.046,3.936 0.81,3.638 1.672,5.718 	"/>
	<polygon fill="#F7DD2A" fill-opacity="0.3804" points="1.145,1.416 1.776,3.243 3.046,1.78 	"/>
	<polygon fill="#F7DD2A" fill-opacity="0.3804" points="3.081,1.761 1.067,3.292 0.751,0.757 	"/>
	<polygon fill="#292929" fill-opacity="0.3804" points="4.944,9.348 1.627,5.088 3.798,6.765 	"/>
	<polygon fill="#292929" fill-opacity="0.3804" points="5.014,2.558 5.049,2.842 5.284,2.653 	"/>
	<polygon fill="#292929" fill-opacity="0.3804" points="5.584,3.203 5.572,3.613 5.934,3.419 	"/>
	<polygon fill="#292929" fill-opacity="0.3804" points="8.367,6.785 7.201,6.146 7.229,7.469 	"/>
	<polygon fill="#292929" fill-opacity="0.3804" points="6.974,5.486 6.729,5.25 6.632,5.58 	"/>
	<polygon fill="#292929" fill-opacity="0.3804" points="6.958,5.667 6.864,6.142 7.331,5.973 	"/>
	<polygon fill="#292929" fill-opacity="0.3804" points="7.745,6.592 7.857,7.313 8.425,6.852 	"/>
	<polygon fill="#292929" fill-opacity="0.3804" points="9.146,7.635 7.265,8.308 7.622,6.345 	"/>
	<polygon fill="#292929" fill-opacity="0.3804" points="7.717,9.048 8.357,8.436 7.502,8.184 	"/>
	<polygon fill="#292929" fill-opacity="0.3804" points="7.689,10.803 7.391,7.752 10.182,9.026 	"/>
	<polygon fill="#F7DD2A" fill-opacity="0.3804" points="4.034,6.95 6.621,8.993 6.254,8.539 	"/>
	<polygon fill="#292929" fill-opacity="0.3804" points="3.781,6.745 7.558,9.823 5.139,9.808 	"/>
	<polygon fill="#F7DD2A" fill-opacity="0.3804" points="0.723,2.298 1.292,4.623 3.028,2.977 	"/>
	<polygon fill="#292929" fill-opacity="0.3804" points="1.461,4.823 1.805,3.941 0.58,1.713 	"/>
	<polygon fill="#292929" fill-opacity="0.3804" points="3.725,6.71 1.412,4.925 2.088,3.216 	"/>
	<polygon fill="#292929" fill-opacity="0.3804" points="9.907,11.554 9.688,9.122 8.092,10.228 	"/>
	<polygon fill="#F7DD2A" fill-opacity="0.3804" points="10.45,10.973 10.515,12.874 12.125,11.868 	"/>
	<polygon fill="#292929" fill-opacity="0.3804" points="10.547,13.045 10.881,13.338 10.985,12.884 	"/>
	<polygon fill="#292929" fill-opacity="0.3804" points="10.875,13.039 10.387,12.725 10.908,12.478 	"/>
	<polygon fill="#292929" fill-opacity="0.3804" points="10.161,12.392 10.705,11.984 10.759,12.638 	"/>
	<polygon fill="#292929" fill-opacity="0.3804" points="10.022,10.879 9.309,12.033 10.62,12.031 	"/>
	<polygon fill="#F7DD2A" fill-opacity="0.3804" points="0.34,1.436 0.994,1.604 0.827,0.947 	"/>
	<polygon fill="#292929" fill-opacity="0.3804" points="3.077,6.262 6.264,8.549 0,0.657 	"/>
	<polygon fill="#292929" fill-opacity="0.3804" points="10.034,11.925 5.524,10.07 7.533,9.821 	"/>
	<polygon fill="#3D223C" fill-opacity="0.3804" points="13.661,10.962 13.259,9.519 14.717,9.877 	"/>
	<polygon fill="#F7DD2A" fill-opacity="0.3804" points="0.222,0.895 0.207,0.633 0.458,0.739 	"/>
	<polygon fill="#F7DD2A" fill-opacity="0.3804" points="0.545,1.062 0.731,0.681 0.331,0.745 	"/>
	<polygon fill="#F7DD2A" fill-opacity="0.3804" points="0.738,0.831 0.993,1.693 1.615,1.028 	"/>
	<polygon fill="#292929" fill-opacity="0.3804" points="10.576,12.782 5.688,10.204 7.52,9.922 	"/>
	<path fill="#F7DD2A" fill-opacity="0.3804" d="M14.728,8.143c-0.031-0.694-0.149-0.846-0.259-1.054
		c-0.097-0.188-0.235-0.661-0.348-0.751c-0.043-0.037,0.002-0.014-0.078-0.009c-0.075,0.011-0.134-0.145-0.154-0.175
		c-0.323-0.543-1.092-1.069-1.277-1.165c-0.15-0.082-0.548-0.274-0.687-0.284c-0.116-0.008-0.699-0.109-0.974-0.194l-1.128,5.27
		l4.912-1.584C14.728,8.175,14.726,8.161,14.728,8.143z"/>
	<path fill="#F7DD2A" fill-opacity="0.3804" d="M12.477,11.859c0.425-0.258,0.66-0.354,0.939-0.564
		c0.397-0.317,0.519-0.439,0.562-0.505c0.349-0.503,0.113-0.313,0.381-0.752c0.354-0.576,0.411-1.335,0.408-1.705L8.734,8.379
		l2.057,4.188C11.43,12.269,12.402,11.902,12.477,11.859z"/>
	<path fill-rule="evenodd" clip-rule="evenodd" fill="#020202" d="M10.912,12.869c0.035,0.061,0.052,0.127,0.058,0.193
		c0.03,0.32,0.095,0.64,0.144,0.958c0.062,0.371,0.12,0.746,0.178,1.122c0.022,0.126,0.053,0.252,0.112,0.37
		c0.029,0.05,0.036,0.101,0.031,0.161c-0.009,0.027-0.012,0.052-0.044,0.052c-0.033,0.002-0.044-0.019-0.051-0.043
		c-0.008-0.029-0.014-0.058-0.015-0.085c-0.009-0.057-0.025-0.111-0.058-0.156c-0.081-0.12-0.103-0.254-0.11-0.398
		c-0.02-0.376-0.079-0.742-0.146-1.113c-0.033-0.203-0.062-0.406-0.117-0.604c-0.054-0.146-0.088-0.295-0.147-0.44
		c-0.031-0.094,0.012-0.145,0.091-0.135C10.884,12.778,10.893,12.826,10.912,12.869z"/>
</g>
</svg>
