<?xml version="1.0" encoding="utf-8"?>
<!-- Generator: Adobe Illustrator 16.0.0, SVG Export Plug-In . SVG Version: 6.00 Build 0)  -->
<!DOCTYPE svg PUBLIC "-//W3C//DTD SVG 1.0//EN" "http://www.w3.org/TR/2001/REC-SVG-20010904/DTD/svg10.dtd">
<svg version="1.0" xmlns="http://www.w3.org/2000/svg" xmlns:xlink="http://www.w3.org/1999/xlink" x="0px" y="0px"
	 width="12.765px" height="16px" viewBox="0 0 12.765 16" enable-background="new 0 0 12.765 16" xml:space="preserve">
<g id="Layer_3">
	<polygon fill="#FFFFFF" points="12.286,3.729 12.316,16 0.327,16 0.306,0 8.736,0 	"/>
</g>
<g id="Layer_1">
	<g>
		<g>
			<g>
				<g>
					<path fill="#F58235" d="M9.299,10.271H8.232c-0.16,0-0.285-0.125-0.285-0.285V5.098c0-0.16,0.125-0.284,0.285-0.284h1.066
						c0.16,0,0.283,0.124,0.283,0.284v4.889C9.582,10.146,9.459,10.271,9.299,10.271z M8.516,9.702h0.516v-4.32H8.516V9.702z"/>
				</g>
				<g>
					<path fill="#F58235" d="M6.916,10.271H5.85c-0.16,0-0.285-0.125-0.285-0.285V6.342c0-0.159,0.125-0.284,0.285-0.284h1.066
						c0.16,0,0.285,0.125,0.285,0.284v3.663C7.201,10.146,7.076,10.271,6.916,10.271z M6.133,9.702h0.516V6.627H6.133V9.702z"/>
				</g>
				<g>
					<path fill="#F58235" d="M4.533,10.271H3.467c-0.16,0-0.285-0.125-0.285-0.285V7.551c0-0.159,0.125-0.284,0.285-0.284h1.066
						c0.16,0,0.285,0.125,0.285,0.284v2.454C4.818,10.146,4.693,10.271,4.533,10.271z M3.752,9.702H4.25V7.836H3.734v1.866H3.752z"
						/>
				</g>
			</g>
		</g>
		<g>
			<g>
				<g>
					<g>
						<g>
							<path fill="#F58235" d="M12.676,3.52L9.244,0.088C9.191,0.035,9.12,0,9.032,0H0.284C0.124,0,0,0.123,0,0.283v15.433
								C0,15.875,0.124,16,0.284,16h12.195c0.16,0,0.285-0.125,0.285-0.284V3.714C12.765,3.643,12.729,3.572,12.676,3.52z
								 M9.316,0.959l2.471,2.472H9.316V0.959z M12.195,15.433H0.569V0.569h8.178v3.162c0,0.162,0.125,0.286,0.285,0.286h3.163
								V15.433z"/>
						</g>
					</g>
				</g>
			</g>
		</g>
	</g>
</g>
<g id="Layer_2">
	<g>
		<path d="M1.512,11.694h1.284c0.254,0,0.459,0.072,0.615,0.216s0.234,0.346,0.234,0.606c0,0.224-0.07,0.419-0.209,0.585
			c-0.14,0.166-0.354,0.249-0.64,0.249H1.901v1.213H1.512V11.694z M3.02,12.089c-0.085-0.04-0.202-0.061-0.351-0.061H1.901v0.994
			h0.768c0.173,0,0.313-0.037,0.422-0.111c0.107-0.074,0.162-0.205,0.162-0.393C3.253,12.308,3.175,12.164,3.02,12.089z"/>
		<path d="M4.181,11.694h1.283c0.254,0,0.459,0.072,0.615,0.216s0.234,0.346,0.234,0.606c0,0.224-0.07,0.419-0.209,0.585
			c-0.14,0.166-0.354,0.249-0.64,0.249H4.569v1.213H4.181V11.694z M5.688,12.089c-0.085-0.04-0.202-0.061-0.351-0.061H4.569v0.994
			h0.768c0.173,0,0.313-0.037,0.422-0.111c0.107-0.074,0.162-0.205,0.162-0.393C5.921,12.308,5.843,12.164,5.688,12.089z"/>
		<path d="M8.897,11.694v0.342H7.931v2.527H7.538v-2.527H6.571v-0.342H8.897z"/>
		<path d="M9.496,14.563H9.028l1.016-1.472l-0.951-1.397h0.484l0.724,1.098l0.718-1.098h0.462l-0.952,1.397l0.998,1.472h-0.48
			l-0.764-1.18L9.496,14.563z"/>
	</g>
</g>
<g id="Layer_4">
</g>
</svg>
