<?xml version="1.0" encoding="utf-8"?>
<!-- Generator: Adobe Illustrator 16.0.0, SVG Export Plug-In . SVG Version: 6.00 Build 0)  -->
<!DOCTYPE svg PUBLIC "-//W3C//DTD SVG 1.0//EN" "http://www.w3.org/TR/2001/REC-SVG-20010904/DTD/svg10.dtd">
<svg version="1.0" xmlns="http://www.w3.org/2000/svg" xmlns:xlink="http://www.w3.org/1999/xlink" x="0px" y="0px"
	 width="12.765px" height="16px" viewBox="0 0 12.765 16" enable-background="new 0 0 12.765 16" xml:space="preserve">
<g id="Layer_3">
	<polygon fill="#FFFFFF" points="12.286,3.729 12.316,16 0.328,16 0.306,0 8.736,0 	"/>
</g>
<g id="Layer_1">
	<g>
		<g>
			<path fill="#8967AC" d="M9.894,6.141H9.239c-0.087,0-0.174,0.043-0.24,0.11L8.388,6.86V6.096c0-0.195-0.152-0.348-0.35-0.348
				H7.625c0.458-0.262,0.764-0.742,0.764-1.309c0-0.829-0.677-1.483-1.505-1.483c-0.654,0-1.221,0.436-1.418,1.024
				C5.269,3.392,4.701,2.956,4.047,2.956c-0.829,0-1.483,0.675-1.483,1.483c0,0.567,0.306,1.047,0.764,1.309H2.891
				c-0.196,0-0.349,0.153-0.349,0.348v3.208c0,0.196,0.153,0.349,0.349,0.349h5.126c0.197,0,0.35-0.152,0.35-0.349V8.54l0.61,0.611
				c0.066,0.064,0.153,0.109,0.24,0.109h0.655c0.196,0,0.349-0.153,0.349-0.351V6.511C10.243,6.293,10.09,6.141,9.894,6.141z
				 M6.904,3.631c0.437,0,0.807,0.349,0.807,0.808c0,0.436-0.349,0.807-0.807,0.807c-0.436,0-0.806-0.35-0.806-0.807
				C6.098,4.003,6.469,3.631,6.904,3.631z M5.487,4.897c0.109,0.371,0.371,0.655,0.698,0.851H4.789
				C5.116,5.574,5.356,5.268,5.487,4.897z M3.262,4.439c0-0.437,0.349-0.808,0.807-0.808c0.437,0,0.808,0.349,0.808,0.808
				c0,0.436-0.35,0.807-0.808,0.807C3.632,5.247,3.262,4.875,3.262,4.439z M7.69,8.954H3.262V6.446H7.69V8.954z M9.544,8.54H9.37
				L8.519,7.689L9.37,6.839h0.174V8.54z"/>
		</g>
	</g>
	<g>
		<g>
			<g>
				<g>
					<path fill="#8967AC" d="M12.676,3.503L9.244,0.071c-0.018-0.018-0.053-0.035-0.07-0.053C9.156,0.018,9.156,0,9.139,0H9.12
						c0,0,0,0-0.018,0c0,0,0,0-0.019,0C9.066,0,9.049,0,9.031,0H0.285C0.125,0,0,0.125,0,0.285v15.43C0,15.876,0.125,16,0.285,16
						H12.48c0.16,0,0.284-0.124,0.284-0.285V3.698C12.765,3.627,12.729,3.556,12.676,3.503z M9.315,0.942l2.472,2.471H9.315V0.942z
						 M12.195,15.413H0.569V0.551h8.195v3.164C8.765,3.875,8.889,4,9.049,4h3.164v11.413H12.195z"/>
				</g>
			</g>
		</g>
	</g>
</g>
<g id="Layer_2">
	<g>
		<path d="M6.593,14.56l-0.219,0.266l-0.5-0.38c-0.12,0.066-0.25,0.119-0.39,0.158s-0.292,0.06-0.458,0.06
			c-0.501,0-0.894-0.164-1.178-0.492c-0.25-0.319-0.375-0.72-0.375-1.2c0-0.437,0.108-0.81,0.325-1.12
			c0.278-0.398,0.69-0.598,1.235-0.598c0.57,0,0.992,0.183,1.266,0.549c0.214,0.286,0.321,0.651,0.321,1.097
			c0,0.208-0.025,0.407-0.077,0.6c-0.078,0.293-0.208,0.531-0.393,0.716L6.593,14.56z M5.336,14.255
			c0.079-0.013,0.148-0.037,0.207-0.074l-0.356-0.276l0.22-0.271l0.421,0.329C5.961,13.81,6.052,13.639,6.1,13.45
			c0.048-0.189,0.072-0.37,0.072-0.544c0-0.38-0.099-0.686-0.298-0.917c-0.198-0.231-0.47-0.348-0.814-0.348
			c-0.349,0-0.625,0.111-0.829,0.333c-0.204,0.223-0.305,0.564-0.305,1.026c0,0.388,0.098,0.697,0.294,0.928
			s0.483,0.345,0.861,0.345C5.172,14.273,5.257,14.268,5.336,14.255z"/>
		<path d="M9.487,11.341v0.384H8.399v2.844H7.958v-2.844H6.87v-0.384H9.487z"/>
	</g>
</g>
<g id="Layer_4">
</g>
</svg>
