<?xml version="1.0" encoding="utf-8"?>
<!-- Generator: Adobe Illustrator 16.0.0, SVG Export Plug-In . SVG Version: 6.00 Build 0)  -->
<!DOCTYPE svg PUBLIC "-//W3C//DTD SVG 1.0//EN" "http://www.w3.org/TR/2001/REC-SVG-20010904/DTD/svg10.dtd">
<svg version="1.0" xmlns="http://www.w3.org/2000/svg" xmlns:xlink="http://www.w3.org/1999/xlink" x="0px" y="0px"
	 width="12.765px" height="16px" viewBox="0 0 12.765 16" enable-background="new 0 0 12.765 16" xml:space="preserve">
<g id="Layer_3">
</g>
<g id="Layer_1">
</g>
<g id="Layer_2">
</g>
<g id="Layer_4">
	<polygon fill="#FFFFFF" points="12.521,3.729 12.551,16 0.562,16 0.541,0 8.972,0 	"/>
	<g>
		<g>
			<g>
				<g>
					<path fill="#808080" d="M12.676,3.52L9.244,0.088C9.191,0.035,9.12,0,9.031,0H0.284C0.124,0,0,0.123,0,0.283v15.433
						C0,15.875,0.124,16,0.284,16H12.48c0.16,0,0.285-0.125,0.285-0.284V3.714C12.766,3.643,12.729,3.572,12.676,3.52z M9.316,0.959
						l2.471,2.472H9.316V0.959z M12.195,15.433H0.568V0.569h8.178v3.162c0,0.162,0.126,0.286,0.285,0.286h3.164V15.433z"/>
				</g>
			</g>
		</g>
	</g>
	<g>
		<path d="M2.443,11.341h1.468c0.241,0,0.44,0.036,0.598,0.107c0.298,0.138,0.446,0.392,0.446,0.763c0,0.193-0.04,0.352-0.12,0.475
			c-0.079,0.123-0.191,0.222-0.335,0.297c0.126,0.051,0.221,0.118,0.285,0.201c0.063,0.084,0.099,0.22,0.106,0.407l0.015,0.433
			c0.005,0.123,0.015,0.215,0.031,0.274c0.026,0.103,0.073,0.169,0.141,0.198v0.072H4.542c-0.015-0.027-0.026-0.063-0.035-0.107
			s-0.017-0.129-0.022-0.255l-0.026-0.538c-0.01-0.211-0.086-0.353-0.228-0.425c-0.082-0.039-0.209-0.06-0.383-0.06H2.881v1.385
			H2.443V11.341z M3.864,12.819c0.199,0,0.356-0.041,0.473-0.123s0.174-0.229,0.174-0.444c0-0.229-0.081-0.387-0.243-0.47
			c-0.087-0.044-0.203-0.065-0.349-0.065H2.881v1.103H3.864z"/>
		<path d="M7.908,11.341v0.384H6.82v2.844H6.379v-2.844H5.291v-0.384H7.908z"/>
		<path d="M8.353,11.341h2.239v0.396H8.79v0.979h1.584v0.385H8.79v1.468H8.353V11.341z"/>
	</g>
</g>
</svg>
