<?xml version="1.0" encoding="utf-8"?>
<!-- Generator: Adobe Illustrator 16.0.0, SVG Export Plug-In . SVG Version: 6.00 Build 0)  -->
<!DOCTYPE svg PUBLIC "-//W3C//DTD SVG 1.0//EN" "http://www.w3.org/TR/2001/REC-SVG-20010904/DTD/svg10.dtd">
<svg version="1.0" xmlns="http://www.w3.org/2000/svg" xmlns:xlink="http://www.w3.org/1999/xlink" x="0px" y="0px"
	 width="12.766px" height="16px" viewBox="0 0 12.766 16" enable-background="new 0 0 12.766 16" xml:space="preserve">
<g id="Layer_3">
	<polygon fill="#FFFFFF" points="12.397,3.729 12.428,16 0.438,16 0.417,0 8.848,0 	"/>
</g>
<g id="Layer_1">
	<g>
		<g>
			<g>
				<path fill="#FFD105" d="M12.676,3.52L9.244,0.088C9.191,0.035,9.121,0,9.032,0H0.285C0.125,0,0,0.123,0,0.283v15.433
					C0,15.875,0.125,16,0.285,16H12.48c0.16,0,0.285-0.125,0.285-0.284V3.714C12.766,3.643,12.73,3.572,12.676,3.52z M9.316,0.959
					l2.471,2.472H9.316V0.959z M12.195,15.433H0.569V0.569h8.178v3.162c0,0.162,0.126,0.286,0.285,0.286h3.163V15.433z"/>
			</g>
		</g>
		<g>
			<g>
				<path fill="#FFD105" d="M8.275,4.371c0-0.017-0.018-0.033-0.018-0.05C8.275,4.321,8.275,4.338,8.275,4.371
					C8.275,4.354,8.275,4.371,8.275,4.371z"/>
			</g>
			<g>
				<g>
					<path fill="#FFD105" d="M8.275,4.371c0-0.017-0.018-0.033-0.018-0.05S8.242,4.289,8.242,4.272S8.226,4.256,8.226,4.239
						L8.209,4.224L8.193,4.206L8.176,4.189l0,0c-0.017,0-0.017-0.017-0.033-0.017C8.127,4.156,8.094,4.156,8.078,4.156
						c-0.018,0-0.034,0-0.051,0c-0.016,0-0.033,0-0.049,0c0,0,0,0-0.017,0L4.995,4.898c-0.017,0-0.017,0-0.033,0
						s-0.017,0-0.034,0.017C4.896,4.932,4.863,4.948,4.83,4.98C4.812,4.997,4.812,4.997,4.797,5.015C4.78,5.03,4.78,5.03,4.78,5.047
						l0,0c0,0.017-0.017,0.033-0.017,0.05c0,0.016,0,0.033,0,0.065v2.737C4.615,7.816,4.435,7.767,4.252,7.767
						c-0.576,0-1.037,0.461-1.037,1.038s0.461,1.039,1.037,1.039c0.578,0,1.039-0.462,1.039-1.039V5.377l2.457-0.61v2.407
						C7.6,7.091,7.418,7.041,7.236,7.041c-0.576,0-1.038,0.462-1.038,1.039S6.66,9.118,7.236,9.118c0.577,0,1.039-0.461,1.039-1.038
						V4.42C8.291,4.403,8.291,4.388,8.275,4.371z M4.27,9.333c-0.28,0-0.511-0.231-0.511-0.512s0.23-0.511,0.511-0.511
						S4.78,8.541,4.78,8.821S4.55,9.333,4.27,9.333z M7.252,8.574c-0.279,0-0.51-0.23-0.51-0.512c0-0.279,0.23-0.51,0.51-0.51
						c0.281,0,0.512,0.23,0.512,0.51C7.764,8.344,7.533,8.574,7.252,8.574z"/>
				</g>
			</g>
		</g>
	</g>
</g>
<g id="Layer_2">
	<g>
		<path d="M2.063,11.341l0.608,2.622l0.729-2.622h0.473l0.731,2.627l0.608-2.627h0.479l-0.849,3.228H4.386l-0.744-2.676l-0.75,2.676
			H2.433l-0.844-3.228H2.063z"/>
		<path d="M6.873,11.341h0.493l1.172,3.228H8.06l-0.338-0.967H6.456l-0.35,0.967H5.657L6.873,11.341z M7.599,13.246l-0.498-1.427
			l-0.516,1.427H7.599z"/>
		<path d="M8.856,11.341l0.928,2.749l0.916-2.749h0.49l-1.178,3.228H9.55l-1.176-3.228H8.856z"/>
	</g>
</g>
<g id="Layer_4">
</g>
</svg>
