<?xml version="1.0" encoding="utf-8"?>
<!-- Generator: Adobe Illustrator 16.0.0, SVG Export Plug-In . SVG Version: 6.00 Build 0)  -->
<!DOCTYPE svg PUBLIC "-//W3C//DTD SVG 1.0//EN" "http://www.w3.org/TR/2001/REC-SVG-20010904/DTD/svg10.dtd">
<svg version="1.0" xmlns="http://www.w3.org/2000/svg" xmlns:xlink="http://www.w3.org/1999/xlink" x="0px" y="0px"
	 width="12.765px" height="16px" viewBox="0 0 12.765 16" enable-background="new 0 0 12.765 16" xml:space="preserve">
<g id="Layer_3">
	<polygon fill="#FFFFFF" points="12.286,3.729 12.316,16 0.328,16 0.306,0 8.736,0 	"/>
</g>
<g id="Layer_1">
	<g>
		<g>
			<path fill="#8967AC" d="M9.894,6.141H9.239c-0.087,0-0.174,0.043-0.24,0.11L8.388,6.86V6.096c0-0.195-0.152-0.348-0.35-0.348
				H7.625c0.458-0.262,0.764-0.742,0.764-1.309c0-0.829-0.677-1.483-1.505-1.483c-0.654,0-1.221,0.436-1.418,1.024
				C5.269,3.392,4.701,2.956,4.047,2.956c-0.829,0-1.483,0.675-1.483,1.483c0,0.567,0.306,1.047,0.764,1.309H2.891
				c-0.196,0-0.349,0.153-0.349,0.348v3.208c0,0.196,0.153,0.349,0.349,0.349h5.126c0.197,0,0.35-0.152,0.35-0.349V8.54l0.61,0.611
				c0.066,0.064,0.153,0.109,0.24,0.109h0.655c0.196,0,0.349-0.153,0.349-0.351V6.511C10.243,6.293,10.09,6.141,9.894,6.141z
				 M6.904,3.631c0.437,0,0.807,0.349,0.807,0.808c0,0.436-0.349,0.807-0.807,0.807c-0.436,0-0.806-0.35-0.806-0.807
				C6.098,4.003,6.469,3.631,6.904,3.631z M5.487,4.897c0.109,0.371,0.371,0.655,0.698,0.851H4.789
				C5.116,5.574,5.356,5.268,5.487,4.897z M3.262,4.439c0-0.437,0.349-0.808,0.807-0.808c0.437,0,0.808,0.349,0.808,0.808
				c0,0.436-0.35,0.807-0.808,0.807C3.632,5.247,3.262,4.875,3.262,4.439z M7.69,8.954H3.262V6.446H7.69V8.954z M9.544,8.54H9.37
				L8.519,7.689L9.37,6.839h0.174V8.54z"/>
		</g>
	</g>
	<g>
		<g>
			<g>
				<path fill="#8967AC" d="M12.676,3.503L9.244,0.071c-0.017-0.018-0.053-0.035-0.07-0.053C9.156,0.018,9.156,0,9.138,0H9.12
					c0,0,0,0-0.018,0c0,0,0,0-0.018,0C9.067,0,9.049,0,9.031,0H0.285C0.125,0,0,0.125,0,0.285v15.43C0,15.876,0.125,16,0.285,16
					H12.48c0.16,0,0.285-0.124,0.285-0.285V3.698C12.765,3.627,12.729,3.556,12.676,3.503z M9.315,0.942l2.471,2.471H9.315V0.942z
					 M12.196,15.413H0.569V0.551h8.195v3.164C8.765,3.875,8.889,4,9.049,4h3.165v11.413H12.196z"/>
			</g>
		</g>
	</g>
</g>
<g id="Layer_2">
	<g>
		<path d="M1.134,11.28l0.541,2.331l0.648-2.331h0.42l0.65,2.335l0.541-2.335h0.426l-0.754,2.869H3.199l-0.662-2.379l-0.666,2.379
			H1.462l-0.75-2.869H1.134z"/>
		<path d="M5.894,12.115c0.139,0.069,0.244,0.16,0.316,0.271c0.07,0.105,0.117,0.229,0.14,0.369c0.021,0.097,0.031,0.25,0.031,0.461
			H4.86c0.006,0.213,0.056,0.384,0.149,0.512c0.093,0.129,0.237,0.193,0.432,0.193c0.182,0,0.327-0.061,0.436-0.183
			c0.061-0.07,0.104-0.152,0.129-0.245h0.346c-0.009,0.077-0.04,0.162-0.091,0.257s-0.109,0.172-0.172,0.231
			c-0.106,0.104-0.237,0.175-0.394,0.211c-0.084,0.021-0.179,0.031-0.285,0.031c-0.259,0-0.478-0.095-0.658-0.284
			c-0.18-0.189-0.27-0.455-0.27-0.796c0-0.336,0.091-0.608,0.272-0.818s0.418-0.314,0.71-0.314
			C5.613,12.011,5.755,12.046,5.894,12.115z M6.02,12.937c-0.014-0.152-0.047-0.274-0.099-0.365
			c-0.096-0.169-0.255-0.254-0.479-0.254c-0.16,0-0.294,0.059-0.403,0.175s-0.166,0.265-0.172,0.444H6.02z"/>
		<path d="M6.797,11.271h0.342v1.041c0.077-0.101,0.169-0.177,0.276-0.229c0.107-0.053,0.224-0.079,0.349-0.079
			c0.261,0,0.474,0.09,0.636,0.269s0.244,0.443,0.244,0.792c0,0.331-0.081,0.605-0.241,0.824s-0.384,0.328-0.668,0.328
			c-0.16,0-0.294-0.038-0.404-0.115c-0.065-0.046-0.135-0.118-0.21-0.219v0.268H6.797V11.271z M8.142,13.679
			c0.095-0.151,0.142-0.351,0.142-0.598c0-0.22-0.047-0.402-0.142-0.547s-0.234-0.217-0.418-0.217c-0.161,0-0.301,0.06-0.422,0.178
			C7.18,12.613,7.12,12.809,7.12,13.081c0,0.196,0.025,0.356,0.074,0.479c0.093,0.23,0.266,0.346,0.52,0.346
			C7.904,13.905,8.047,13.83,8.142,13.679z"/>
		<path d="M9.088,11.28h0.557l0.825,2.426l0.819-2.426h0.553v2.869h-0.371v-1.693c0-0.059,0.001-0.155,0.004-0.291
			s0.004-0.28,0.004-0.436l-0.819,2.42h-0.385l-0.827-2.42v0.088c0,0.07,0.002,0.178,0.006,0.321s0.006,0.25,0.006,0.317v1.693
			H9.088V11.28z"/>
	</g>
</g>
<g id="Layer_4">
</g>
</svg>
