<?xml version="1.0" encoding="utf-8"?>
<!-- Generator: Adobe Illustrator 16.0.0, SVG Export Plug-In . SVG Version: 6.00 Build 0)  -->
<!DOCTYPE svg PUBLIC "-//W3C//DTD SVG 1.0//EN" "http://www.w3.org/TR/2001/REC-SVG-20010904/DTD/svg10.dtd">
<svg version="1.0" xmlns="http://www.w3.org/2000/svg" xmlns:xlink="http://www.w3.org/1999/xlink" x="0px" y="0px"
	 width="12.765px" height="16px" viewBox="0 0 12.765 16" enable-background="new 0 0 12.765 16" xml:space="preserve">
<g id="Layer_3">
	<polygon fill="#FFFFFF" points="12.449,3.729 12.48,16 0.491,16 0.47,0 8.9,0 	"/>
</g>
<g id="Layer_1">
	<g>
		<g>
			<path fill="#8967AC" d="M12.676,3.503L9.244,0.071c-0.017-0.018-0.053-0.035-0.07-0.053C9.156,0.018,9.156,0,9.138,0H9.12
				c0,0,0,0-0.018,0c0,0,0,0-0.018,0C9.067,0,9.049,0,9.031,0H0.285C0.125,0,0,0.125,0,0.285v15.43C0,15.876,0.125,16,0.285,16
				H12.48c0.162,0,0.285-0.124,0.285-0.285V3.698C12.765,3.627,12.729,3.556,12.676,3.503z M9.315,0.942l2.471,2.471H9.315V0.942z
				 M12.196,15.413H0.569V0.551h8.195v3.164C8.765,3.875,8.889,4,9.049,4h3.165v11.413H12.196z"/>
		</g>
	</g>
	<g>
		<g>
			<path fill="#8967AC" d="M9.894,6.141H9.239c-0.087,0-0.174,0.043-0.24,0.11L8.388,6.86V6.096c0-0.195-0.152-0.348-0.35-0.348
				H7.625c0.458-0.262,0.764-0.742,0.764-1.309c0-0.829-0.677-1.483-1.505-1.483c-0.654,0-1.221,0.436-1.418,1.024
				C5.269,3.392,4.701,2.956,4.047,2.956c-0.829,0-1.483,0.675-1.483,1.483c0,0.567,0.306,1.047,0.764,1.309H2.891
				c-0.196,0-0.349,0.153-0.349,0.348v3.208c0,0.196,0.153,0.349,0.349,0.349h5.126c0.197,0,0.35-0.152,0.35-0.349V8.54l0.61,0.611
				c0.066,0.064,0.153,0.109,0.24,0.109h0.655c0.196,0,0.349-0.153,0.349-0.351V6.511C10.243,6.293,10.09,6.141,9.894,6.141z
				 M6.904,3.631c0.437,0,0.807,0.349,0.807,0.808c0,0.436-0.349,0.807-0.807,0.807c-0.436,0-0.806-0.35-0.806-0.807
				C6.098,4.003,6.469,3.631,6.904,3.631z M5.487,4.897c0.109,0.371,0.371,0.655,0.698,0.851H4.789
				C5.116,5.574,5.356,5.268,5.487,4.897z M3.262,4.439c0-0.437,0.349-0.808,0.807-0.808c0.437,0,0.808,0.349,0.808,0.808
				c0,0.436-0.35,0.807-0.808,0.807C3.632,5.247,3.262,4.875,3.262,4.439z M7.69,8.954H3.262V6.446H7.69V8.954z M9.544,8.54H9.37
				L8.519,7.689L9.37,6.839h0.174V8.54z"/>
		</g>
	</g>
</g>
<g id="Layer_2">
	<g>
		<path d="M1.441,10.928l0.608,2.622l0.729-2.622h0.473l0.731,2.627l0.608-2.627h0.479l-0.848,3.228H3.763l-0.745-2.676l-0.75,2.676
			H1.81l-0.844-3.228H1.441z"/>
		<path d="M5.463,10.928h0.626l0.928,2.729l0.922-2.729h0.622v3.228H8.144V12.25c0-0.065,0.001-0.175,0.004-0.327
			s0.005-0.315,0.005-0.49l-0.922,2.723H6.798l-0.93-2.723v0.1c0,0.078,0.002,0.199,0.006,0.361c0.004,0.161,0.006,0.28,0.006,0.356
			v1.905H5.463V10.928z"/>
		<path d="M9.479,10.928l0.927,2.749l0.917-2.749h0.49l-1.178,3.228h-0.463l-1.176-3.228H9.479z"/>
	</g>
</g>
<g id="Layer_4">
</g>
</svg>
