<?xml version="1.0" encoding="utf-8"?>
<!-- Generator: Adobe Illustrator 16.0.0, SVG Export Plug-In . SVG Version: 6.00 Build 0)  -->
<!DOCTYPE svg PUBLIC "-//W3C//DTD SVG 1.0//EN" "http://www.w3.org/TR/2001/REC-SVG-20010904/DTD/svg10.dtd">
<svg version="1.0" xmlns="http://www.w3.org/2000/svg" xmlns:xlink="http://www.w3.org/1999/xlink" x="0px" y="0px"
	 width="12.765px" height="16px" viewBox="0 0 12.765 16" enable-background="new 0 0 12.765 16" xml:space="preserve">
<g id="Layer_3">
	<polygon fill="#FFFFFF" points="12.286,3.729 12.316,16 0.327,16 0.306,0 8.736,0 	"/>
</g>
<g id="Layer_1">
	<g>
		<g>
			<g>
				<g>
					<g>
						<path fill="#009245" d="M12.676,3.52L9.244,0.088C9.191,0.035,9.12,0,9.032,0H0.284C0.124,0,0,0.123,0,0.283v15.433
							C0,15.875,0.124,16,0.284,16h12.195c0.16,0,0.285-0.125,0.285-0.284V3.714C12.765,3.643,12.729,3.572,12.676,3.52z
							 M9.316,0.959l2.471,2.472H9.316V0.959z M12.195,15.433H0.569V0.569h8.178v3.162c0,0.162,0.125,0.286,0.285,0.286h3.163
							V15.433z"/>
					</g>
				</g>
			</g>
		</g>
		<g>
			<g>
				<path fill="#009245" d="M9.69,4.521H3.058c-0.182,0-0.324,0.126-0.324,0.289v4.98c0,0.162,0.143,0.29,0.324,0.29H9.71
					c0.182,0,0.322-0.128,0.322-0.29v-4.98C10.013,4.647,9.872,4.521,9.69,4.521z M6.05,9.501H3.362V8.415H6.05V9.501z M6.05,7.854
					H3.362V6.767H6.05V7.854z M6.05,6.188H3.362V5.101H6.05V6.188z M9.386,9.501H6.696V8.415h2.689V9.501z M9.386,7.854H6.696V6.767
					h2.689V7.854z M9.386,6.188H6.696V5.101h2.689V6.188z"/>
			</g>
		</g>
	</g>
</g>
<g id="Layer_2">
	<g>
		<path d="M1.243,14.568H0.718l1.143-1.656l-1.07-1.571h0.545l0.814,1.234l0.808-1.234h0.519l-1.07,1.571l1.123,1.656H2.987
			l-0.859-1.327L1.243,14.568z"/>
		<path d="M3.974,11.341h0.438v2.843H6.03v0.385H3.974V11.341z"/>
		<path d="M6.762,13.527c0.01,0.183,0.052,0.331,0.125,0.445c0.14,0.214,0.386,0.321,0.739,0.321c0.157,0,0.301-0.023,0.432-0.07
			c0.25-0.091,0.377-0.254,0.377-0.488c0-0.176-0.054-0.301-0.16-0.376c-0.107-0.072-0.277-0.137-0.507-0.19L7.345,13.07
			c-0.277-0.064-0.473-0.136-0.588-0.214c-0.199-0.135-0.299-0.336-0.299-0.604c0-0.289,0.098-0.527,0.293-0.714
			c0.195-0.186,0.473-0.278,0.83-0.278c0.329,0,0.609,0.081,0.84,0.244c0.229,0.164,0.345,0.425,0.345,0.783H8.354
			c-0.021-0.172-0.066-0.305-0.135-0.397c-0.127-0.168-0.345-0.253-0.65-0.253c-0.248,0-0.426,0.055-0.533,0.163
			c-0.108,0.108-0.162,0.234-0.162,0.378c0,0.158,0.063,0.274,0.191,0.348c0.084,0.047,0.273,0.105,0.568,0.176l0.438,0.103
			c0.212,0.05,0.375,0.118,0.489,0.204c0.199,0.151,0.299,0.37,0.299,0.657c0,0.357-0.127,0.613-0.381,0.767
			c-0.254,0.154-0.548,0.231-0.884,0.231c-0.392,0-0.698-0.103-0.919-0.308c-0.222-0.204-0.33-0.479-0.326-0.828H6.762z"/>
		<path d="M9.749,14.568H9.224l1.143-1.656l-1.07-1.571h0.545l0.814,1.234l0.808-1.234h0.519l-1.07,1.571l1.123,1.656h-0.541
			l-0.859-1.327L9.749,14.568z"/>
	</g>
</g>
<g id="Layer_4">
</g>
</svg>
