<?xml version="1.0" encoding="utf-8"?>
<!-- Generator: Adobe Illustrator 16.0.0, SVG Export Plug-In . SVG Version: 6.00 Build 0)  -->
<!DOCTYPE svg PUBLIC "-//W3C//DTD SVG 1.1//EN" "http://www.w3.org/Graphics/SVG/1.1/DTD/svg11.dtd">
<svg version="1.1" id="Layer_1" xmlns="http://www.w3.org/2000/svg" xmlns:xlink="http://www.w3.org/1999/xlink" x="0px" y="0px"
	 width="1499.76px" height="477.913px" viewBox="0 0 1499.76 477.913" enable-background="new 0 0 1499.76 477.913"
	 xml:space="preserve">
<g id="triangles">
	<g>
		<g>
			<polygon fill="#448CCA" fill-opacity="0.2706" points="161.142,-47.989 3.826,-3.592 72.665,-166.822 			"/>
			<polygon fill="#589A43" fill-opacity="0.3804" points="-1.391,9.559 0.278,-2.067 57.384,-116.542 			"/>
			<polygon fill="#F68E57" fill-opacity="0.3804" points="61.311,-133.141 140.986,-179.751 240.395,-127.529 			"/>
			<polygon fill="#F68E57" fill-opacity="0.3804" points="201.842,-164.038 262.841,-110.188 153.974,-170.865 			"/>
			<polygon fill="#9F4322" fill-opacity="0.3804" points="248.742,-129.593 238.811,-140.843 233.331,-123.842 			"/>
			<polygon fill="#9F4322" fill-opacity="0.3804" points="252.713,-133.792 238.821,-118.658 265.209,-113.135 			"/>
			<polygon fill="#9F4322" fill-opacity="0.3804" points="259.848,-122.771 233,-120.376 244.543,-145.949 			"/>
			<polygon fill="#A14323" fill-opacity="0.3804" points="258.002,-87.846 256.036,-114.198 278.758,-103.758 			"/>
			<polygon fill="#F89520" fill-opacity="0.3804" points="209.929,-165.228 209.241,-123.673 244.154,-144.885 			"/>
			<polygon fill="#FAAF5E" fill-opacity="0.3804" points="225.283,-116.836 234.07,-152.32 259.028,-127.197 			"/>
			<polygon fill="#F68E57" fill-opacity="0.3804" points="264.19,-108.692 109.229,-126.2 258.967,-128.213 			"/>
			<polygon fill="#974021" fill-opacity="0.3765" points="264.076,-85.821 284.949,-105.395 258.535,-113.792 			"/>
			<polygon fill="#F79057" fill-opacity="0.3804" points="252.754,-95.313 248.738,-107.514 240.464,-97.213 			"/>
			<polygon fill="#F79057" fill-opacity="0.3804" points="232.126,-85.519 227.713,-98.451 241.937,-95.899 			"/>
			<polygon fill="#F79057" fill-opacity="0.3804" points="212.19,-87.171 214.56,-81.101 217.773,-87.5 			"/>
			<polygon fill="#F79057" fill-opacity="0.3804" points="221.11,-84.311 228.232,-93.2 217.205,-95.003 			"/>
			<polygon fill="#F68C54" fill-opacity="0.3686" points="207.051,-76.927 204.64,-88.295 215.673,-85.131 			"/>
			<polygon fill="#8AD1CA" fill-opacity="0.3804" points="257.806,-96.978 135.959,94.976 217.809,75.305 242.83,65.599 			"/>
			<polygon fill="#F68E57" fill-opacity="0.3804" points="61.194,-133.063 266.298,-113.641 140.949,-179.749 			"/>
			<polygon fill="#A04323" fill-opacity="0.3804" points="117.774,-169.19 90.577,-164.814 107.251,-141.81 			"/>
			<polygon fill="#A04323" fill-opacity="0.3804" points="65.671,-146.811 97.043,-125.944 99.482,-165.551 			"/>
			<polygon fill="#82CA9C" fill-opacity="0.3804" points="176.102,-70.657 70.659,77.279 265.903,-109.498 			"/>
			<polygon fill="#F68E57" fill-opacity="0.3804" points="65.411,111.777 -10.626,168.055 -1.697,129.848 			"/>
			<polygon fill="#82CA9C" fill-opacity="0.3804" points="28.122,122.36 135.635,95.58 260.846,-104.034 			"/>
			<polygon fill="#6EC498" fill-opacity="0.3804" points="-0.89,-7.521 148.759,-63.887 0.355,159.975 			"/>
			<polygon fill="#6BC7BC" fill-opacity="0.3804" points="3.155,-2.938 262.684,-105.36 61.939,-133.547 			"/>
			<polygon fill="#FAAF5E" fill-opacity="0.3804" points="-2.731,16.929 61.555,-133.792 38.695,-98.142 			"/>
			<polygon fill="#82CA9C" fill-opacity="0.3804" points="70.133,78.534 175.843,-69.877 263.136,-107.559 			"/>
			<polygon fill="#FDC789" fill-opacity="0.3804" points="226.635,-88.333 232.586,-87.312 230.637,-93.348 			"/>
			<polygon fill="#FDC789" fill-opacity="0.3804" points="243.681,-86.333 242.701,-98.121 233.19,-91.256 			"/>
			<polygon fill="#FDC789" fill-opacity="0.3804" points="257.394,-83.36 251.871,-106.117 235.682,-89.125 			"/>
			<polygon fill="#FDC789" fill-opacity="0.3804" points="5.038,128.332 167.682,-72.004 64.766,110.82 			"/>
			<polygon fill="#A14423" fill-opacity="0.3804" points="288.667,-101.854 273.784,-108.767 275.208,-91.797 			"/>
			<polygon fill="#82CA9C" fill-opacity="0.3804" points="266.748,-110.593 252.314,-55.166 317.422,-92.02 			"/>
			<polygon fill="#FDC789" fill-opacity="0.3804" points="267.292,-76.509 279.299,-110.765 244.996,-103.53 			"/>
			<polygon fill="#87BFD1" fill-opacity="0.3804" points="133.077,-58.931 19.726,-50.05 80.917,47.326 			"/>
			<polygon fill="#87BFD1" fill-opacity="0.3804" points="67.611,-10.749 4.121,15.486 15.658,-54.041 			"/>
			<polygon fill="#87BFD1" fill-opacity="0.3804" points="68.206,-138.386 67.583,-118.833 84.17,-128.648 			"/>
			<polygon fill="#87BFD1" fill-opacity="0.3804" points="81.547,-103.345 114.589,-118.151 86.566,-140.092 			"/>
			<polygon fill="#E26944" fill-opacity="0.3804" points="109.132,-71.325 99.615,-148.7 169.164,-120.546 			"/>
			<polygon fill="#87BFD1" fill-opacity="0.3804" points="163.609,-63.567 145.358,-127.929 220.735,-134.463 			"/>
			<polygon fill="#87BFD1" fill-opacity="0.3804" points="268.741,-107.852 208.912,-71.641 210.148,-142.68 			"/>
			<polygon fill="#82CA9C" fill-opacity="0.3804" points="240.25,-23.6 326.951,-59.586 278.95,-118.733 			"/>
			<polygon fill="#82CA9C" fill-opacity="0.3804" points="228.96,-5.739 326.945,11.928 356.635,-72.667 			"/>
			<polygon fill="#03A750" fill-opacity="0.3804" points="240.832,-3.003 218.021,75.446 276.188,51.504 			"/>
			<polygon fill="#87BFD1" fill-opacity="0.3804" points="163.296,-45.514 233.885,3.142 264.005,-85.942 			"/>
			<polygon fill="#FDC789" fill-opacity="0.3804" points="312.704,-92.797 329.833,-83.599 313.125,-72.508 			"/>
			<polygon fill="#FDC789" fill-opacity="0.3804" points="325.687,-85.865 341.354,-69.373 296.359,-63.053 			"/>
			<polygon fill="#FDC789" fill-opacity="0.3804" points="340.28,-72.097 310.962,-54.016 329.089,-57.806 			"/>
			<polygon fill="#FDC789" fill-opacity="0.3804" points="242.474,-2.859 326.945,11.928 301.958,33.579 292.764,40.176 			"/>
			<polygon fill="#FDC789" fill-opacity="0.3804" points="276.188,51.504 302.609,33.367 238.614,-4.004 			"/>
		</g>
	</g>
</g>
</svg>
