<?xml version="1.0" encoding="utf-8"?>
<!-- Generator: Adobe Illustrator 16.0.0, SVG Export Plug-In . SVG Version: 6.00 Build 0)  -->
<!DOCTYPE svg PUBLIC "-//W3C//DTD SVG 1.1//EN" "http://www.w3.org/Graphics/SVG/1.1/DTD/svg11.dtd">
<svg version="1.1" xmlns="http://www.w3.org/2000/svg" xmlns:xlink="http://www.w3.org/1999/xlink" x="0px" y="0px"
	 width="2437.92px" height="479.52px" viewBox="0 0 2437.92 479.52" enable-background="new 0 0 2437.92 479.52"
	 xml:space="preserve">
<g id="Layer_1">
	<g>
		<g>
			<path fill="none" d="M538.276,357.646V80.674h104.116c78.389,0,122.608,60.299,122.608,139.09
				c0,78.389-44.219,137.883-122.608,137.883H538.276z M564.808,331.115h77.584c63.917,0,96.076-47.436,96.076-111.352
				c0-63.917-32.159-112.558-96.076-112.558h-77.584V331.115z"/>
			<path fill="none" d="M995.944,357.646H969.01v-32.158c-14.07,23.717-43.416,36.179-70.751,36.179
				c-53.465,0-96.076-38.993-96.076-98.488s42.611-97.282,96.076-97.282c27.335,0,56.681,11.256,70.751,34.973v-30.953h26.934
				V357.646z M898.259,334.733c38.189,0,70.751-25.325,70.751-71.555c0-46.229-36.983-70.349-70.751-70.349
				c-38.993,0-69.143,27.335-69.143,70.349C829.117,304.986,859.266,334.733,898.259,334.733z"/>
			<path fill="none" d="M1063.282,357.646v-163.61h-33.768v-24.12h33.768V99.567h26.934v70.349h39.797v24.12h-39.797v163.61
				H1063.282z"/>
			<path fill="none" d="M1340.859,357.646h-26.934v-32.158c-14.07,23.717-43.416,36.179-70.75,36.179
				c-53.466,0-96.078-38.993-96.078-98.488s42.611-97.282,96.078-97.282c27.334,0,56.68,11.256,70.75,34.973v-30.953h26.934V357.646
				z M1243.176,334.733c38.188,0,70.75-25.325,70.75-71.555c0-46.229-36.984-70.349-70.75-70.349
				c-38.995,0-69.144,27.335-69.144,70.349C1174.032,304.986,1204.181,334.733,1243.176,334.733z"/>
			<path d="M1395.695,68.212h26.934V200.87c14.068-23.717,43.414-34.973,70.75-34.973c53.465,0,96.076,37.787,96.076,97.282
				s-42.611,98.488-96.076,98.488c-27.336,0-56.682-12.462-70.75-36.179v32.158h-26.934V68.212z M1493.379,192.83
				c-33.768,0-70.75,24.12-70.75,70.349c0,46.229,32.561,71.555,70.75,71.555c38.994,0,69.143-29.747,69.143-71.555
				C1562.521,220.166,1532.373,192.83,1493.379,192.83z"/>
			<path d="M1740.969,199.262c-8.844-4.422-20.5-6.432-27.334-6.432c-38.189,0-53.867,45.023-53.867,94.87v69.946h-26.934v-187.73
				h26.934v42.611c9.246-32.159,26.531-46.631,53.867-46.631c12.863,0,26.934,4.02,30.551,7.236L1740.969,199.262z"/>
			<path d="M1953.062,357.646h-26.934v-32.158c-14.068,23.717-43.414,36.179-70.75,36.179c-53.465,0-96.076-38.993-96.076-98.488
				s42.611-97.282,96.076-97.282c27.336,0,56.682,11.256,70.75,34.973v-30.953h26.934V357.646z M1855.379,334.733
				c38.189,0,70.75-25.325,70.75-71.555c0-46.229-36.982-70.349-70.75-70.349c-38.994,0-69.143,27.335-69.143,70.349
				C1786.236,304.986,1816.385,334.733,1855.379,334.733z"/>
			<path d="M2116.035,199.262c-8.844-4.422-20.502-6.432-27.336-6.432c-38.189,0-53.867,45.023-53.867,94.87v69.946h-26.934v-187.73
				h26.934v42.611c9.246-32.159,26.531-46.631,53.867-46.631c12.863,0,26.934,4.02,30.551,7.236L2116.035,199.262z"/>
			<path d="M2180.438,448.498l37.385-91.253l-77.184-187.329h28.141l63.514,152.757l63.918-152.757h28.541l-116.578,278.582
				H2180.438z"/>
		</g>
		<g>
			<g>
				<path d="M537.276,350.646V73.674h104.116c78.389,0,122.608,60.299,122.608,139.09c0,78.389-44.219,137.883-122.608,137.883
					H537.276z M563.808,324.115h77.584c63.917,0,96.076-47.436,96.076-111.352c0-63.917-32.159-112.558-96.076-112.558h-77.584
					V324.115z"/>
				<path d="M994.944,350.646H968.01v-32.158c-14.07,23.717-43.416,36.179-70.751,36.179c-53.465,0-96.076-38.993-96.076-98.488
					s42.611-97.282,96.076-97.282c27.335,0,56.681,11.256,70.751,34.973v-30.953h26.934V350.646z M897.259,327.733
					c38.189,0,70.751-25.325,70.751-71.555c0-46.229-36.983-70.349-70.751-70.349c-38.993,0-69.143,27.335-69.143,70.349
					C828.117,297.986,858.266,327.733,897.259,327.733z"/>
				<path d="M1062.282,350.646v-163.61h-33.768v-24.12h33.768V92.567h26.934v70.349h39.797v24.12h-39.797v163.61H1062.282z"/>
				<path d="M1339.859,350.646h-26.934v-32.158c-14.07,23.717-43.416,36.179-70.75,36.179c-53.466,0-96.078-38.993-96.078-98.488
					s42.611-97.282,96.078-97.282c27.334,0,56.68,11.256,70.75,34.973v-30.953h26.934V350.646z M1242.176,327.733
					c38.188,0,70.75-25.325,70.75-71.555c0-46.229-36.984-70.349-70.75-70.349c-38.995,0-69.144,27.335-69.144,70.349
					C1173.032,297.986,1203.181,327.733,1242.176,327.733z"/>
			</g>
			<g>
				<path fill="none" stroke="#000000" stroke-width="13" d="M537.276,350.646V73.674h104.116
					c78.389,0,122.608,60.299,122.608,139.09c0,78.389-44.219,137.883-122.608,137.883H537.276z M563.808,324.115h77.584
					c63.917,0,96.076-47.436,96.076-111.352c0-63.917-32.159-112.558-96.076-112.558h-77.584V324.115z"/>
				<path fill="none" stroke="#000000" stroke-width="13" d="M994.944,350.646H968.01v-32.158
					c-14.07,23.717-43.416,36.179-70.751,36.179c-53.465,0-96.076-38.993-96.076-98.488s42.611-97.282,96.076-97.282
					c27.335,0,56.681,11.256,70.751,34.973v-30.953h26.934V350.646z M897.259,327.733c38.189,0,70.751-25.325,70.751-71.555
					c0-46.229-36.983-70.349-70.751-70.349c-38.993,0-69.143,27.335-69.143,70.349C828.117,297.986,858.266,327.733,897.259,327.733
					z"/>
				<path fill="none" stroke="#000000" stroke-width="13" d="M1062.282,350.646v-163.61h-33.768v-24.12h33.768V92.567h26.934v70.349
					h39.797v24.12h-39.797v163.61H1062.282z"/>
				<path fill="none" stroke="#000000" stroke-width="13" d="M1339.859,350.646h-26.934v-32.158
					c-14.07,23.717-43.416,36.179-70.75,36.179c-53.466,0-96.078-38.993-96.078-98.488s42.611-97.282,96.078-97.282
					c27.334,0,56.68,11.256,70.75,34.973v-30.953h26.934V350.646z M1242.176,327.733c38.188,0,70.75-25.325,70.75-71.555
					c0-46.229-36.984-70.349-70.75-70.349c-38.995,0-69.144,27.335-69.144,70.349
					C1173.032,297.986,1203.181,327.733,1242.176,327.733z"/>
			</g>
		</g>
	</g>
</g>
<g id="triangles">
	<g>
		<path fill-rule="evenodd" clip-rule="evenodd" fill="#333333" d="M399.155,211.146c0.504-0.567,1.006-1.125,1.48-1.66
			c1.02,1.049,0.767,2.506,1.062,3.733c0.537,2.252,1.014,4.558,1.327,6.849c0.215,1.601,0.767,3.244,0.517,4.895
			c-0.154,1.045,0.506,1.838,0.513,2.829c0.008,0.938-0.452,1.996,0.396,2.845c0.109,0.109,0.052,0.452,0.007,0.676
			c-0.329,1.614,0.542,3.092,0.471,4.686c-0.071,1.624-0.263,3.302,0.033,4.865c0.766,4.037,0.272,8.087,0.377,12.122
			c0.099,4.021-0.021,8.052,0.049,12.074c0.018,1.15-0.65,2.116-0.507,3.295c0.143,1.143,0.03,2.318,0.03,3.479
			c0,0.372,0,0.746,0,1.149c0.553,0.044,0.433-0.323,0.442-0.548c0.02-0.387,0.03-0.777,0-1.163
			c-0.027-0.382,0.448-0.542,0.417-0.732c-0.232-1.32,0.456-2.478,0.543-3.753c0.079-1.198,0.409-2.42,0.688-3.617
			c0.245-1.055,0.456-2.148,0.59-3.239c0.058-0.516-0.087-1.03,0.392-1.477c0.187-0.179,0.188-0.818,0.033-1.104
			c-0.742-1.362-0.434-2.829-0.377-4.229c0.05-1.24-0.649-2.285-0.523-3.53c0.134-1.221,0.176-2.494-0.008-3.702
			c-0.25-1.705-0.74-3.373-1.157-5.193c0.345-0.649,0.847-1.414,0.766-2.446c-0.079-0.996-0.088-2.014,0-3.011
			c0.113-1.232-0.635-2.286-0.491-3.531c0.129-1.145,0.271-2.394-0.038-3.457c-0.349-1.199-0.239-2.369-0.404-3.542
			c-0.443-3.25-0.67-6.593-1.827-9.655c-0.804-2.117-1.363-4.378-2.61-6.306c-0.07-0.107-0.011-0.301-0.011-0.43
			c0.156-0.245,0.375-0.256,0.699-0.237c1.638,3.713,3.354,7.44,4.001,11.586c0.631-5.28-0.2-10.288-2.41-15.107
			c0.147-0.323,0.781-0.451,0.114-1.357c0.546,0.354,0.686,0.396,0.744,0.49c0.537,0.844,1.176,1.688,1.278,2.687
			c0.079,0.753,0.614,0.995,0.88,1.384c0.265,1.171-0.167,2.27,0.441,3.409c0.49,0.916-0.26,2.197,0.466,3.289
			c0.278,0.417,0.061,1.205,0.046,1.822c-0.109,4.437,0.784,8.834,0.445,13.273c0.819,2.132,0.095,4.405,0.499,6.534
			c0.572,3.039,0.186,6.08,0.436,9.099c0.117,1.413,0.648,2.798,1.072,4.17c0.087,0.275,0.23,0.523,0.23,0.828
			c-0.003,2.398,0.286,4.851-0.088,7.183c-0.319,1.974-0.318,3.906-0.339,5.859c-0.017,1.103-0.167,2.201,0.368,3.32
			c0.322,0.688,0.348,1.853-0.01,2.483c-0.523,0.908-0.312,1.766-0.362,2.638c-0.07,1.154,0.317,2.479-0.104,3.442
			c-0.538,1.235,0.072,2.531-0.432,3.521c-0.531,1.037-0.075,2.19-0.766,3.177c-0.321,0.459-0.059,1.354-0.059,2.057
			c-0.296,0.41-0.74,0.779-0.869,1.241c-0.93,3.309-2.142,6.517-3.237,9.758c-0.686,2.028-1.09,4.167-1.993,6.099
			c-0.369,0.793-0.092,1.573-0.374,2.389c-0.946,2.722-2.387,5.174-3.563,7.761c-1.731,3.779-3.768,7.386-5.925,10.931
			c-1.291,2.121-2.264,4.464-3.697,6.524c0.311,1.163-0.796,1.662-1.152,2.518c-0.33,0.788-0.471,1.664-0.907,2.394
			c-0.222,0.371-0.171,0.911-0.625,1.128c-2.009,0.958-2.047,3.282-3.118,4.896c-0.144,0.22,0.147,0.64-0.177,0.836
			c-0.367,0.23-0.189,0.713-0.411,0.958c-0.82,0.213-0.97-0.628-1.541-0.919c-0.551,0.044-1.016,0.825-1.742,0.417
			c-0.046-0.098-0.148-0.222-0.154-0.356c-0.024-0.387-0.162-0.948,0.021-1.128c0.541-0.509,0.23-1.19,0.463-1.679
			c0.28-0.582,0.121-0.969-0.022-1.495c-0.296-1.111,0.41-2.088,0.927-2.817c1.308-1.824,2.086-3.957,3.461-5.749
			c1.185-1.541,2.255-3.206,3.413-4.773c1.629-2.201,2.787-4.659,3.732-7.22c0.164-0.443,0.385-1.011,0.575-1.372
			c2.4-4.551,4.062-9.42,5.555-14.325c0.427-1.417,0.856-2.907,1.166-4.402c0.282-1.359,0.96-2.76,1.159-4.1
			c0.281-1.968,0.993-3.866,0.979-5.871c-0.006-0.7,0.442-1.193,0.533-1.885c0.143-1.097,0.114-2.316,0.472-3.263
			c0.409-1.08,0.274-2.073,0.329-3.098c0.045-0.899,0.662-1.62,0.506-2.601c-0.118-0.765-0.22-1.621,0.374-2.385
			c0.218-0.277,0.039-0.896,0.039-1.361c0-2.015-0.293-4.082,0.065-6.023c0.589-3.201,0.29-6.385,0.363-9.573
			c0.073-3.248,0.004-6.498,0.02-9.749c0.008-1.581-0.637-3.065-0.481-4.687c0.146-1.534,0.285-3.156-0.04-4.624
			c-0.35-1.586-0.114-3.181-0.447-4.685c-0.28-1.269-0.121-2.57-0.437-3.751c-0.339-1.272-0.142-2.57-0.453-3.756
			c-0.271-1.04-0.298-2.044-0.401-3.075c-0.09-0.943-0.654-1.82-0.425-2.826c-0.979-0.734,0.099-2.143-0.876-2.875
			C399.841,213.839,398.745,212.547,399.155,211.146z M406.578,281.366c-0.583,0.405-0.139,1.115-0.34,1.594
			c-1.101,2.562-1.766,5.272-2.573,7.936c-0.585,1.913-1.026,3.871-1.856,5.697c-0.123,0.272-0.174,0.759,0.35,1.248
			c-0.101-0.692,0.38-0.984,0.508-1.438c0.754-2.835,1.738-5.586,2.661-8.361c0.703-2.123,1.945-4.174,1.374-6.604
			c0.217,0.04,0.35-0.061,0.395-0.271c0.008-0.04-0.094-0.147-0.128-0.137C406.761,281.076,406.664,281.217,406.578,281.366z
			 M407.758,265.264c0.058,1.175-0.518,2.193-0.584,3.275c-0.072,1.19-0.797,2.276-0.474,3.51c-0.923,0.844,0.038,2.254-0.874,3.103
			c0.264,1.223-0.542,2.293-0.476,3.502c0.059,1.073-0.956,2.064-0.173,3.347C406.917,276.48,408.503,271.059,407.758,265.264z
			 M404.68,275.93c0.347-0.59,0.285-1.001,0.019-1.516C404.378,274.957,404.398,275.364,404.68,275.93z"/>
		<g>
			<polygon fill="#448CCA" fill-opacity="0.2706" points="252.58,161.053 118.694,254.828 108.14,85.619 			"/>
			<polygon fill="#589A43" fill-opacity="0.3804" points="118.104,268.964 115.847,257.438 110.288,138.125 			"/>
			<polygon fill="#F68E57" fill-opacity="0.3804" points="108.524,121.16 168.38,50.889 279.447,67.422 			"/>
			<polygon fill="#F68E57" fill-opacity="0.3804" points="231.013,45.663 306.355,76.394 183.571,54.998 			"/>
			<polygon fill="#9F4322" fill-opacity="0.3804" points="286.647,62.722 273.562,55.375 273.994,73.232 			"/>
			<polygon fill="#9F4322" fill-opacity="0.3804" points="289.012,57.448 280.886,76.316 307.619,72.832 			"/>
			<polygon fill="#9F4322" fill-opacity="0.3804" points="299.381,65.501 274.824,76.613 277.291,48.664 			"/>
			<polygon fill="#A14323" fill-opacity="0.3804" points="309.152,99.083 298.608,74.852 323.502,77.218 			"/>
			<polygon fill="#F89520" fill-opacity="0.3804" points="238.257,41.874 251.306,81.333 277.274,49.797 			"/>
			<polygon fill="#FAAF5E" fill-opacity="0.3804" points="268.705,82.499 265.304,46.102 297.148,61.594 			"/>
			<polygon fill="#F68E57" fill-opacity="0.3804" points="308.122,77.362 156.052,111.917 296.756,60.654 			"/>
			<polygon fill="#974021" fill-opacity="0.3765" points="315.554,98.992 328.807,73.632 301.101,74.411 			"/>
			<polygon fill="#F79057" fill-opacity="0.3804" points="301.736,93.762 293.922,83.569 289.506,96.021 			"/>
			<polygon fill="#F79057" fill-opacity="0.3804" points="285.489,109.81 277.06,99.055 291.33,96.776 			"/>
			<polygon fill="#F79057" fill-opacity="0.3804" points="266.123,114.822 270.362,119.772 271.285,112.671 			"/>
			<polygon fill="#F79057" fill-opacity="0.3804" points="275.487,114.582 279.281,103.842 268.276,105.775 			"/>
			<polygon fill="#F68C54" fill-opacity="0.3686" points="264.649,126.188 258.625,116.25 270.084,115.6 			"/>
			<polygon fill="#1C7B3E" fill-opacity="0.3804" points="311.79,93.486 430.886,155.813 363.286,256.959 			"/>
			<polygon fill="#8AD1CA" fill-opacity="0.3804" points="307.846,89.866 269.275,303.473 366.918,244.712 			"/>
			<polygon fill="#F68E57" fill-opacity="0.3804" points="108.439,121.272 308.48,71.995 168.345,50.905 			"/>
			<polygon fill="#A04323" fill-opacity="0.3804" points="149.947,68.512 125.713,81.609 149.038,97.832 			"/>
			<polygon fill="#A04323" fill-opacity="0.3804" points="108.134,106.817 144.631,116.175 133.877,77.979 			"/>
			<polygon fill="#82CA9C" fill-opacity="0.3804" points="237.496,142.31 208.45,309.146 309.473,76.037 			"/>
			<polygon fill="#F68E57" fill-opacity="0.3804" points="214.538,342.501 161.634,421.645 157.469,382.63 			"/>
			<polygon fill="#82CA9C" fill-opacity="0.3804" points="183.153,365.73 275.828,305.005 306.5,82.862 			"/>
			<polygon fill="#6EC498" fill-opacity="0.3804" points="112.947,252.674 235.649,150.125 169.338,410.396 			"/>
			<polygon fill="#6BC7BC" fill-opacity="0.3804" points="118.277,255.667 307.798,81.004 108.983,120.57 			"/>
			<polygon fill="#FAAF5E" fill-opacity="0.3804" points="119.268,276.363 108.539,120.465 98.71,161.658 			"/>
			<polygon fill="#82CA9C" fill-opacity="0.3804" points="208.368,310.504 237.509,143.132 307.5,78.78 			"/>
			<polygon fill="#FDC789" fill-opacity="0.3804" points="279.378,108.963 285.333,107.966 281.503,102.909 			"/>
			<polygon fill="#FDC789" fill-opacity="0.3804" points="296.13,105.233 291.319,94.427 284.603,104.043 			"/>
			<polygon fill="#FDC789" fill-opacity="0.3804" points="310.056,103.518 297.341,83.854 287.657,105.233 			"/>
			<polygon fill="#FDC789" fill-opacity="0.3804" points="163.328,378.979 229.103,143.813 213.944,342.756 			"/>
			<polygon fill="#A14423" fill-opacity="0.3804" points="333.485,75.748 317.155,74.129 324.093,89.68 			"/>
			<polygon fill="#82CA9C" fill-opacity="0.3804" points="309.91,74.724 336.291,124.221 363.875,75.554 			"/>
			<polygon fill="#FDC789" fill-opacity="0.3804" points="319.77,107.383 319.813,71.084 289.812,89.223 			"/>
			<polygon fill="#87BFD1" fill-opacity="0.3804" points="222.477,159.974 118.39,205.725 208.261,277.487 			"/>
			<polygon fill="#87BFD1" fill-opacity="0.3804" points="176.554,227.044 125.261,272.742 113.234,203.299 			"/>
			<polygon fill="#87BFD1" fill-opacity="0.3804" points="113.304,113.935 119.162,132.6 131.586,117.866 			"/>
			<polygon fill="#87BFD1" fill-opacity="0.3804" points="137.451,142.619 163.765,117.749 130.076,106.272 			"/>
			<polygon fill="#87BFD1" fill-opacity="0.3804" points="174.05,163.756 139.557,93.844 214.5,97.496 			"/>
			<polygon fill="#87BFD1" fill-opacity="0.3804" points="249.775,145.532 189.591,98.374 258.6,67.357 			"/>
			<polygon fill="#87BFD1" fill-opacity="0.3804" points="312.695,76.655 268.148,130.565 245.897,63.089 			"/>
			<polygon fill="#82CA9C" fill-opacity="0.3804" points="335.307,158 405.298,95.444 318.747,63.016 			"/>
			<polygon fill="#82CA9C" fill-opacity="0.3804" points="340.778,151.118 431.71,176.153 407.275,80.899 			"/>
			<polygon fill="#03A750" fill-opacity="0.3804" points="350.149,180.523 346.971,258.838 395.102,216.953 			"/>
			<polygon fill="#87BFD1" fill-opacity="0.3804" points="255.43,162.679 338.113,185.345 315.447,98.901 			"/>
			<polygon fill="#87BFD1" fill-opacity="0.3804" points="342.869,170.348 289.001,256.72 244.674,164.59 			"/>
			<polygon fill="#87BFD1" fill-opacity="0.3804" points="303.218,269.661 300.334,226.117 265.838,250.488 			"/>
			<polygon fill="#87BFD1" fill-opacity="0.3804" points="306.857,264.376 279.423,293.597 269.066,254.061 			"/>
			<polygon fill="#FDC789" fill-opacity="0.3804" points="359.164,76.375 378.368,79.413 366.25,95.392 			"/>
			<polygon fill="#FDC789" fill-opacity="0.3804" points="373.706,78.64 393.935,89.046 375.274,102.256 			"/>
			<polygon fill="#FDC789" fill-opacity="0.3804" points="392.022,86.828 392.04,105.974 407.903,96.42 			"/>
			<polygon fill="#FDC789" fill-opacity="0.3804" points="384.88,162.66 428.867,162.963 406.569,202.79 			"/>
			<polygon fill="#FDC789" fill-opacity="0.3804" points="376.788,231.549 414.279,195.006 365.356,179.183 			"/>
		</g>
	</g>
	<g>
	</g>
	<g>
	</g>
	<g>
	</g>
	<g>
	</g>
	<g>
	</g>
	<g>
	</g>
</g>
</svg>
