<?xml version="1.0" encoding="utf-8"?>
<!-- Generator: Adobe Illustrator 16.0.0, SVG Export Plug-In . SVG Version: 6.00 Build 0)  -->
<!DOCTYPE svg PUBLIC "-//W3C//DTD SVG 1.1//EN" "http://www.w3.org/Graphics/SVG/1.1/DTD/svg11.dtd">
<svg version="1.1" id="Layer_1" xmlns="http://www.w3.org/2000/svg" xmlns:xlink="http://www.w3.org/1999/xlink" x="0px" y="0px"
	 width="16px" height="16px" viewBox="0 0 16 16" enable-background="new 0 0 16 16" xml:space="preserve">
<g id="Layer_1_1_">
	<path d="M15.525,15.177c-0.319,0.396-0.802,0.626-1.312,0.626H1.684c-0.51,0-0.992-0.23-1.312-0.626
		c-0.32-0.396-0.444-0.916-0.337-1.414c0.547-2.545,2.292-4.611,4.559-5.654c0.922,0.735,2.087,1.177,3.355,1.177
		c1.271,0,2.438-0.444,3.361-1.181c1.793,0.819,3.265,2.282,4.078,4.171c0.206,0.478,0.366,0.978,0.475,1.487
		C15.97,14.261,15.846,14.781,15.525,15.177z M7.949,0.18c-2.049,0-3.71,1.661-3.71,3.71S5.9,7.6,7.949,7.6
		c2.049,0,3.71-1.661,3.71-3.71S9.998,0.18,7.949,0.18"/>
</g>
</svg>
