<?xml version="1.0" encoding="utf-8"?>
<!-- Generator: Adobe Illustrator 16.0.0, SVG Export Plug-In . SVG Version: 6.00 Build 0)  -->
<!DOCTYPE svg PUBLIC "-//W3C//DTD SVG 1.0//EN" "http://www.w3.org/TR/2001/REC-SVG-20010904/DTD/svg10.dtd">
<svg version="1.0" xmlns="http://www.w3.org/2000/svg" xmlns:xlink="http://www.w3.org/1999/xlink" x="0px" y="0px"
	 width="12.765px" height="16px" viewBox="0 0 12.765 16" enable-background="new 0 0 12.765 16" xml:space="preserve">
<g id="Layer_3">
	<polygon fill="#FFFFFF" points="12.521,3.729 12.552,16 0.562,16 0.541,0 8.972,0 	"/>
</g>
<g id="Layer_1">
	<g>
		<g>
			<path fill="#8967AC" d="M9.894,6.141H9.239c-0.088,0-0.175,0.043-0.24,0.109L8.388,6.86V6.096c0-0.195-0.152-0.348-0.35-0.348
				H7.624c0.459-0.262,0.764-0.742,0.764-1.309c0-0.829-0.676-1.483-1.505-1.483c-0.654,0-1.222,0.436-1.418,1.024
				C5.269,3.392,4.701,2.956,4.047,2.956c-0.829,0-1.483,0.675-1.483,1.483c0,0.566,0.306,1.047,0.764,1.309H2.891
				c-0.196,0-0.349,0.152-0.349,0.348v3.208c0,0.196,0.152,0.349,0.349,0.349h5.126c0.197,0,0.35-0.152,0.35-0.349V8.54l0.611,0.611
				c0.065,0.064,0.152,0.109,0.24,0.109h0.654c0.196,0,0.349-0.153,0.349-0.351V6.511C10.243,6.293,10.09,6.141,9.894,6.141z
				 M6.904,3.631c0.437,0,0.808,0.35,0.808,0.809c0,0.436-0.35,0.807-0.808,0.807c-0.436,0-0.806-0.35-0.806-0.807
				C6.099,4.003,6.469,3.631,6.904,3.631z M5.487,4.896c0.108,0.371,0.371,0.655,0.697,0.852H4.789
				C5.116,5.574,5.356,5.268,5.487,4.896z M3.262,4.439c0-0.437,0.349-0.809,0.808-0.809c0.436,0,0.807,0.35,0.807,0.809
				c0,0.436-0.35,0.807-0.807,0.807C3.632,5.246,3.262,4.875,3.262,4.439z M7.69,8.954H3.262V6.445H7.69V8.954z M9.544,8.54H9.37
				L8.519,7.689L9.37,6.839h0.174V8.54z"/>
		</g>
	</g>
	<g>
		<g>
			<g>
				<path fill="#8967AC" d="M12.676,3.503L9.244,0.071c-0.018-0.019-0.053-0.035-0.07-0.054C9.156,0.018,9.156,0,9.139,0H9.12
					c0,0,0,0-0.018,0c0,0,0,0-0.019,0C9.066,0,9.049,0,9.031,0H0.285C0.125,0,0,0.125,0,0.285v15.43C0,15.876,0.125,16,0.285,16
					H12.48c0.16,0,0.284-0.124,0.284-0.285V3.698C12.765,3.627,12.729,3.556,12.676,3.503z M9.315,0.942l2.472,2.472H9.315V0.942z
					 M12.195,15.413H0.569V0.551h8.195v3.164C8.765,3.875,8.889,4,9.049,4h3.164v11.413H12.195z"/>
			</g>
		</g>
	</g>
</g>
<g id="Layer_2">
	<g>
		<path d="M1.59,11.341h0.625l0.929,2.729l0.922-2.729h0.622v3.228H4.27v-1.905c0-0.065,0.002-0.175,0.004-0.327
			c0.004-0.152,0.006-0.315,0.006-0.49l-0.922,2.723H2.924l-0.93-2.723v0.1c0,0.078,0.002,0.199,0.006,0.361
			c0.004,0.161,0.006,0.28,0.006,0.356v1.905H1.59V11.341z"/>
		<path d="M8.008,11.802c0.213,0.286,0.32,0.651,0.32,1.097c0,0.482-0.123,0.883-0.367,1.202c-0.287,0.375-0.696,0.562-1.229,0.562
			c-0.496,0-0.887-0.164-1.171-0.492c-0.253-0.316-0.38-0.717-0.38-1.2c0-0.437,0.108-0.81,0.325-1.12
			c0.278-0.398,0.69-0.598,1.235-0.598C7.312,11.253,7.733,11.436,8.008,11.802z M7.621,13.859c0.173-0.276,0.259-0.594,0.259-0.953
			c0-0.38-0.099-0.686-0.298-0.917c-0.198-0.231-0.47-0.348-0.814-0.348c-0.334,0-0.605,0.114-0.816,0.344s-0.316,0.568-0.316,1.016
			c0,0.357,0.09,0.659,0.271,0.904c0.18,0.246,0.474,0.368,0.879,0.368C7.171,14.273,7.449,14.136,7.621,13.859z"/>
		<path d="M9.105,11.341l0.927,2.749l0.917-2.749h0.489l-1.178,3.228H9.797l-1.176-3.228H9.105z"/>
	</g>
</g>
<g id="Layer_4">
</g>
</svg>
