<?xml version="1.0" encoding="utf-8"?>
<!-- Generator: Adobe Illustrator 16.0.0, SVG Export Plug-In . SVG Version: 6.00 Build 0)  -->
<!DOCTYPE svg PUBLIC "-//W3C//DTD SVG 1.0//EN" "http://www.w3.org/TR/2001/REC-SVG-20010904/DTD/svg10.dtd">
<svg version="1.0" xmlns="http://www.w3.org/2000/svg" xmlns:xlink="http://www.w3.org/1999/xlink" x="0px" y="0px"
	 width="12.765px" height="16px" viewBox="0 0 12.765 16" enable-background="new 0 0 12.765 16" xml:space="preserve">
<g id="Layer_3">
	<polygon fill="#FFFFFF" points="12.521,3.729 12.552,16 0.562,16 0.541,0 8.972,0 	"/>
</g>
<g id="Layer_1">
	<g>
		<g>
			<g>
				<g>
					<g>
						<path fill="#009245" d="M12.676,3.52L9.244,0.088C9.191,0.035,9.12,0,9.032,0H0.284C0.124,0,0,0.123,0,0.283v15.433
							C0,15.875,0.124,16,0.284,16h12.195c0.16,0,0.285-0.125,0.285-0.284V3.714C12.765,3.643,12.729,3.572,12.676,3.52z
							 M9.316,0.959l2.471,2.472H9.316V0.959z M12.195,15.433H0.569V0.569h8.178v3.162c0,0.162,0.125,0.286,0.285,0.286h3.163
							V15.433z"/>
					</g>
				</g>
			</g>
		</g>
		<g>
			<g>
				<path fill="#009245" d="M9.689,4.521H3.057c-0.182,0-0.324,0.126-0.324,0.289v4.98c0,0.162,0.143,0.29,0.324,0.29h6.652
					c0.182,0,0.322-0.128,0.322-0.29v-4.98C10.012,4.647,9.871,4.521,9.689,4.521z M6.049,9.501H3.361V8.415h2.688V9.501z
					 M6.049,7.854H3.361V6.767h2.688V7.854z M6.049,6.188H3.361V5.101h2.688V6.188z M9.385,9.501H6.695V8.415h2.689V9.501z
					 M9.385,7.854H6.695V6.767h2.689V7.854z M9.385,6.188H6.695V5.101h2.689V6.188z"/>
			</g>
		</g>
	</g>
</g>
<g id="Layer_2">
	<g>
		<path d="M4.508,11.802c0.214,0.286,0.32,0.651,0.32,1.097c0,0.482-0.122,0.883-0.367,1.202c-0.287,0.375-0.695,0.562-1.228,0.562
			c-0.497,0-0.888-0.164-1.171-0.492c-0.254-0.316-0.381-0.717-0.381-1.2c0-0.437,0.109-0.81,0.326-1.12
			c0.277-0.398,0.689-0.598,1.234-0.598C3.812,11.253,4.234,11.436,4.508,11.802z M4.122,13.859
			c0.173-0.276,0.259-0.594,0.259-0.953c0-0.38-0.1-0.686-0.299-0.917c-0.197-0.231-0.469-0.348-0.813-0.348
			c-0.334,0-0.606,0.114-0.817,0.344s-0.316,0.568-0.316,1.016c0,0.357,0.09,0.659,0.271,0.904c0.181,0.246,0.475,0.368,0.88,0.368
			C3.672,14.273,3.95,14.136,4.122,13.859z"/>
		<path d="M5.369,11.341h1.29c0.438,0,0.777,0.157,1.019,0.472c0.216,0.285,0.324,0.648,0.324,1.093
			c0,0.343-0.064,0.652-0.191,0.929c-0.225,0.49-0.609,0.734-1.156,0.734H5.369V11.341z M6.573,14.195
			c0.145,0,0.264-0.016,0.356-0.047c0.166-0.057,0.303-0.167,0.408-0.329c0.085-0.131,0.146-0.298,0.183-0.501
			c0.021-0.122,0.032-0.234,0.032-0.339c0-0.399-0.078-0.71-0.232-0.932c-0.156-0.221-0.406-0.331-0.752-0.331H5.811v2.479H6.573z"
			/>
		<path d="M8.885,13.527c0.01,0.183,0.051,0.331,0.125,0.445c0.14,0.214,0.386,0.321,0.738,0.321c0.158,0,0.303-0.023,0.432-0.07
			c0.252-0.091,0.377-0.254,0.377-0.488c0-0.176-0.053-0.301-0.159-0.376c-0.108-0.072-0.276-0.137-0.507-0.19L9.467,13.07
			c-0.276-0.064-0.473-0.136-0.588-0.214c-0.198-0.135-0.297-0.336-0.297-0.604c0-0.289,0.098-0.527,0.293-0.714
			c0.195-0.186,0.471-0.278,0.829-0.278c0.329,0,0.608,0.081,0.839,0.244c0.23,0.164,0.346,0.425,0.346,0.783h-0.41
			c-0.021-0.172-0.066-0.305-0.136-0.397c-0.128-0.168-0.345-0.253-0.651-0.253c-0.246,0-0.424,0.055-0.532,0.163
			s-0.163,0.234-0.163,0.378c0,0.158,0.064,0.274,0.192,0.348c0.083,0.047,0.272,0.105,0.568,0.176l0.438,0.103
			c0.211,0.05,0.375,0.118,0.49,0.204c0.198,0.151,0.297,0.37,0.297,0.657c0,0.357-0.126,0.613-0.379,0.767
			c-0.254,0.154-0.549,0.231-0.885,0.231c-0.391,0-0.697-0.103-0.919-0.308c-0.222-0.204-0.331-0.479-0.325-0.828H8.885z"/>
	</g>
</g>
<g id="Layer_4">
</g>
</svg>
