<?xml version="1.0" encoding="utf-8"?>
<!-- Generator: Adobe Illustrator 16.0.0, SVG Export Plug-In . SVG Version: 6.00 Build 0)  -->
<!DOCTYPE svg PUBLIC "-//W3C//DTD SVG 1.0//EN" "http://www.w3.org/TR/2001/REC-SVG-20010904/DTD/svg10.dtd">
<svg version="1.0" xmlns="http://www.w3.org/2000/svg" xmlns:xlink="http://www.w3.org/1999/xlink" x="0px" y="0px"
	 width="12.765px" height="16px" viewBox="0 0 12.765 16" enable-background="new 0 0 12.765 16" xml:space="preserve">
<g id="Layer_3">
	<polygon fill="#FFFFFF" points="12.521,3.729 12.552,16 0.562,16 0.541,0 8.972,0 	"/>
</g>
<g id="Layer_1">
	<g>
		<g>
			<g>
				<g>
					<g>
						<path fill="#ED1C24" d="M12.676,3.52L9.244,0.088C9.191,0.035,9.12,0,9.032,0H0.285C0.124,0,0,0.123,0,0.283v15.433
							C0,15.875,0.124,16,0.285,16H12.48c0.16,0,0.285-0.125,0.285-0.284V3.714C12.765,3.643,12.729,3.572,12.676,3.52z
							 M9.316,0.959l2.471,2.472H9.316V0.959z M12.195,15.433H0.569V0.569h8.178v3.162c0,0.162,0.125,0.286,0.285,0.286h3.164
							V15.433z"/>
					</g>
				</g>
			</g>
		</g>
		<g>
			<g>
				<path fill="#ED1C24" d="M9.639,6.75C9.493,6.479,9.202,6.355,8.703,6.355c-0.25,0-0.541,0.021-0.853,0.083
					c-0.458-0.499-0.936-1.206-1.29-1.913c0.375-1.561,0.104-1.914,0-2.039C6.436,2.341,6.27,2.258,6.083,2.258
					c-0.083,0-0.146,0.021-0.229,0.042C5.646,2.361,5.5,2.508,5.417,2.716C5.25,3.11,5.354,3.755,5.75,4.608
					C5.521,5.502,5.146,6.542,4.751,7.416C3.67,7.915,3.129,8.394,3.067,8.913c-0.021,0.167,0,0.479,0.374,0.77
					C3.545,9.766,3.67,9.808,3.794,9.808c0.291,0,0.583-0.208,0.894-0.645c0.208-0.291,0.416-0.666,0.645-1.145
					C6.02,7.728,6.852,7.457,7.58,7.291c0.437,0.416,0.853,0.604,1.207,0.604c0.291,0,0.562-0.146,0.728-0.396
					C9.764,7.166,9.722,6.917,9.639,6.75z M3.794,9.184C3.67,9.08,3.67,9.018,3.67,8.997c0.021-0.146,0.25-0.416,0.832-0.749
					C4.065,9.059,3.836,9.163,3.794,9.184z M5.979,2.965C5.999,2.924,6.02,2.902,6.041,2.902c0.021,0,0.021,0,0.021,0
					c0.042,0.062,0.083,0.312,0,0.895C5.958,3.443,5.895,3.132,5.979,2.965z M5.479,7.291C5.75,6.626,6.02,5.897,6.207,5.211
					c0.312,0.562,0.687,1.082,1.04,1.519C6.665,6.875,6.041,7.062,5.479,7.291z M9.015,7.146C8.932,7.271,8.849,7.271,8.786,7.271
					C8.641,7.271,8.433,7.166,8.225,7c0.187-0.021,0.354-0.042,0.479-0.042c0.25,0,0.333,0.042,0.374,0.062
					C9.057,7.062,9.057,7.104,9.015,7.146z"/>
			</g>
		</g>
	</g>
</g>
<g id="Layer_2">
	<g>
		<path d="M2.267,11.341h1.444c0.285,0,0.516,0.081,0.691,0.242c0.176,0.162,0.264,0.39,0.264,0.683
			c0,0.252-0.079,0.472-0.235,0.658s-0.396,0.28-0.719,0.28H2.704v1.364H2.267V11.341z M3.963,11.784
			c-0.096-0.045-0.228-0.067-0.395-0.067H2.704v1.118h0.864c0.195,0,0.353-0.042,0.475-0.126c0.122-0.083,0.182-0.23,0.182-0.441
			C4.225,12.03,4.137,11.869,3.963,11.784z"/>
		<path d="M5.246,11.341h1.291c0.438,0,0.777,0.157,1.019,0.472c0.215,0.285,0.323,0.648,0.323,1.093
			c0,0.343-0.064,0.652-0.191,0.929c-0.224,0.49-0.609,0.734-1.156,0.734H5.246V11.341z M6.451,14.195
			c0.145,0,0.264-0.016,0.356-0.047c0.167-0.057,0.302-0.167,0.408-0.329c0.085-0.131,0.146-0.298,0.183-0.501
			c0.021-0.122,0.033-0.234,0.033-0.339c0-0.399-0.078-0.71-0.233-0.932c-0.155-0.221-0.406-0.331-0.751-0.331H5.688v2.479H6.451z"
			/>
		<path d="M8.518,11.341h2.239v0.396H8.955v0.979h1.584v0.385H8.955v1.468H8.518V11.341z"/>
	</g>
</g>
<g id="Layer_4">
</g>
</svg>
