<?xml version="1.0" encoding="utf-8"?>
<!-- Generator: Adobe Illustrator 16.0.0, SVG Export Plug-In . SVG Version: 6.00 Build 0)  -->
<!DOCTYPE svg PUBLIC "-//W3C//DTD SVG 1.0//EN" "http://www.w3.org/TR/2001/REC-SVG-20010904/DTD/svg10.dtd">
<svg version="1.0" xmlns="http://www.w3.org/2000/svg" xmlns:xlink="http://www.w3.org/1999/xlink" x="0px" y="0px"
	 width="12.765px" height="16px" viewBox="0 0 12.765 16" enable-background="new 0 0 12.765 16" xml:space="preserve">
<g id="Layer_3">
	<polygon fill="#FFFFFF" points="12.521,3.729 12.552,16 0.562,16 0.541,0 8.972,0 	"/>
</g>
<g id="Layer_1">
	<g>
		<g>
			<g>
				<g>
					<g>
						<g>
							<path fill="#F58235" d="M12.676,3.52L9.244,0.088C9.191,0.035,9.12,0,9.032,0H0.284C0.124,0,0,0.123,0,0.283v15.433
								C0,15.875,0.124,16,0.284,16h12.195c0.16,0,0.285-0.125,0.285-0.284V3.714C12.765,3.643,12.729,3.572,12.676,3.52z
								 M9.316,0.959l2.471,2.472H9.316V0.959z M12.195,15.433H0.569V0.569h8.178v3.162c0,0.162,0.125,0.286,0.285,0.286h3.163
								V15.433z"/>
						</g>
					</g>
				</g>
			</g>
			<g>
				<g>
					<path fill="#F58235" d="M9.298,10.271H8.232c-0.16,0-0.285-0.125-0.285-0.285V5.098c0-0.16,0.125-0.284,0.285-0.284h1.066
						c0.16,0,0.284,0.124,0.284,0.284v4.889C9.583,10.146,9.458,10.271,9.298,10.271z M8.516,9.702h0.516v-4.32H8.516V9.702z"/>
				</g>
				<g>
					<path fill="#F58235" d="M6.916,10.271H5.849c-0.16,0-0.284-0.125-0.284-0.285V6.342c0-0.159,0.124-0.284,0.284-0.284h1.066
						c0.16,0,0.285,0.125,0.285,0.284v3.663C7.201,10.146,7.076,10.271,6.916,10.271z M6.133,9.702h0.516V6.627H6.133V9.702z"/>
				</g>
				<g>
					<path fill="#F58235" d="M4.534,10.271H3.467c-0.16,0-0.285-0.125-0.285-0.285V7.551c0-0.159,0.125-0.284,0.285-0.284h1.066
						c0.16,0,0.284,0.125,0.284,0.284v2.454C4.818,10.146,4.694,10.271,4.534,10.271z M3.751,9.702H4.25V7.836H3.734v1.866H3.751z"
						/>
				</g>
			</g>
		</g>
	</g>
</g>
<g id="Layer_2">
	<g>
		<path d="M2.431,11.341h1.444c0.285,0,0.516,0.081,0.691,0.242c0.176,0.162,0.264,0.39,0.264,0.683
			c0,0.252-0.079,0.472-0.235,0.658s-0.396,0.28-0.719,0.28H2.868v1.364H2.431V11.341z M4.126,11.784
			c-0.096-0.045-0.228-0.067-0.395-0.067H2.868v1.118h0.864c0.195,0,0.353-0.042,0.475-0.126c0.122-0.083,0.182-0.23,0.182-0.441
			C4.388,12.03,4.301,11.869,4.126,11.784z"/>
		<path d="M5.432,11.341h1.444c0.285,0,0.516,0.081,0.691,0.242c0.176,0.162,0.264,0.39,0.264,0.683
			c0,0.252-0.079,0.472-0.235,0.658s-0.396,0.28-0.719,0.28H5.869v1.364H5.432V11.341z M7.128,11.784
			c-0.096-0.045-0.228-0.067-0.395-0.067H5.869v1.118h0.864c0.195,0,0.353-0.042,0.475-0.126c0.122-0.083,0.182-0.23,0.182-0.441
			C7.39,12.03,7.302,11.869,7.128,11.784z"/>
		<path d="M10.738,11.341v0.384H9.65v2.844H9.209v-2.844H8.121v-0.384H10.738z"/>
	</g>
</g>
<g id="Layer_4">
</g>
</svg>
