<?xml version="1.0" encoding="utf-8"?>
<!-- Generator: Adobe Illustrator 16.0.0, SVG Export Plug-In . SVG Version: 6.00 Build 0)  -->
<!DOCTYPE svg PUBLIC "-//W3C//DTD SVG 1.1//EN" "http://www.w3.org/Graphics/SVG/1.1/DTD/svg11.dtd">
<svg version="1.1"
	 id="Layer_1" xmlns:svg="http://www.w3.org/2000/svg" xmlns:rdf="http://www.w3.org/1999/02/22-rdf-syntax-ns#" xmlns:cc="http://creativecommons.org/ns#" xmlns:dc="http://purl.org/dc/elements/1.1/"
	 xmlns="http://www.w3.org/2000/svg" xmlns:xlink="http://www.w3.org/1999/xlink" x="0px" y="0px" width="28px" height="16px"
	 viewBox="0 0 28 16" enable-background="new 0 0 28 16" xml:space="preserve">
<path stroke="#000000" stroke-width="0.75" stroke-miterlimit="10" d="M15.374,7.952c-0.017-1.821-0.703-3.641-2.108-5.031
	c-1.357-1.357-3.163-2.108-5.079-2.108s-3.721,0.75-5.079,2.108C1.719,4.311,1.017,6.131,1,7.952C1,7.968,1,7.984,1,8
	s0,0.032,0,0.047c0.016,1.82,0.703,3.643,2.108,5.031c1.357,1.357,3.163,2.109,5.079,2.109s3.721-0.752,5.079-2.109
	c1.39-1.389,2.091-3.211,2.108-5.031c0-0.015,0-0.031,0-0.047S15.374,7.968,15.374,7.952z M12.962,12.232
	c-0.431-0.385-0.895-0.703-1.39-0.976c0.224-0.86,0.367-1.836,0.399-2.858h2.585C14.479,9.773,13.937,11.131,12.962,12.232z
	 M1.815,8.399h2.587c0.033,1.039,0.176,1.998,0.399,2.858c-0.495,0.257-0.958,0.591-1.39,0.976
	C2.438,11.131,1.895,9.773,1.815,8.399z M3.412,3.768c0.431,0.383,0.895,0.703,1.39,0.974c-0.24,0.862-0.367,1.82-0.4,2.859H1.815
	C1.895,6.228,2.438,4.87,3.412,3.768z M7.788,4.774C7.101,4.726,6.415,4.583,5.759,4.311c0.479-1.406,1.198-2.396,2.029-2.635V4.774
	z M7.788,5.573v2.028H5.201c0.032-0.895,0.144-1.757,0.335-2.524C6.255,5.366,7.021,5.524,7.788,5.573z M7.788,8.399v2.028
	c-0.767,0.048-1.533,0.207-2.252,0.494c-0.191-0.767-0.303-1.629-0.335-2.522H7.788z M7.788,11.225v3.101
	c-0.831-0.24-1.549-1.246-2.029-2.636C6.415,11.418,7.101,11.273,7.788,11.225z M8.586,11.225c0.687,0.049,1.374,0.193,2.029,0.465
	c-0.479,1.404-1.198,2.396-2.029,2.636V11.225z M8.586,10.428V8.399h2.587c-0.032,0.894-0.144,1.757-0.335,2.522
	C10.119,10.635,9.353,10.475,8.586,10.428z M8.586,7.601V5.573c0.767-0.048,1.533-0.207,2.252-0.496
	c0.191,0.767,0.304,1.629,0.335,2.524H8.586z M8.586,4.774V1.676c0.831,0.24,1.549,1.246,2.029,2.635
	C9.959,4.583,9.273,4.726,8.586,4.774z M10.263,1.963c0.783,0.271,1.501,0.687,2.14,1.246c-0.336,0.288-0.687,0.542-1.054,0.75
	C11.062,3.161,10.694,2.474,10.263,1.963z M5.041,3.959c-0.368-0.208-0.734-0.462-1.054-0.75c0.639-0.559,1.358-0.975,2.14-1.246
	C5.68,2.474,5.312,3.161,5.041,3.959z M5.041,12.041c0.287,0.799,0.655,1.469,1.07,1.996c-0.783-0.271-1.501-0.688-2.14-1.246
	C4.307,12.504,4.658,12.248,5.041,12.041z M11.333,12.041c0.368,0.207,0.734,0.463,1.054,0.75c-0.639,0.559-1.358,0.975-2.14,1.246
	C10.694,13.525,11.062,12.84,11.333,12.041z M11.972,7.601c-0.033-1.039-0.16-1.997-0.399-2.859c0.495-0.256,0.958-0.591,1.39-0.974
	c0.974,1.102,1.5,2.459,1.596,3.833H11.972z"/>
</svg>
