<?xml version="1.0" encoding="utf-8"?>
<!-- Generator: Adobe Illustrator 16.0.0, SVG Export Plug-In . SVG Version: 6.00 Build 0)  -->
<!DOCTYPE svg PUBLIC "-//W3C//DTD SVG 1.1//EN" "http://www.w3.org/Graphics/SVG/1.1/DTD/svg11.dtd">
<svg version="1.1" xmlns="http://www.w3.org/2000/svg" xmlns:xlink="http://www.w3.org/1999/xlink" x="0px" y="0px" width="114px"
	 height="24px" viewBox="0 0 114 24" enable-background="new 0 0 114 24" xml:space="preserve">
<g id="logo">
</g>
<g id="triangles">
	<g>
		<path fill-rule="evenodd" clip-rule="evenodd" fill="#333333" d="M17.414,10.526c0.029-0.031,0.057-0.062,0.086-0.092
			c0.059,0.059,0.043,0.14,0.061,0.208c0.031,0.126,0.059,0.254,0.076,0.382c0.014,0.09,0.045,0.182,0.031,0.273
			c-0.01,0.059,0.029,0.103,0.029,0.157c0,0.053-0.025,0.111,0.023,0.159c0.006,0.006,0.002,0.025,0,0.038
			c-0.02,0.09,0.031,0.172,0.027,0.261c-0.004,0.091-0.016,0.185,0.002,0.271c0.045,0.226,0.016,0.451,0.021,0.676
			c0.006,0.224,0,0.449,0.004,0.673c0,0.064-0.039,0.119-0.029,0.184c0.008,0.064,0,0.131,0,0.195c0,0.02,0,0.041,0,0.064
			c0.033,0.002,0.025-0.02,0.027-0.031c0-0.021,0-0.043,0-0.064c-0.002-0.021,0.025-0.031,0.023-0.041
			c-0.014-0.074,0.025-0.139,0.031-0.209c0.004-0.068,0.023-0.135,0.039-0.203c0.016-0.059,0.027-0.119,0.035-0.18
			c0.004-0.029-0.006-0.059,0.023-0.082c0.01-0.01,0.01-0.047,0.002-0.062c-0.043-0.076-0.025-0.158-0.023-0.236
			c0.004-0.069-0.037-0.127-0.029-0.197c0.008-0.067,0.01-0.139,0-0.206c-0.016-0.095-0.043-0.188-0.068-0.29
			c0.02-0.036,0.049-0.078,0.045-0.136c-0.004-0.056-0.006-0.112,0-0.168c0.006-0.069-0.037-0.128-0.029-0.197
			c0.008-0.063,0.016-0.134-0.002-0.192c-0.02-0.067-0.014-0.133-0.023-0.198c-0.025-0.181-0.039-0.367-0.105-0.538
			c-0.047-0.118-0.078-0.244-0.15-0.352c-0.004-0.006-0.002-0.017-0.002-0.024c0.01-0.014,0.021-0.014,0.041-0.013
			c0.096,0.208,0.195,0.415,0.232,0.646c0.035-0.294-0.012-0.574-0.141-0.842c0.01-0.018,0.045-0.025,0.008-0.076
			c0.031,0.02,0.039,0.022,0.043,0.027c0.031,0.047,0.068,0.094,0.074,0.15c0.004,0.042,0.035,0.055,0.051,0.077
			c0.016,0.065-0.01,0.126,0.025,0.19c0.027,0.051-0.016,0.123,0.027,0.184c0.016,0.023,0.002,0.067,0.002,0.102
			c-0.006,0.247,0.045,0.493,0.025,0.74c0.049,0.119,0.006,0.246,0.029,0.364c0.033,0.17,0.012,0.34,0.025,0.508
			c0.008,0.079,0.037,0.156,0.062,0.232c0.004,0.016,0.014,0.029,0.014,0.047c0,0.134,0.016,0.271-0.006,0.401
			c-0.018,0.109-0.018,0.217-0.02,0.326c0,0.062-0.01,0.123,0.021,0.186c0.018,0.037,0.02,0.104,0,0.139
			c-0.031,0.051-0.02,0.098-0.021,0.146c-0.004,0.064,0.018,0.139-0.006,0.191c-0.031,0.07,0.004,0.143-0.025,0.197
			c-0.031,0.059-0.004,0.123-0.045,0.178c-0.018,0.025-0.002,0.074-0.002,0.113c-0.018,0.023-0.043,0.045-0.051,0.07
			c-0.055,0.184-0.125,0.363-0.188,0.545c-0.041,0.111-0.064,0.23-0.115,0.34c-0.021,0.043-0.006,0.088-0.023,0.133
			c-0.055,0.152-0.137,0.289-0.205,0.434c-0.102,0.211-0.219,0.41-0.344,0.609c-0.074,0.117-0.131,0.248-0.215,0.363
			c0.018,0.064-0.045,0.092-0.066,0.141c-0.02,0.043-0.027,0.092-0.053,0.133c-0.014,0.021-0.01,0.051-0.035,0.062
			c-0.117,0.055-0.119,0.184-0.182,0.273c-0.008,0.014,0.008,0.037-0.01,0.047c-0.021,0.014-0.012,0.041-0.023,0.053
			c-0.049,0.014-0.057-0.033-0.09-0.051c-0.033,0.004-0.059,0.047-0.102,0.023c-0.002-0.006-0.008-0.012-0.008-0.02
			c-0.002-0.021-0.01-0.053,0-0.062c0.031-0.029,0.014-0.066,0.027-0.094c0.016-0.033,0.006-0.055-0.002-0.084
			c-0.018-0.062,0.023-0.115,0.055-0.156c0.076-0.102,0.121-0.221,0.201-0.322c0.068-0.084,0.129-0.178,0.197-0.266
			c0.094-0.123,0.16-0.26,0.217-0.402c0.008-0.025,0.021-0.057,0.033-0.076c0.139-0.254,0.234-0.525,0.32-0.799
			c0.025-0.08,0.051-0.162,0.068-0.246c0.016-0.076,0.057-0.154,0.066-0.229c0.018-0.109,0.059-0.215,0.057-0.328
			c0-0.039,0.027-0.066,0.031-0.105c0.008-0.061,0.008-0.129,0.027-0.182c0.023-0.061,0.016-0.115,0.02-0.172
			c0.002-0.051,0.039-0.09,0.029-0.145c-0.006-0.043-0.014-0.092,0.021-0.135c0.014-0.016,0.002-0.049,0.002-0.074
			c0-0.113-0.016-0.229,0.004-0.336c0.035-0.18,0.018-0.357,0.021-0.535c0.004-0.182,0-0.362,0.002-0.544
			c0-0.088-0.037-0.171-0.029-0.262c0.01-0.085,0.018-0.176-0.002-0.258c-0.02-0.088-0.006-0.178-0.025-0.262
			c-0.016-0.07-0.008-0.143-0.025-0.209c-0.02-0.07-0.008-0.144-0.027-0.209c-0.016-0.059-0.016-0.114-0.021-0.172
			c-0.006-0.053-0.039-0.102-0.025-0.157c-0.057-0.041,0.006-0.12-0.051-0.161C17.453,10.676,17.389,10.605,17.414,10.526z
			 M17.844,14.443c-0.033,0.023-0.008,0.062-0.02,0.09c-0.064,0.143-0.104,0.293-0.15,0.441c-0.033,0.107-0.059,0.217-0.107,0.318
			c-0.006,0.016-0.01,0.041,0.021,0.07c-0.006-0.039,0.021-0.057,0.029-0.082c0.043-0.158,0.1-0.311,0.154-0.465
			c0.041-0.119,0.113-0.234,0.08-0.369c0.012,0.002,0.02-0.004,0.021-0.016c0-0.002-0.006-0.008-0.008-0.008
			C17.854,14.428,17.848,14.436,17.844,14.443z M17.912,13.545c0.004,0.066-0.029,0.123-0.033,0.184
			c-0.006,0.066-0.047,0.127-0.027,0.195c-0.055,0.047,0.002,0.125-0.051,0.172c0.014,0.068-0.033,0.129-0.029,0.195
			c0.004,0.061-0.055,0.115-0.01,0.188C17.863,14.17,17.955,13.869,17.912,13.545z M17.734,14.141c0.02-0.033,0.016-0.057,0-0.086
			C17.717,14.086,17.717,14.109,17.734,14.141z"/>
		<g>
			<polygon fill="#448CCB" fill-opacity="0.2706" points="8.918,7.732 1.158,12.963 0.547,3.525 			"/>
			<polygon fill="#589A34" fill-opacity="0.3804" points="1.124,13.752 0.993,13.109 0.671,6.454 			"/>
			<polygon fill="#F78E56" fill-opacity="0.3804" points="0.569,5.507 4.038,1.587 10.475,2.51 			"/>
			<polygon fill="#F78E56" fill-opacity="0.3804" points="7.668,1.296 12.035,3.01 4.918,1.817 			"/>
			<polygon fill="#9F410E" fill-opacity="0.3804" points="10.893,2.248 10.134,1.838 10.16,2.834 			"/>
			<polygon fill="#9F410E" fill-opacity="0.3804" points="11.03,1.954 10.559,3.006 12.108,2.812 			"/>
			<polygon fill="#9F410E" fill-opacity="0.3804" points="11.63,2.403 10.208,3.022 10.35,1.463 			"/>
			<polygon fill="#A1410E" fill-opacity="0.3804" points="12.197,4.276 11.585,2.924 13.029,3.056 			"/>
			<polygon fill="#F8941D" fill-opacity="0.3804" points="8.088,1.085 8.844,3.286 10.349,1.527 			"/>
			<polygon fill="#FBAF5D" fill-opacity="0.3804" points="9.853,3.351 9.656,1.321 11.501,2.185 			"/>
			<polygon fill="#F78E56" fill-opacity="0.3804" points="12.137,3.064 3.323,4.992 11.478,2.132 			"/>
			<polygon fill="#983D08" fill-opacity="0.3765" points="12.568,4.271 13.336,2.856 11.73,2.899 			"/>
			<polygon fill="#F79056" fill-opacity="0.3804" points="11.767,3.979 11.314,3.411 11.058,4.105 			"/>
			<polygon fill="#F79056" fill-opacity="0.3804" points="10.826,4.874 10.337,4.274 11.164,4.147 			"/>
			<polygon fill="#F79056" fill-opacity="0.3804" points="9.703,5.154 9.949,5.43 10.002,5.034 			"/>
			<polygon fill="#F79056" fill-opacity="0.3804" points="10.246,5.14 10.465,4.541 9.828,4.649 			"/>
			<polygon fill="#FD8D52" fill-opacity="0.3686" points="9.618,5.788 9.268,5.233 9.932,5.197 			"/>
			<polygon fill="#197A30" fill-opacity="0.3804" points="12.35,3.963 19.252,7.44 15.334,13.082 			"/>
			<polygon fill="#88D5CD" fill-opacity="0.3804" points="12.122,3.762 9.885,15.676 15.545,12.399 			"/>
			<polygon fill="#F78E56" fill-opacity="0.3804" points="0.564,5.514 12.158,2.765 4.036,1.588 			"/>
			<polygon fill="#A0410D" fill-opacity="0.3804" points="2.97,2.571 1.565,3.301 2.917,4.206 			"/>
			<polygon fill="#A0410D" fill-opacity="0.3804" points="0.546,4.707 2.662,5.229 2.038,3.099 			"/>
			<polygon fill="#82CA9C" fill-opacity="0.3804" points="8.043,6.687 6.36,15.992 12.215,2.99 			"/>
			<polygon fill="#F78E56" fill-opacity="0.3804" points="6.713,17.854 3.647,22.268 3.406,20.092 			"/>
			<polygon fill="#82CA9C" fill-opacity="0.3804" points="4.894,19.148 10.265,15.762 12.043,3.371 			"/>
			<polygon fill="#67CC9A" fill-opacity="0.3804" points="0.825,12.843 7.937,7.123 4.094,21.641 			"/>
			<polygon fill="#67CCBF" fill-opacity="0.3804" points="1.134,13.01 12.119,3.268 0.596,5.475 			"/>
			<polygon fill="#FBAF5D" fill-opacity="0.3804" points="1.191,14.164 0.57,5.468 0,7.766 			"/>
			<polygon fill="#82CA9C" fill-opacity="0.3804" points="6.355,16.068 8.044,6.733 12.101,3.143 			"/>
			<polygon fill="#FDC689" fill-opacity="0.3804" points="10.471,4.827 10.817,4.771 10.594,4.489 			"/>
			<polygon fill="#FDC689" fill-opacity="0.3804" points="11.442,4.619 11.164,4.016 10.774,4.553 			"/>
			<polygon fill="#FDC689" fill-opacity="0.3804" points="12.25,4.523 11.512,3.426 10.952,4.619 			"/>
			<polygon fill="#FDC689" fill-opacity="0.3804" points="3.745,19.889 7.557,6.771 6.679,17.867 			"/>
			<polygon fill="#A1420F" fill-opacity="0.3804" points="13.607,2.974 12.661,2.884 13.063,3.751 			"/>
			<polygon fill="#82CA9C" fill-opacity="0.3804" points="12.241,2.917 13.77,5.678 15.369,2.963 			"/>
			<polygon fill="#FDC689" fill-opacity="0.3804" points="12.812,4.739 12.815,2.714 11.076,3.726 			"/>
			<polygon fill="#86BFD1" fill-opacity="0.3804" points="7.173,7.672 1.141,10.224 6.35,14.227 			"/>
			<polygon fill="#86BFD1" fill-opacity="0.3804" points="4.512,11.414 1.539,13.963 0.842,10.089 			"/>
			<polygon fill="#86BFD1" fill-opacity="0.3804" points="0.846,5.104 1.186,6.146 1.906,5.323 			"/>
			<polygon fill="#86BFD1" fill-opacity="0.3804" points="2.246,6.704 3.771,5.317 1.818,4.677 			"/>
			<polygon fill="#86BFD1" fill-opacity="0.3804" points="4.367,7.883 2.368,3.983 6.711,4.188 			"/>
			<polygon fill="#86BFD1" fill-opacity="0.3804" points="8.755,6.867 5.268,4.236 9.267,2.506 			"/>
			<polygon fill="#86BFD1" fill-opacity="0.3804" points="12.402,3.025 9.821,6.032 8.531,2.268 			"/>
			<polygon fill="#82CA9C" fill-opacity="0.3804" points="13.712,7.562 17.77,4.073 12.753,2.264 			"/>
			<polygon fill="#82CA9C" fill-opacity="0.3804" points="14.03,7.178 19.301,8.575 17.885,3.262 			"/>
			<polygon fill="#02A752" fill-opacity="0.3804" points="14.573,8.818 14.389,13.188 17.178,10.85 			"/>
			<polygon fill="#86BFD1" fill-opacity="0.3804" points="9.083,7.823 13.875,9.087 12.562,4.266 			"/>
			<polygon fill="#86BFD1" fill-opacity="0.3804" points="14.151,8.251 11.029,13.068 8.459,7.93 			"/>
			<polygon fill="#86BFD1" fill-opacity="0.3804" points="11.853,13.791 11.686,11.362 9.686,12.721 			"/>
			<polygon fill="#86BFD1" fill-opacity="0.3804" points="12.064,13.496 10.474,15.125 9.874,12.92 			"/>
			<polygon fill="#FDC689" fill-opacity="0.3804" points="15.096,3.009 16.209,3.179 15.506,4.07 			"/>
			<polygon fill="#FDC689" fill-opacity="0.3804" points="15.938,3.136 17.111,3.716 16.029,4.453 			"/>
			<polygon fill="#FDC689" fill-opacity="0.3804" points="17,3.592 17,4.66 17.92,4.127 			"/>
			<polygon fill="#FDC689" fill-opacity="0.3804" points="16.586,7.822 19.135,7.839 17.844,10.061 			"/>
			<polygon fill="#FDC689" fill-opacity="0.3804" points="16.117,11.665 18.289,9.626 15.455,8.744 			"/>
		</g>
	</g>
	<g>
		<g>
			<path fill="none" d="M26.928,18.355V4.594h4.904c3.691,0,5.775,2.996,5.775,6.911c0,3.896-2.084,6.851-5.775,6.851H26.928z
				 M28.178,17.037h3.654c3.01,0,4.525-2.355,4.525-5.532c0-3.176-1.516-5.593-4.525-5.593h-3.654V17.037z"/>
			<path fill="none" d="M48.809,18.355h-1.27v-1.598c-0.662,1.178-2.045,1.799-3.332,1.799c-2.518,0-4.527-1.938-4.527-4.895
				c0-2.956,2.01-4.833,4.527-4.833c1.287,0,2.67,0.559,3.332,1.738V9.028h1.27V18.355z M44.207,17.217
				c1.799,0,3.332-1.258,3.332-3.555s-1.742-3.496-3.332-3.496c-1.836,0-3.258,1.358-3.258,3.496
				C40.949,15.74,42.371,17.217,44.207,17.217z"/>
			<path fill="none" d="M52.311,18.355v-8.129h-1.592V9.028h1.592V5.533h1.268v3.496h1.875v1.198h-1.875v8.129H52.311z"/>
			<path fill="none" d="M65.732,18.355h-1.27v-1.598c-0.662,1.178-2.045,1.799-3.332,1.799c-2.518,0-4.525-1.938-4.525-4.895
				c0-2.956,2.008-4.833,4.525-4.833c1.287,0,2.67,0.559,3.332,1.738V9.028h1.27V18.355z M61.131,17.217
				c1.799,0,3.332-1.258,3.332-3.555s-1.742-3.496-3.332-3.496c-1.836,0-3.258,1.358-3.258,3.496
				C57.873,15.74,59.295,17.217,61.131,17.217z"/>
			<path fill="#231F20" d="M68.646,3.975h1.27v6.591c0.662-1.179,2.045-1.738,3.332-1.738c2.52,0,4.525,1.877,4.525,4.833
				c0,2.957-2.006,4.895-4.525,4.895c-1.287,0-2.67-0.621-3.332-1.799v1.598h-1.27V3.975z M73.248,10.167
				c-1.59,0-3.332,1.199-3.332,3.496s1.533,3.555,3.332,3.555c1.836,0,3.258-1.477,3.258-3.555
				C76.506,11.525,75.084,10.167,73.248,10.167z"/>
			<path fill="#231F20" d="M85.236,10.486c-0.416-0.22-0.965-0.32-1.287-0.32c-1.799,0-2.537,2.237-2.537,4.714v3.475h-1.27V9.028
				h1.27v2.117c0.436-1.598,1.25-2.317,2.537-2.317c0.605,0,1.268,0.2,1.439,0.359L85.236,10.486z"/>
			<path fill="#231F20" d="M95.566,18.355h-1.27v-1.598c-0.662,1.178-2.045,1.799-3.332,1.799c-2.52,0-4.527-1.938-4.527-4.895
				c0-2.956,2.008-4.833,4.527-4.833c1.287,0,2.67,0.559,3.332,1.738V9.028h1.27V18.355z M90.965,17.217
				c1.799,0,3.332-1.258,3.332-3.555s-1.742-3.496-3.332-3.496c-1.838,0-3.258,1.358-3.258,3.496
				C87.707,15.74,89.127,17.217,90.965,17.217z"/>
			<path fill="#231F20" d="M103.574,10.486c-0.416-0.22-0.965-0.32-1.287-0.32c-1.799,0-2.537,2.237-2.537,4.714v3.475h-1.27V9.028
				h1.27v2.117c0.436-1.598,1.25-2.317,2.537-2.317c0.605,0,1.268,0.2,1.439,0.359L103.574,10.486z"/>
			<path fill="#231F20" d="M106.885,22.869l1.762-4.533l-3.637-9.308h1.326l2.992,7.591l3.012-7.591h1.344l-5.492,13.841H106.885z"
				/>
		</g>
		<g>
			<g>
				<path fill="#231F20" d="M26.928,17.856V4.095h4.904c3.693,0,5.775,2.996,5.775,6.911c0,3.895-2.082,6.851-5.775,6.851H26.928z
					 M28.178,16.538h3.654c3.012,0,4.527-2.356,4.527-5.533c0-3.176-1.516-5.593-4.527-5.593h-3.654V16.538z"/>
				<path fill="#231F20" d="M48.809,17.856h-1.268v-1.598c-0.662,1.178-2.045,1.798-3.332,1.798c-2.52,0-4.527-1.938-4.527-4.894
					c0-2.957,2.008-4.834,4.527-4.834c1.287,0,2.67,0.559,3.332,1.738V8.529h1.268V17.856z M44.209,16.718
					c1.799,0,3.332-1.258,3.332-3.555c0-2.297-1.742-3.496-3.332-3.496c-1.838,0-3.26,1.358-3.26,3.496
					C40.949,15.24,42.371,16.718,44.209,16.718z"/>
				<path fill="#231F20" d="M52.311,17.856V9.727h-1.59V8.529h1.59V5.033h1.27v3.496h1.875v1.198H53.58v8.129H52.311z"/>
				<path fill="#231F20" d="M65.732,17.856h-1.268v-1.598c-0.662,1.178-2.045,1.798-3.332,1.798c-2.52,0-4.527-1.938-4.527-4.894
					c0-2.957,2.008-4.834,4.527-4.834c1.287,0,2.67,0.559,3.332,1.738V8.529h1.268V17.856z M61.133,16.718
					c1.799,0,3.332-1.258,3.332-3.555c0-2.297-1.742-3.496-3.332-3.496c-1.838,0-3.258,1.358-3.258,3.496
					C57.875,15.24,59.295,16.718,61.133,16.718z"/>
			</g>
			<g>
				<path fill="none" stroke="#231F20" stroke-width="0.7" d="M26.928,17.856V4.095h4.904c3.693,0,5.775,2.996,5.775,6.911
					c0,3.895-2.082,6.851-5.775,6.851H26.928z M28.178,16.538h3.654c3.012,0,4.527-2.356,4.527-5.533
					c0-3.176-1.516-5.593-4.527-5.593h-3.654V16.538z"/>
				<path fill="none" stroke="#231F20" stroke-width="0.7" d="M48.809,17.856h-1.268v-1.598c-0.662,1.178-2.045,1.798-3.332,1.798
					c-2.52,0-4.527-1.938-4.527-4.894c0-2.957,2.008-4.834,4.527-4.834c1.287,0,2.67,0.559,3.332,1.738V8.529h1.268V17.856z
					 M44.209,16.718c1.799,0,3.332-1.258,3.332-3.555c0-2.297-1.742-3.496-3.332-3.496c-1.838,0-3.26,1.358-3.26,3.496
					C40.949,15.24,42.371,16.718,44.209,16.718z"/>
				<path fill="none" stroke="#231F20" stroke-width="0.7" d="M52.311,17.856V9.727h-1.59V8.529h1.59V5.033h1.27v3.496h1.875v1.198
					H53.58v8.129H52.311z"/>
				<path fill="none" stroke="#231F20" stroke-width="0.7" d="M65.732,17.856h-1.268v-1.598c-0.662,1.178-2.045,1.798-3.332,1.798
					c-2.52,0-4.527-1.938-4.527-4.894c0-2.957,2.008-4.834,4.527-4.834c1.287,0,2.67,0.559,3.332,1.738V8.529h1.268V17.856z
					 M61.133,16.718c1.799,0,3.332-1.258,3.332-3.555c0-2.297-1.742-3.496-3.332-3.496c-1.838,0-3.258,1.358-3.258,3.496
					C57.875,15.24,59.295,16.718,61.133,16.718z"/>
			</g>
		</g>
	</g>
	<g>
	</g>
	<g>
	</g>
	<g>
	</g>
	<g>
	</g>
	<g>
	</g>
</g>
</svg>
