<?xml version="1.0" encoding="utf-8"?>
<!-- Generator: Adobe Illustrator 16.0.0, SVG Export Plug-In . SVG Version: 6.00 Build 0)  -->
<!DOCTYPE svg PUBLIC "-//W3C//DTD SVG 1.1//EN" "http://www.w3.org/Graphics/SVG/1.1/DTD/svg11.dtd">
<svg version="1.1" id="Layer_1" xmlns="http://www.w3.org/2000/svg" xmlns:xlink="http://www.w3.org/1999/xlink" x="0px" y="0px"
	 width="2437.92px" height="479.52px" viewBox="0 0 2437.92 479.52" enable-background="new 0 0 2437.92 479.52"
	 xml:space="preserve">
<g id="Layer_1_1_">
	<g>
		<g>
			<path fill="none" d="M538.276,357.646V80.674h104.114c78.391,0,122.608,60.299,122.608,139.09
				c0,78.388-44.219,137.883-122.608,137.883L538.276,357.646L538.276,357.646z M564.808,331.115h77.584
				c63.917,0,96.076-47.436,96.076-111.352c0-63.917-32.159-112.558-96.076-112.558h-77.584V331.115z"/>
			<path fill="none" d="M995.944,357.646H969.01v-32.158c-14.068,23.717-43.416,36.179-70.751,36.179
				c-53.465,0-96.076-38.993-96.076-98.487c0-59.496,42.611-97.283,96.076-97.283c27.335,0,56.683,11.256,70.751,34.973v-30.953
				h26.936L995.944,357.646L995.944,357.646z M898.259,334.733c38.189,0,70.751-25.325,70.751-71.557
				c0-46.229-36.981-70.349-70.751-70.349c-38.993,0-69.143,27.335-69.143,70.349C829.117,304.986,859.266,334.733,898.259,334.733z
				"/>
			<path fill="none" d="M1063.282,357.646v-163.61h-33.77v-24.12h33.77V99.567h26.934v70.349h39.797v24.12h-39.797v163.61H1063.282z
				"/>
			<path fill="none" d="M1340.859,357.646h-26.936v-32.158c-14.068,23.717-43.416,36.179-70.75,36.179
				c-53.466,0-96.078-38.993-96.078-98.487c0-59.496,42.611-97.283,96.078-97.283c27.334,0,56.682,11.256,70.75,34.973v-30.953
				h26.936V357.646z M1243.176,334.733c38.188,0,70.75-25.325,70.75-71.557c0-46.229-36.982-70.349-70.75-70.349
				c-38.995,0-69.144,27.335-69.144,70.349C1174.032,304.986,1204.181,334.733,1243.176,334.733z"/>
			<path d="M1395.695,68.212h26.934V200.87c14.068-23.717,43.414-34.973,70.75-34.973c53.465,0,96.076,37.787,96.076,97.283
				c0,59.494-42.611,98.487-96.076,98.487c-27.336,0-56.682-12.462-70.75-36.179v32.157h-26.934V68.212z M1493.379,192.83
				c-33.768,0-70.75,24.12-70.75,70.35s32.562,71.556,70.75,71.556c38.994,0,69.143-29.749,69.143-71.556
				C1562.521,220.166,1532.373,192.83,1493.379,192.83z"/>
			<path d="M1740.969,199.262c-8.844-4.422-20.5-6.432-27.334-6.432c-38.188,0-53.867,45.023-53.867,94.87v69.946h-26.934v-187.73
				h26.934v42.611c9.246-32.159,26.531-46.631,53.867-46.631c12.863,0,26.936,4.02,30.551,7.236L1740.969,199.262z"/>
			<path d="M1953.062,357.646h-26.936v-32.158c-14.067,23.717-43.414,36.179-70.75,36.179c-53.465,0-96.076-38.993-96.076-98.487
				c0-59.496,42.611-97.283,96.076-97.283c27.336,0,56.683,11.256,70.75,34.973v-30.953h26.936V357.646z M1855.379,334.733
				c38.189,0,70.75-25.325,70.75-71.557c0-46.229-36.982-70.349-70.75-70.349c-38.994,0-69.143,27.335-69.143,70.349
				C1786.236,304.986,1816.385,334.733,1855.379,334.733z"/>
			<path d="M2116.035,199.262c-8.844-4.422-20.502-6.432-27.336-6.432c-38.189,0-53.867,45.023-53.867,94.87v69.946h-26.934v-187.73
				h26.934v42.611c9.246-32.159,26.531-46.631,53.867-46.631c12.863,0,26.934,4.02,30.551,7.236L2116.035,199.262z"/>
			<path d="M2180.438,448.498l37.387-91.253l-77.186-187.329h28.143l63.514,152.757l63.918-152.757h28.541l-116.578,278.582
				H2180.438z"/>
		</g>
		<g>
			<g>
				<path d="M537.276,350.646V73.674h104.114c78.391,0,122.608,60.299,122.608,139.09c0,78.388-44.219,137.883-122.608,137.883
					L537.276,350.646L537.276,350.646z M563.808,324.115h77.584c63.917,0,96.076-47.436,96.076-111.352
					c0-63.917-32.159-112.558-96.076-112.558h-77.584V324.115z"/>
				<path d="M994.944,350.646H968.01v-32.158c-14.068,23.717-43.416,36.179-70.751,36.179c-53.465,0-96.076-38.993-96.076-98.487
					c0-59.496,42.611-97.283,96.076-97.283c27.335,0,56.683,11.256,70.751,34.973v-30.953h26.936L994.944,350.646L994.944,350.646z
					 M897.259,327.733c38.189,0,70.751-25.325,70.751-71.557c0-46.229-36.981-70.349-70.751-70.349
					c-38.993,0-69.143,27.335-69.143,70.349C828.117,297.986,858.266,327.733,897.259,327.733z"/>
				<path d="M1062.282,350.646v-163.61h-33.77v-24.12h33.77V92.567h26.934v70.349h39.797v24.12h-39.797v163.61H1062.282z"/>
				<path d="M1339.859,350.646h-26.936v-32.158c-14.068,23.717-43.416,36.179-70.75,36.179c-53.466,0-96.078-38.993-96.078-98.487
					c0-59.496,42.611-97.283,96.078-97.283c27.334,0,56.682,11.256,70.75,34.973v-30.953h26.936V350.646z M1242.176,327.733
					c38.188,0,70.75-25.325,70.75-71.557c0-46.229-36.982-70.349-70.75-70.349c-38.995,0-69.144,27.335-69.144,70.349
					C1173.032,297.986,1203.181,327.733,1242.176,327.733z"/>
			</g>
			<g>
				<path fill="none" stroke="#000000" stroke-width="13" d="M537.276,350.646V73.674h104.114
					c78.391,0,122.608,60.299,122.608,139.09c0,78.388-44.219,137.883-122.608,137.883L537.276,350.646L537.276,350.646z
					 M563.808,324.115h77.584c63.917,0,96.076-47.436,96.076-111.352c0-63.917-32.159-112.558-96.076-112.558h-77.584V324.115z"/>
				<path fill="none" stroke="#000000" stroke-width="13" d="M994.944,350.646H968.01v-32.158
					c-14.068,23.717-43.416,36.179-70.751,36.179c-53.465,0-96.076-38.993-96.076-98.487c0-59.496,42.611-97.283,96.076-97.283
					c27.335,0,56.683,11.256,70.751,34.973v-30.953h26.936L994.944,350.646L994.944,350.646z M897.259,327.733
					c38.189,0,70.751-25.325,70.751-71.557c0-46.229-36.981-70.349-70.751-70.349c-38.993,0-69.143,27.335-69.143,70.349
					C828.117,297.986,858.266,327.733,897.259,327.733z"/>
				<path fill="none" stroke="#000000" stroke-width="13" d="M1062.282,350.646v-163.61h-33.77v-24.12h33.77V92.567h26.934v70.349
					h39.797v24.12h-39.797v163.61H1062.282z"/>
				<path fill="none" stroke="#000000" stroke-width="13" d="M1339.859,350.646h-26.936v-32.158
					c-14.068,23.717-43.416,36.179-70.75,36.179c-53.466,0-96.078-38.993-96.078-98.487c0-59.496,42.611-97.283,96.078-97.283
					c27.334,0,56.682,11.256,70.75,34.973v-30.953h26.936V350.646z M1242.176,327.733c38.188,0,70.75-25.325,70.75-71.557
					c0-46.229-36.982-70.349-70.75-70.349c-38.995,0-69.144,27.335-69.144,70.349
					C1173.032,297.986,1203.181,327.733,1242.176,327.733z"/>
			</g>
		</g>
	</g>
</g>
<g opacity="0.8">
	<path fill="#405950" d="M380.89,346.383c-0.937,0-1.888-0.22-2.776-0.685c-2.936-1.536-4.071-5.161-2.535-8.099
		c0.229-0.438,22.896-44.014,25.629-69.695c2.521-23.687-2.16-46.728-4.129-54.98c-0.03-0.125-0.244-0.915-0.244-0.915l9.639-9.395
		c0,0,1.067,2.901,1.329,3.819c0.357,1.251,8.715,31,5.337,62.741c-2.975,27.956-25.952,72.123-26.929,73.989
		C385.14,345.211,383.052,346.383,380.89,346.383z"/>
</g>
<g id="triangles">
	<g>
		<g>
			<polygon fill="#87BFD1" fill-opacity="0.3804" points="312.695,76.655 268.148,130.565 245.897,63.089 			"/>
			<polygon fill="#448CCA" fill-opacity="0.2706" points="236.599,153.319 118.694,254.828 108.134,106.817 			"/>
			<polygon fill="#589A43" fill-opacity="0.3804" points="119.105,268.964 115.847,257.438 110.288,138.125 			"/>
			<polygon fill="#F68E57" fill-opacity="0.3804" points="108.524,121.16 168.38,50.889 279.447,67.422 			"/>
			<polygon fill="#F68E57" fill-opacity="0.3804" points="231.013,45.663 306.355,76.394 183.571,53.15 			"/>
			<polygon fill="#9F4322" fill-opacity="0.3804" points="286.647,62.722 273.562,55.375 273.994,73.232 			"/>
			<polygon fill="#9F4322" fill-opacity="0.3804" points="289.012,57.448 280.886,76.316 307.619,72.832 			"/>
			<polygon fill="#9F4322" fill-opacity="0.3804" points="299.381,65.501 274.824,76.613 277.291,48.664 			"/>
			<polygon fill="#A14323" fill-opacity="0.3804" points="309.152,99.083 298.608,74.852 323.502,77.218 			"/>
			<polygon fill="#F89520" fill-opacity="0.3804" points="238.257,41.874 251.306,81.333 277.274,49.797 			"/>
			<polygon fill="#FAAF5E" fill-opacity="0.3804" points="268.705,82.499 265.304,46.102 297.148,61.594 			"/>
			<polygon fill="#F68E57" fill-opacity="0.3804" points="308.122,77.362 156.052,111.917 296.756,60.654 			"/>
			<polygon fill="#974021" fill-opacity="0.3765" points="315.554,98.992 328.807,73.632 301.101,74.411 			"/>
			<polygon fill="#1C7B3E" fill-opacity="0.3804" points="311.79,93.486 430.886,155.813 363.286,256.959 			"/>
			<polygon fill="#8AD1CA" fill-opacity="0.3804" points="307.846,89.866 276.282,307.477 366.918,246.714 			"/>
			<polygon fill="#F68E57" fill-opacity="0.3804" points="108.439,121.272 308.48,71.995 157.469,63.699 			"/>
			<polygon fill="#A04323" fill-opacity="0.3804" points="157.469,63.699 133.877,77.979 149.038,97.832 			"/>
			<polygon fill="#A04323" fill-opacity="0.3804" points="108.134,106.817 144.631,116.175 133.877,77.979 			"/>
			<polygon fill="#82CA9C" fill-opacity="0.3804" points="251.51,145.313 208.45,309.146 309.473,100.061 			"/>
			<polygon fill="#F68E57" fill-opacity="0.3804" points="214.538,342.501 161.634,421.645 159.471,382.63 			"/>
			<polygon fill="#82CA9C" fill-opacity="0.3804" points="183.153,359.725 276.829,307.007 306.5,82.862 			"/>
			<polygon fill="#6EC498" fill-opacity="0.3804" points="112.947,252.674 236.65,153.128 169.338,410.396 			"/>
			<polygon fill="#6BC7BC" fill-opacity="0.3804" points="118.277,255.667 307.798,81.004 108.983,120.57 			"/>
			<polygon fill="#FAAF5E" fill-opacity="0.3804" points="119.268,271.358 108.134,106.817 98.71,161.658 			"/>
			<polygon fill="#82CA9C" fill-opacity="0.3804" points="214.5,286.128 237.509,165.151 307.5,98.795 			"/>
			<polygon fill="#FDC789" fill-opacity="0.3804" points="296.13,105.233 291.319,94.427 284.603,104.043 			"/>
			<polygon fill="#FDC789" fill-opacity="0.3804" points="310.056,103.518 297.341,83.854 287.657,105.233 			"/>
			<polygon fill="#FDC789" fill-opacity="0.3804" points="163.328,378.979 219.548,184.189 213.944,342.756 			"/>
			<polygon fill="#A14423" fill-opacity="0.3804" points="333.485,75.748 317.155,74.129 324.093,89.68 			"/>
			<polygon fill="#82CA9C" fill-opacity="0.3804" points="309.91,74.724 336.291,124.221 363.875,75.554 			"/>
			<polygon fill="#FDC789" fill-opacity="0.3804" points="319.77,107.383 319.813,71.084 289.812,89.223 			"/>
			<polygon fill="#87BFD1" fill-opacity="0.3804" points="222.477,159.974 118.39,205.725 208.261,277.486 			"/>
			<polygon fill="#87BFD1" fill-opacity="0.3804" points="176.554,227.044 125.261,272.742 113.234,203.299 			"/>
			<polygon fill="#87BFD1" fill-opacity="0.3804" points="113.304,113.935 119.162,132.6 131.586,117.866 			"/>
			<polygon fill="#87BFD1" fill-opacity="0.3804" points="137.451,142.619 163.765,117.749 130.076,106.272 			"/>
			<polygon fill="#87BFD1" fill-opacity="0.3804" points="174.05,163.756 139.557,93.844 214.5,97.496 			"/>
			<polygon fill="#87BFD1" fill-opacity="0.3804" points="249.775,145.532 189.591,98.374 258.6,67.357 			"/>
			<polygon fill="#82CA9C" fill-opacity="0.3804" points="335.307,158 405.298,95.444 318.747,63.016 			"/>
			<polygon fill="#82CA9C" fill-opacity="0.3804" points="340.778,151.118 428.867,162.963 407.903,96.42 			"/>
			<polygon fill="#03A750" fill-opacity="0.3804" points="350.149,180.523 346.971,258.838 395.102,216.953 			"/>
			<polygon fill="#87BFD1" fill-opacity="0.3804" points="255.43,162.679 338.113,185.345 315.447,98.901 			"/>
			<polygon fill="#87BFD1" fill-opacity="0.3804" points="342.869,170.348 289.001,256.721 244.674,164.59 			"/>
			<polygon fill="#87BFD1" fill-opacity="0.3804" points="303.218,269.661 300.334,226.117 265.838,250.488 			"/>
			<polygon fill="#87BFD1" fill-opacity="0.3804" points="306.857,264.376 279.423,293.598 269.066,254.061 			"/>
			<polygon fill="#FDC789" fill-opacity="0.3804" points="359.164,76.375 378.368,79.413 366.25,95.392 			"/>
			<polygon fill="#FDC789" fill-opacity="0.3804" points="373.706,78.64 393.935,89.046 375.274,102.256 			"/>
			<polygon fill="#FDC789" fill-opacity="0.3804" points="392.022,86.828 392.04,105.974 407.903,96.42 			"/>
			<polygon fill="#FDC789" fill-opacity="0.3804" points="384.88,162.66 428.867,162.963 406.569,202.79 			"/>
			<polygon fill="#FDC789" fill-opacity="0.3804" points="376.788,231.549 414.279,195.006 365.356,179.183 			"/>
			<polygon fill="#F79057" fill-opacity="0.3804" points="275.487,114.582 279.281,103.842 268.276,105.775 			"/>
			<polygon fill="#F79057" fill-opacity="0.3804" points="301.736,93.762 293.922,83.569 289.506,96.021 			"/>
			<polygon fill="#F79057" fill-opacity="0.3804" points="285.489,109.81 277.06,99.055 291.33,96.776 			"/>
			<polygon fill="#F79057" fill-opacity="0.3804" points="266.123,114.822 270.362,119.772 271.285,112.671 			"/>
			<polygon fill="#FDC789" fill-opacity="0.3804" points="279.378,108.963 285.333,107.966 281.503,102.909 			"/>
			<polygon fill="#F68C54" fill-opacity="0.3686" points="264.649,126.188 258.625,116.25 270.084,115.6 			"/>
		</g>
	</g>
</g>
</svg>
