<?xml version="1.0" encoding="utf-8"?>
<!-- Generator: Adobe Illustrator 16.0.0, SVG Export Plug-In . SVG Version: 6.00 Build 0)  -->
<!DOCTYPE svg PUBLIC "-//W3C//DTD SVG 1.1//EN" "http://www.w3.org/Graphics/SVG/1.1/DTD/svg11.dtd">
<svg version="1.1" id="timeline" xmlns="http://www.w3.org/2000/svg" xmlns:xlink="http://www.w3.org/1999/xlink" x="0px" y="0px"
	 width="79.502px" height="73.333px" viewBox="10.304 16.5 79.502 73.333" enable-background="new 10.304 16.5 79.502 73.333"
	 xml:space="preserve">
<path d="M83.9,62.233c-2.4,0-4.5,1.4-5.5,3.5h-0.1h-9.9l-6.5-17.2c-0.5-1.2-1.7-2-3-1.899c-1.3,0.1-2.4,1-2.7,2.3l-4.3,18.899
	l-4-43.399c-0.1-1.4-1.2-2.5-2.7-2.7c-1.4-0.1-2.7,0.7-3.2,2.1L29.5,65.434H13.3c-1.6,0-3,1.3-3,3c0,1.6,1.3,3,3,3h18.4
	c1.3,0,2.5-0.9,2.9-2.101l8.7-29l4.3,46.801c0.1,1.5,1.3,2.6,2.8,2.699c0.1,0,0.1,0,0.2,0c1.399,0,2.6-1,2.899-2.3l6.2-27.6l3.7,9.8
	c0.4,1.2,1.5,1.9,2.8,1.9h11.9c0.2,0,0.3-0.101,0.5-0.101c1.1,1.7,3,2.8,5.1,2.8c3.4,0,6.101-2.699,6.101-6.1
	C89.9,64.934,87.2,62.233,83.9,62.233z"/>
</svg>
