<?xml version="1.0" encoding="utf-8"?>
<!-- Generator: Adobe Illustrator 16.0.0, SVG Export Plug-In . SVG Version: 6.00 Build 0)  -->
<!DOCTYPE svg PUBLIC "-//W3C//DTD SVG 1.1//EN" "http://www.w3.org/Graphics/SVG/1.1/DTD/svg11.dtd">
<svg version="1.1" id="Layer_1" xmlns="http://www.w3.org/2000/svg" xmlns:xlink="http://www.w3.org/1999/xlink" x="0px" y="0px"
	 width="101.965px" height="98.199px" viewBox="0 0 101.965 98.199" enable-background="new 0 0 101.965 98.199"
	 xml:space="preserve">
<g id="Layer_3">
	<g>
		<path fill="none" stroke="#000000" stroke-width="7" stroke-miterlimit="10" d="M84.922,66.997c0,6.627-4.983,12-11.133,12H27.391
			c-6.149,0-11.134-5.373-11.134-12V16.991c0-6.627,4.985-12,11.134-12H73.79c6.149,0,11.133,5.373,11.133,12V66.997z"/>
		<path fill="#FFFFFF" stroke="#000000" stroke-width="7" stroke-miterlimit="10" d="M73.915,77.005c0,6.627-4.984,12-11.135,12
			H16.382c-6.149,0-11.134-5.373-11.134-12V26.999c0-6.627,4.985-12,11.134-12H62.78c6.15,0,11.135,5.373,11.135,12V77.005z"/>
		<line fill="none" stroke="#000000" stroke-width="7" stroke-miterlimit="10" x1="24.334" y1="14.999" x2="24.334" y2="89.005"/>
		<line fill="none" stroke="#000000" stroke-width="7" stroke-miterlimit="10" x1="8.499" y1="18.525" x2="19.518" y2="8.506"/>
	</g>
</g>
<g id="Layer_2">
</g>
<g>
	<g>
		<path fill="#231F20" d="M69.564,72.792c-4.097,0-7.898-1.585-10.759-4.464c-2.926-2.944-4.521-6.88-4.494-11.083
			c-0.027-4.124,1.561-8.033,4.472-10.974c2.878-2.908,6.707-4.519,10.784-4.535c4.097,0.016,7.927,1.627,10.805,4.536
			c2.911,2.942,4.499,6.851,4.472,11.007c0.027,4.17-1.569,8.106-4.494,11.051c-2.86,2.878-6.662,4.463-10.704,4.463H69.564z"/>
		<path fill="#FFFFFF" d="M69.577,44.236c7.092,0.028,12.813,5.863,12.767,13.026c0.047,7.212-5.638,13.03-12.699,13.03
			c-0.022,0-0.045,0-0.067,0s-0.044,0-0.065,0c-7.062,0-12.747-5.818-12.7-13.03C56.764,50.099,62.484,44.264,69.577,44.236
			 M69.577,39.236h-0.02c-4.746,0.019-9.203,1.893-12.552,5.276c-3.373,3.41-5.218,7.937-5.194,12.75
			c-0.023,4.861,1.83,9.416,5.221,12.828c3.333,3.354,7.765,5.202,12.479,5.202h0.066h0.066c4.714,0,9.146-1.848,12.479-5.202
			c3.391-3.412,5.244-7.967,5.221-12.828c0.023-4.812-1.821-9.339-5.195-12.749c-3.349-3.384-7.806-5.258-12.552-5.277H69.577
			L69.577,39.236z"/>
	</g>
	<g>
		<path fill="#231F20" d="M36.698,100.699l-0.008-2.492c-0.017-5.095,2.066-11.588,5.437-16.944
			c3.998-6.353,8.939-9.862,13.916-9.883h27.06c4.985,0.021,9.927,3.53,13.924,9.883c3.371,5.357,5.454,11.85,5.438,16.944
			l-0.008,2.492H36.698z"/>
		<path fill="#FFFFFF" d="M83.102,73.88c8.977,0.036,16.892,15.096,16.861,24.319H39.19c-0.03-9.224,7.884-24.283,16.862-24.319
			H83.102 M83.112,68.88h-0.01h-27.05c-5.882,0.023-11.572,3.948-16.041,11.052c-3.609,5.735-5.839,12.741-5.821,18.284l0.017,4.983
			h4.983h60.773h4.983l0.017-4.983c0.019-5.543-2.212-12.549-5.821-18.284c-4.469-7.104-10.158-11.028-16.02-11.052H83.112
			L83.112,68.88z"/>
	</g>
</g>
</svg>
