<?xml version="1.0" encoding="utf-8"?>
<!-- Generator: Adobe Illustrator 16.0.0, SVG Export Plug-In . SVG Version: 6.00 Build 0)  -->
<!DOCTYPE svg PUBLIC "-//W3C//DTD SVG 1.1//EN" "http://www.w3.org/Graphics/SVG/1.1/DTD/svg11.dtd">
<svg version="1.1" id="Your_Icon" xmlns="http://www.w3.org/2000/svg" xmlns:xlink="http://www.w3.org/1999/xlink" x="0px" y="0px"
	 width="100px" height="100px" viewBox="0 0 100 100" enable-background="new 0 0 100 100" xml:space="preserve">
<path d="M49.965,0C22.37,0,0,22.372,0,49.967c0,27.598,22.37,49.967,49.965,49.967c27.598,0,49.969-22.369,49.969-49.967
	C99.934,22.372,77.562,0,49.965,0z M55.391,81.857c0,1.012-0.826,1.84-1.84,1.84h-7.718c-1.013,0-1.84-0.828-1.84-1.84v-6.955
	c0-1.01,0.828-1.84,1.84-1.84h7.718c1.014,0,1.84,0.83,1.84,1.84V81.857z M70.238,41.53c-0.457,1.557-1.068,2.897-1.83,4.028
	c-0.764,1.129-1.633,2.137-2.608,3.021c-0.977,0.884-1.952,1.754-2.928,2.606c-1.16,0.978-2.229,1.922-3.203,2.838
	c-0.978,0.916-1.833,1.938-2.563,3.065c-0.732,1.129-1.297,2.458-1.692,3.981c-0.256,0.982-0.408,2.104-0.521,3.363
	c-0.16,1.795-1.141,2.219-1.949,2.219c-0.81,0-6.03,0-6.03,0c-1.089,0-1.955-0.891-1.926-1.979c0,0,0.083-2.977,0.359-4.839
	c0.273-1.86,0.715-3.492,1.328-4.896c0.608-1.402,1.355-2.639,2.241-3.707c0.883-1.067,1.937-2.12,3.157-3.158
	c0.975-0.853,1.906-1.647,2.793-2.378c0.884-0.733,1.677-1.542,2.378-2.427c0.7-0.884,1.25-1.875,1.647-2.974
	c0.396-1.098,0.594-2.409,0.594-3.935c0-1.832-0.319-3.401-0.961-4.715c-0.639-1.311-1.418-2.363-2.332-3.158
	c-0.916-0.791-1.894-1.371-2.931-1.738c-1.038-0.366-1.952-0.549-2.745-0.549c-3.786,0-6.576,1.236-8.375,3.707
	c-1.411,1.938-2.148,4.405-2.574,7.358c-0.304,2.11-1.535,2.572-2.281,2.572c-0.746,0-6.298,0-6.298,0
	c-1.09,0-1.911-0.889-1.825-1.975c0,0,0.348-4.432,1.354-7.178c1.007-2.746,2.472-5.093,4.395-7.046
	c1.921-1.951,4.24-3.463,6.955-4.531c2.715-1.067,5.751-1.601,9.108-1.601c2.805,0,5.412,0.412,7.825,1.236
	c2.41,0.824,4.517,2.013,6.315,3.568c1.799,1.557,3.217,3.494,4.255,5.813c1.037,2.32,1.557,4.942,1.557,7.872
	C70.926,38.128,70.695,39.973,70.238,41.53z"/>
</svg>
