<?xml version="1.0" encoding="utf-8"?>
<!-- Generator: Adobe Illustrator 16.0.0, SVG Export Plug-In . SVG Version: 6.00 Build 0)  -->
<!DOCTYPE svg PUBLIC "-//W3C//DTD SVG 1.1//EN" "http://www.w3.org/Graphics/SVG/1.1/DTD/svg11.dtd">
<svg version="1.1" id="Layer_1" xmlns="http://www.w3.org/2000/svg" xmlns:xlink="http://www.w3.org/1999/xlink" x="0px" y="0px"
	 width="100px" height="100px" viewBox="0 0 100 100" enable-background="new 0 0 100 100" xml:space="preserve">
<g>
	<path d="M9.5,69.898V89.5c0,1.199,0.8,2,2,2h18.8c1.2,0,2.2-1,2.2-2.199V69.699c0-1.199-1-2.199-2.2-2.199H11.5
		C10.3,67.498,9.5,68.697,9.5,69.898z"/>
	<path d="M39.5,69.699v19.602c0,1.199,1,2.199,2.2,2.199h17.8c1.199,0,2-0.801,2-2V69.898c0-1.199-0.801-2.398-2-2.398H41.6
		C40.401,67.498,39.5,68.498,39.5,69.699z M55.78,74.419v10.3h-9.8v-10.3H55.78z"/>
	<path d="M68.682,69.699v19.602c0,1.199,1,2.199,2.199,2.199h18.42c1.199,0,2.199-1,2.199-2.199V69.699c0-1.199-1-2.199-2.199-2.199
		H70.779C69.682,67.498,68.682,68.498,68.682,69.699z M84.98,74.419v10.3H75.18v-10.3H84.98z"/>
	<path d="M20.48,26.119l-4-1.9c-2.8-1.3-6,0.801-5.7,3.9l2.1,26.8c0.2,2.899,3.5,4.5,6,2.899l21.3-14.601c2.9-2,2.6-6.399-0.6-7.899
		l-3.9-1.9c-1-0.5-1.3-1.8-0.6-2.6c5.2-6.2,12.9-10.101,21.6-10.101c11.801,0,21.899,7.301,26.1,17.5c0.9,2.101,2.801,3.601,5,3.7
		c4.102,0.2,7.102-3.899,5.5-7.7c-5.799-14.5-20.1-24.8-36.699-24.8c-12.8,0-24.1,6.101-31.399,15.5
		C24.081,26.419,22.181,26.919,20.48,26.119z"/>
</g>
</svg>
