<?xml version="1.0" encoding="utf-8"?>
<!-- Generator: Adobe Illustrator 16.0.0, SVG Export Plug-In . SVG Version: 6.00 Build 0)  -->
<!DOCTYPE svg PUBLIC "-//W3C//DTD SVG 1.1//EN" "http://www.w3.org/Graphics/SVG/1.1/DTD/svg11.dtd">
<svg version="1.1" id="Layer_1" xmlns="http://www.w3.org/2000/svg" xmlns:xlink="http://www.w3.org/1999/xlink" x="0px" y="0px"
	 width="77px" height="77px" viewBox="8.5 12.5 77 77" enable-background="new 8.5 12.5 77 77" xml:space="preserve">
<path d="M75.402,56.855l3.693-3.691c0.098-0.094,0.192-0.188,0.283-0.285l0.055-0.054c0.194-0.195,0.357-0.412,0.486-0.644
	c0.895-1.27,1.364-2.745,1.364-4.297l0.001-23.626c0-2.015-0.785-3.909-2.209-5.334c-1.426-1.424-3.318-2.208-5.332-2.208H50.118
	c-1.671,0-3.255,0.545-4.588,1.578c-0.062,0.045-0.122,0.091-0.181,0.141c-0.363,0.299-0.693,0.624-0.983,0.967l-2.908,2.908
	c-0.253,0.203-0.48,0.405-0.689,0.613l-11.687,11.69L18.73,44.966l-2.522,2.521c-1.993,1.993-1.993,5.224,0,7.216l2.522,2.521
	l22.039,22.039l2.522,2.521c1.993,1.992,5.223,1.992,7.216,0l2.522-2.521l10.352-10.353l11.688-11.687
	C75.18,57.114,75.282,56.999,75.402,56.855z M74.566,23.438c1.385,1.385,1.384,3.627,0,5.011c-1.385,1.384-3.627,1.385-5.012,0
	c-1.384-1.383-1.385-3.627,0-5.012C70.938,22.053,73.184,22.054,74.566,23.438z"/>
</svg>
