<svg xmlns="http://www.w3.org/2000/svg" xmlns:xlink="http://www.w3.org/1999/xlink" version="1.1" id="&#1057;&#1083;&#1086;&#1081;_1" x="0px" y="0px" viewBox="0 0 100 100" enable-background="new 0 0 100 100" xml:space="preserve" height="100px" width="100px">
<path d="M94.7,48.7c-9.4-16-26.1-25.6-44.7-25.6S14.7,32.7,5.3,48.7c-0.5,0.8-0.5,1.7,0,2.5c9.4,16,26.1,25.6,44.7,25.6  s35.3-9.6,44.7-25.6C95.1,50.5,95.1,49.5,94.7,48.7z M50,71.9c-16.3,0-31-8.1-39.6-21.9C19,36.3,33.7,28.1,50,28.1S81,36.3,89.6,50  C81,63.7,66.3,71.9,50,71.9z"/>
<path d="M50,32.5c-9.6,0-17.5,7.9-17.5,17.5S40.4,67.5,50,67.5S67.5,59.6,67.5,50S59.6,32.5,50,32.5z M50,62.5  c-6.9,0-12.5-5.6-12.5-12.5S43.1,37.5,50,37.5S62.5,43.1,62.5,50S56.9,62.5,50,62.5z"/>
<path d="M50,42.5c-4.1,0-7.5,3.4-7.5,7.5s3.4,7.5,7.5,7.5s7.5-3.4,7.5-7.5S54.1,42.5,50,42.5z M50,52.5c-1.4,0-2.5-1.1-2.5-2.5  s1.1-2.5,2.5-2.5s2.5,1.1,2.5,2.5S51.4,52.5,50,52.5z"/>
</svg>