<?xml version="1.0" encoding="utf-8"?>
<!-- Generator: Adobe Illustrator 16.0.0, SVG Export Plug-In . SVG Version: 6.00 Build 0)  -->
<!DOCTYPE svg PUBLIC "-//W3C//DTD SVG 1.0//EN" "http://www.w3.org/TR/2001/REC-SVG-20010904/DTD/svg10.dtd">
<svg version="1.0" id="Layer_1" xmlns="http://www.w3.org/2000/svg" xmlns:xlink="http://www.w3.org/1999/xlink" x="0px" y="0px"
	 width="100px" height="99.997px" viewBox="0 0 100 99.997" enable-background="new 0 0 100 99.997" xml:space="preserve">
<g id="Your_Icon">
	<g>
		<path fill="#010101" d="M0,35.652c0,9.526,3.707,18.479,10.439,25.214c6.737,6.733,15.688,10.442,25.215,10.442
			c5.636-0.002,11.053-1.327,15.951-3.782l29.174,29.18c2.201,2.191,5.08,3.291,7.959,3.291c2.888,0,5.768-1.098,7.967-3.291
			c4.395-4.401,4.395-11.526,0-15.928L67.527,51.6c2.455-4.895,3.779-10.315,3.779-15.948c0.004-9.525-3.707-18.48-10.439-25.212
			C54.133,3.707,45.18,0,35.657,0c-9.525,0-18.476,3.71-25.214,10.443C3.711,17.177,0.002,26.131,0,35.652z M21.055,50.251
			c-3.895-3.899-6.043-9.08-6.039-14.595c0-5.515,2.145-10.699,6.043-14.598c3.899-3.898,9.084-6.043,14.599-6.043
			c5.513,0,10.694,2.145,14.594,6.043c3.897,3.899,6.047,9.081,6.043,14.594c0,5.514-2.147,10.696-6.043,14.594
			c-3.901,3.9-9.088,6.051-14.597,6.051C30.141,56.297,24.958,54.148,21.055,50.251z"/>
	</g>
</g>
<g>
	
		<line fill="none" stroke="#000000" stroke-width="7" stroke-linecap="round" stroke-miterlimit="10" x1="20.693" y1="35.368" x2="50.944" y2="35.368"/>
</g>
</svg>
