<?xml version="1.0" encoding="utf-8"?>
<!-- Generator: Adobe Illustrator 16.0.0, SVG Export Plug-In . SVG Version: 6.00 Build 0)  -->
<!DOCTYPE svg PUBLIC "-//W3C//DTD SVG 1.0//EN" "http://www.w3.org/TR/2001/REC-SVG-20010904/DTD/svg10.dtd">
<svg version="1.0" id="Layer_1" xmlns="http://www.w3.org/2000/svg" xmlns:xlink="http://www.w3.org/1999/xlink" x="0px" y="0px"
	 width="22px" height="16px" viewBox="0 0 22 16" enable-background="new 0 0 22 16" xml:space="preserve">
<path d="M16.954,7.007H14.97h-3.969V4.031c0-2.188-1.778-3.969-3.969-3.969c-2.187,0-3.969,1.781-3.969,3.969v2.977h1.983V4.031
	c0-1.094,0.892-1.984,1.984-1.984s1.984,0.891,1.984,1.984v2.977c-1.097,0-1.984,0.889-1.984,1.984v4.961
	c0,1.096,0.889,1.984,1.984,1.984h7.938c1.096,0,1.983-0.889,1.983-1.984V8.992C18.938,7.896,18.05,7.007,16.954,7.007z
	 M13.481,11.817v1.64c0,0.274-0.223,0.496-0.496,0.496s-0.496-0.222-0.496-0.496v-1.64c-0.291-0.172-0.496-0.478-0.496-0.841
	c0-0.548,0.443-0.992,0.992-0.992c0.55,0,0.992,0.444,0.992,0.992C13.978,11.34,13.772,11.646,13.481,11.817z"/>
</svg>
