<?xml version="1.0" encoding="utf-8"?>
<!-- Generator: Adobe Illustrator 16.0.0, SVG Export Plug-In . SVG Version: 6.00 Build 0)  -->
<!DOCTYPE svg PUBLIC "-//W3C//DTD SVG 1.1//EN" "http://www.w3.org/Graphics/SVG/1.1/DTD/svg11.dtd">
<svg version="1.1"
	 id="Layer_1" xmlns:dc="http://purl.org/dc/elements/1.1/" xmlns:cc="http://creativecommons.org/ns#" xmlns:rdf="http://www.w3.org/1999/02/22-rdf-syntax-ns#" xmlns:svg="http://www.w3.org/2000/svg"
	 xmlns="http://www.w3.org/2000/svg" xmlns:xlink="http://www.w3.org/1999/xlink" x="0px" y="0px" width="28px" height="16px"
	 viewBox="0 0 28 16" enable-background="new 0 0 28 16" xml:space="preserve">
<line id="line3103" fill="none" stroke="#000000" stroke-width="2" stroke-miterlimit="10" x1="15.084" y1="5.959" x2="23" y2="5.959"/>
<line id="line3105" fill="none" stroke="#000000" stroke-width="2" stroke-miterlimit="10" x1="19.042" y1="9.918" x2="19.042" y2="2.002"/>
<g id="g3389">
	<path id="path3391" d="M5.656,2.269c0.241,0,0.367,0.036,0.413,0.055C6.027,3.049,6.4,3.612,7.038,3.997
		c0.26,0.156,0.546,0.225,0.837,0.225c0.458,0,0.928-0.17,1.322-0.438c0.089-0.06,0.684-0.386,1.186-0.386
		c0.185,0,0.57,0,0.968,1.043c0.263,0.689-0.655,2.862-2.387,3.855c-1.954,1.121-4.716,2.601-4.816,2.655
		c-0.053,0.027-0.105,0.06-0.157,0.093c-0.062,0.04-0.245,0.163-0.5,0.361C2.894,9.893,1.896,7.21,2.009,5.128
		c0.045-0.842,0.377-1.947,1.697-2.426C4.693,2.344,5.312,2.269,5.656,2.269 M5.656,0.269c-0.673,0-1.534,0.155-2.633,0.554
		c-1.927,0.699-2.91,2.319-3.012,4.198c-0.185,3.415,1.912,7.631,2.091,8.364C2.382,14.52,2.303,16,2.303,16
		c0.812-1.997,2.781-3.281,2.781-3.281s2.847-1.523,4.875-2.688c2.403-1.379,3.957-4.476,3.26-6.302
		c-0.698-1.831-1.819-2.331-2.837-2.331c-1.229,0-2.307,0.73-2.307,0.73S7.99,0.269,5.656,0.269L5.656,0.269z"/>
</g>
<path id="path3393" fill="none" stroke="#000000" stroke-width="2" stroke-linecap="round" stroke-linejoin="round" stroke-miterlimit="10" d="
	M10.803,13.031c0,0,1.773-2.51,0.964-5.54"/>
</svg>
