<?xml version="1.0" encoding="utf-8"?>
<!-- Generator: Adobe Illustrator 16.0.0, SVG Export Plug-In . SVG Version: 6.00 Build 0)  -->
<!DOCTYPE svg PUBLIC "-//W3C//DTD SVG 1.1//EN" "http://www.w3.org/Graphics/SVG/1.1/DTD/svg11.dtd">
<svg version="1.1"
	 id="Layer_1" xmlns:dc="http://purl.org/dc/elements/1.1/" xmlns:cc="http://creativecommons.org/ns#" xmlns:rdf="http://www.w3.org/1999/02/22-rdf-syntax-ns#" xmlns:svg="http://www.w3.org/2000/svg"
	 xmlns="http://www.w3.org/2000/svg" xmlns:xlink="http://www.w3.org/1999/xlink" x="0px" y="0px" width="28px" height="16px"
	 viewBox="0 0 28 16" enable-background="new 0 0 28 16" xml:space="preserve">
<path id="path3395" fill="none" stroke="#000000" stroke-width="2" stroke-linecap="round" stroke-linejoin="round" stroke-miterlimit="10" d="
	M0,0"/>
<line id="line3397" fill="none" stroke="#000000" stroke-width="2" stroke-miterlimit="10" x1="4.074" y1="3.884" x2="12.698" y2="12.511"/>
<g>
	<path d="M8.188,2.813c2.859,0,5.186,2.327,5.186,5.186c0,2.86-2.327,5.187-5.186,5.187c-2.86,0-5.187-2.327-5.187-5.187
		C3.001,5.14,5.328,2.813,8.188,2.813 M8.188,0.813c-3.97,0-7.187,3.217-7.187,7.186c0,3.969,3.217,7.187,7.187,7.187
		c3.969,0,7.186-3.218,7.186-7.187C15.374,4.031,12.157,0.813,8.188,0.813L8.188,0.813z"/>
</g>
</svg>
