<?xml version="1.0" encoding="UTF-8" standalone="no"?>
<!-- Created with Inkscape (http://www.inkscape.org/) -->

<svg
   xmlns:dc="http://purl.org/dc/elements/1.1/"
   xmlns:cc="http://creativecommons.org/ns#"
   xmlns:rdf="http://www.w3.org/1999/02/22-rdf-syntax-ns#"
   xmlns:svg="http://www.w3.org/2000/svg"
   xmlns="http://www.w3.org/2000/svg"
   version="1.1"
   width="28"
   height="16"
   viewBox="0 0 28 16"
   id="Layer_1"
   xml:space="preserve"><metadata
   id="metadata3403"><rdf:RDF><cc:Work
       rdf:about=""><dc:format>image/svg+xml</dc:format><dc:type
         rdf:resource="http://purl.org/dc/dcmitype/StillImage" /><dc:title></dc:title></cc:Work></rdf:RDF></metadata><defs
   id="defs3401" />
<g
   id="g3389">
	<path
   d="m 5.656,2.269 c 0.241,0 0.367,0.036 0.413,0.055 -0.042,0.725 0.331,1.288 0.969,1.673 0.26,0.156 0.546,0.225 0.837,0.225 0.458,0 0.928,-0.17 1.322,-0.438 0.089,-0.06 0.684,-0.386 1.186,-0.386 0.185,0 0.57,0 0.968,1.043 0.263,0.689 -0.655,2.862 -2.387,3.855 -1.954,1.121 -4.716,2.601 -4.816,2.655 -0.053,0.028 -0.105,0.06 -0.157,0.093 -0.062,0.04 -0.245,0.163 -0.5,0.361 C 2.894,9.893 1.896,7.21 2.009,5.128 2.054,4.286 2.386,3.181 3.706,2.702 4.693,2.344 5.312,2.269 5.656,2.269 m 0,-2 C 4.983,0.269 4.122,0.424 3.023,0.823 1.096,1.522 0.113,3.142 0.011,5.021 -0.174,8.436 1.923,12.653 2.102,13.385 2.382,14.52 2.303,16 2.303,16 c 0.812,-1.997 2.781,-3.281 2.781,-3.281 0,0 2.847,-1.524 4.875,-2.688 2.403,-1.378 3.957,-4.476 3.26,-6.302 C 12.521,1.898 11.4,1.398 10.382,1.398 c -1.229,0 -2.307,0.73 -2.307,0.73 0,0 -0.085,-1.859 -2.419,-1.859 l 0,0 z"
   id="path3391" />
</g>
<path
   d="m 10.803,13.031 c 0,0 1.773,-2.509 0.964,-5.54"
   id="path3393"
   style="fill:none;stroke:#000000;stroke-width:2;stroke-linecap:round;stroke-linejoin:round;stroke-miterlimit:10" />
<path
   d=""
   id="path3395"
   style="fill:none" />
<line
   fill="none"
   stroke="#000000"
   stroke-width="2"
   stroke-miterlimit="10"
   x1="15.084"
   y1="5.9590001"
   x2="23"
   y2="5.9590001"
   id="line3397"
   style="fill:none;stroke:#000000;stroke-width:2;stroke-miterlimit:10" />
</svg>