<?xml version="1.0" encoding="utf-8"?>
<!-- Generator: Adobe Illustrator 16.0.0, SVG Export Plug-In . SVG Version: 6.00 Build 0)  -->
<!DOCTYPE svg PUBLIC "-//W3C//DTD SVG 1.1//EN" "http://www.w3.org/Graphics/SVG/1.1/DTD/svg11.dtd">
<svg version="1.1" id="Layer_1" xmlns="http://www.w3.org/2000/svg" xmlns:xlink="http://www.w3.org/1999/xlink" x="0px" y="0px"
	 width="28px" height="16px" viewBox="0 0 28 16" enable-background="new 0 0 28 16" xml:space="preserve">
<g>
	<path d="M5.656,1.769c0.797,0,0.897,0.311,0.92,0.451c-0.01,0.554,0.287,1.013,0.774,1.282c0.202,0.111,0.423,0.163,0.645,0.163
		c0.321,0,0.645-0.107,0.921-0.294c0.007-0.005,0.742-0.472,1.466-0.472c0.274,0,0.914,0,1.436,1.366
		c0.367,0.963-0.654,3.347-2.605,4.467c-2.007,1.15-4.806,2.649-4.832,2.663l0,0c-0.04,0.021-0.079,0.044-0.116,0.069
		c-0.095,0.062-0.487,0.324-0.985,0.766c-0.036-0.091-0.075-0.188-0.117-0.295C2.585,10.482,1.382,7.462,1.51,5.102
		c0.053-0.993,0.448-2.297,2.025-2.869C4.383,1.925,5.097,1.769,5.656,1.769 M5.656,0.269c-0.673,0-1.534,0.155-2.633,0.554
		c-1.927,0.699-2.91,2.319-3.012,4.198c-0.185,3.415,1.912,7.632,2.091,8.364C2.382,14.52,2.303,16,2.303,16
		c0.812-1.997,2.781-3.281,2.781-3.281c0,0,2.847-1.524,4.875-2.688c2.403-1.378,3.957-4.476,3.26-6.302
		c-0.698-1.831-1.819-2.331-2.837-2.331c-1.229,0-2.307,0.73-2.307,0.73S7.99,0.269,5.656,0.269L5.656,0.269z"/>
</g>
<path fill="none" stroke="#000000" stroke-width="1.5" stroke-linecap="round" stroke-linejoin="round" stroke-miterlimit="10" d="
	M10.803,13.031c0,0,1.773-2.509,0.964-5.54"/>
<path fill="none" enable-background="new    " d="z"/>
</svg>
